<svg viewBox="0 0 660 522">
    <path d="M569.78 142.25C565.307 143.79 560.941 145.624 556.71 147.74C549.6 151.21 544.85 158.16 540.29 164.17C537.01 168.49 534.56 173.38 531.62 177.93C524.92 188.27 518.33 198.5 511.03 208.38C495.972 227.283 479.025 244.599 460.45 260.06L437.65 270.53C425.55 276.09 413.503 281.757 401.51 287.53L375.84 299.84L367.92 303.66C363.3 305.88 358.62 307.95 354.1 310.38C348.1 313.57 342.89 318.1 337.62 322.24C335.455 324.406 333.542 326.812 331.92 329.41C314.84 333.06 297.52 335.34 280.21 337.72C280.21 337.72 280.21 337.8 280.21 337.82C294.35 341.27 308.57 344.71 323.02 346.7L326.02 347.1C325.363 354.645 326.862 362.222 330.342 368.949C333.823 375.676 339.142 381.277 345.68 385.1L355.24 389.1C362.199 391 369.541 391 376.5 389.1C379.28 388.58 382.04 387.983 384.78 387.31C387.924 391.35 391.731 394.826 396.04 397.59C402.063 401.548 408.898 404.105 416.04 405.07C419.56 405.57 423.04 406.02 426.59 406.46C426.77 407.15 426.97 407.84 427.19 408.52C430.628 419.141 436.465 428.828 444.25 436.83C447.57 440.185 451.177 443.243 455.03 445.97C464.43 452.97 477.84 453.55 488.78 451.32C503.64 448.27 514.72 436.32 520.73 423.03C530.25 401.94 538.24 380.43 545.84 358.59C550.9 344.05 555.54 329.36 560.31 314.72C562.671 313.366 564.602 311.373 565.88 308.97C568.192 304.275 570.196 299.435 571.88 294.48C572.62 292.35 573.3 290.23 573.88 288.06C575.1 283.71 576 276.75 574.35 272.28C573.696 270.384 572.925 268.53 572.04 266.73C572.04 265.59 572.04 264.46 571.91 263.33C576.27 257.77 580.523 252.14 584.67 246.44C588.42 241.33 591.93 236.09 595.31 230.76C607.97 222.11 615.02 206.24 619.75 192.3C624.34 178.77 619.08 162.52 609.29 152.71C601.52 145.079 591.109 140.735 580.22 140.58C576.673 140.569 573.147 141.133 569.78 142.25Z" fill="#F8B368"/>
    <path d="M344.33 0.019989C336.09 0.019989 327.87 0.299976 319.62 0.599976C303.34 1.16998 287.16 3.65998 271.15 6.53998C240.65 12.05 211.07 21.54 181.74 31.34C174.64 33.71 167.6 36.34 160.74 39.28C156.81 40.91 152.74 42.38 148.89 44.28L135.6 50.74C118.81 58.93 103.6 70.02 89.79 82.51C74.18 96.55 62.61 114.34 54.7 133.74C49.85 145.64 47.6 158.74 46.63 171.54C46.1917 178.505 46.2485 185.493 46.8 192.45C47.52 203.36 48.74 214.21 50.21 225.04C51.54 234.89 52.95 244.73 54.91 254.49C56.87 264.25 59.18 274.25 61.03 284.17C61.6601 290.777 61.6199 297.431 60.91 304.03C60.4205 307.729 59.5286 311.364 58.25 314.87C55.12 321.97 51.37 328.82 47.69 335.63C43.42 343.63 39.1 351.63 34.55 359.46C32.31 363.26 30.13 367.12 27.62 370.76C24.71 375 21.76 379.2 18.84 383.44C12.42 392.74 6.06 402.07 0 411.61C0 411.61 7.32392e-06 411.69 0.0700073 411.61C10.47 399.44 21.27 387.61 31.85 375.61C36.58 370.23 40.85 364.44 45.09 358.69C49.21 353.11 53.4 347.57 57.57 342.04C61.51 336.8 65.31 331.45 69.09 326.09C70.57 324 72.04 321.9 73.39 319.74C75.2062 316.643 76.6942 313.366 77.83 309.96C80.59 302.29 81.48 294.03 82.13 285.96C82.5 281.48 81.86 277.05 81.34 272.61C80.82 268.17 80.18 263.51 79.55 258.97C78.94 254.83 78.32 250.68 77.72 246.53C76.12 234.13 74.4533 221.74 72.72 209.36C72.3267 206.387 71.9267 203.42 71.52 200.46C71.06 196.39 70.52 192.33 70.22 188.25C69.97 185.37 69.72 182.51 69.58 179.63C68.831 164.895 71.2875 150.173 76.78 136.48C81.1644 126.567 86.6166 117.161 93.04 108.43C100.486 99.5329 108.867 91.4631 118.04 84.36C129.12 76.15 140.99 69.51 153.3 63.36C158.92 60.57 164.66 58.12 170.43 55.66C189.35 48.66 208.38 42.13 227.74 36.39C237.11 33.61 246.54 30.93 256.09 28.79C261.31 27.63 266.54 26.23 271.81 25.28C277.41 24.26 283.017 23.26 288.63 22.28C299.16 20.93 309.63 19.61 320.29 19.22C336.29 18.65 352.47 17.9 368.44 19.76C376.906 21.079 385.194 23.3639 393.14 26.57C405.507 32.0458 417.203 38.9242 428 47.07C431.62 49.87 435.22 52.68 438.59 55.79C442.412 59.4296 445.936 63.3688 449.13 67.57C460.151 82.2081 469.377 98.115 476.61 114.95C480.738 125.148 483.674 135.788 485.36 146.66C486.184 153.964 486.565 161.31 486.5 168.66C486.537 176.568 486.153 184.473 485.35 192.34C483.973 200.135 481.771 207.761 478.78 215.09C476.847 218.991 474.561 222.706 471.95 226.19C465.81 233.512 459.063 240.303 451.78 246.49C448.78 249.16 445.51 251.6 442.31 254.06L443.62 253.06L433.2 260.06C426.012 264.771 418.454 268.891 410.6 272.38C406.49 274.05 402.38 275.77 398.17 277.17C392.29 279.17 386.49 280.99 380.52 282.61C374.76 284.15 369 285.44 363.17 286.71C358.27 287.79 353.27 288.49 348.3 289.28C326.73 291.74 305.06 293.28 283.39 294.73C273.17 295.44 262.9 296.3 252.65 296.33C246.41 296.33 240.2 296.33 233.96 296.19C228.96 296.06 223.96 295.67 218.96 295.28C210.14 293.89 201.42 292.28 192.69 290.41C188.04 289.41 183.43 288.24 178.82 287.04C177.82 286.78 176.82 286.48 175.82 286.2C172.975 285.292 169.994 284.889 167.01 285.01C160.24 285.39 154.27 288.76 148.91 292.65C142.72 297.14 137.91 303.3 132.8 308.96C129.8 312.34 126.37 315.49 123.07 318.61C118.94 322.48 114.78 326.24 110.49 329.94C107.02 332.94 103.37 335.7 99.76 338.51C88.68 346.91 77.36 354.92 65.94 362.86C59.94 367.047 53.92 371.243 47.88 375.45C42.69 379.06 37.42 382.64 32.48 386.59C32.48 386.59 32.48 386.67 32.53 386.66C42.53 381.38 52.97 376.66 63.23 371.82C74.0567 366.7 84.8567 361.543 95.63 356.35C106.403 351.157 117.007 345.54 127.44 339.5C138.1 333.39 147.96 326.05 157.61 318.5C160.795 316.221 164.186 314.246 167.74 312.6L168.68 312.32C175.05 313.55 181.32 315.32 187.61 316.87C195.49 318.82 203.36 320.62 211.34 322.12C219.741 323.566 228.224 324.485 236.74 324.87C244.12 325.32 251.53 325.6 258.93 325.49C275.33 325.24 291.69 324.25 308.03 322.99C324.03 321.76 340.12 320.99 355.93 318.22L368.72 316.03C373.08 315.27 377.4 314.03 381.72 313.03C389.102 311.211 396.374 308.971 403.5 306.32C413.722 302.738 423.66 298.392 433.23 293.32C439.464 289.906 445.476 286.102 451.23 281.93C455.23 279.14 459.11 276.37 462.82 273.27C471.59 266.146 479.675 258.218 486.97 249.59C490.124 245.709 493.065 241.66 495.78 237.46C498.45 233.21 500.605 228.659 502.2 223.9C505.808 213.627 507.762 202.846 507.99 191.96C508.14 186.66 507.55 181.24 507.26 175.96C507.06 172.11 506.67 168.27 506.37 164.42C506.07 160.57 505.48 157.01 505.03 153.33C503.565 142.392 501.032 131.624 497.47 121.18C495.084 114.045 492.197 107.088 488.83 100.36C487.11 96.88 485.5 93.36 483.62 89.95C481.74 86.54 480.07 83.22 478.11 79.95C476.15 76.68 474.21 73.05 471.96 69.83C464.22 58.71 456.56 47.61 446.16 38.76C430.5 25.45 413.29 14.6 394.16 7.12C378.56 1.02 361.56 0 345 0L344.33 0.019989ZM448.25 66.4L448.68 66.97L448.25 66.4ZM71.16 197.52C71.26 198.19 71.35 198.85 71.44 199.52C71.35 198.85 71.26 198.19 71.16 197.52ZM77.97 248.41C77.97 248.71 78.05 249 78.08 249.3C78.08 249 78.01 248.71 77.97 248.41ZM58.91 313.33C58.83 313.52 58.74 313.71 58.66 313.91C58.74 313.71 58.82 313.52 58.91 313.33ZM99.37 338.74L98.72 339.24L99.37 338.74Z" fill="black"/>
    <path d="M493.9 82.74C488.64 83.58 483.47 84.67 478.28 85.84V85.94C495.061 84.6189 511.933 84.9907 528.64 87.05C528.32 87.05 528.01 86.97 527.7 86.91C542.64 88.96 557.26 92.23 571.23 97.96C576.603 100.277 581.714 103.156 586.48 106.55C591.176 110.434 595.441 114.813 599.2 119.61C603.392 125.439 607.201 131.535 610.6 137.86C614.4 144.72 618.04 151.62 621.17 158.86C625.32 168.968 628.537 179.435 630.78 190.13C631.51 193.69 631.97 197.33 632.51 200.94C633.19 207.4 633.8 213.82 634.18 220.31C634.777 229.706 634.583 239.136 633.6 248.5C631.927 259.871 629.044 271.031 625 281.79C623.86 284.5 622.72 287.22 621.4 289.85C619.16 294.31 616.92 298.68 614.47 303.03C612.65 306.24 610.89 309.52 608.83 312.57C606.77 315.62 604.46 318.81 602.15 321.86C598.56 326.13 594.93 330.29 591.15 334.38C587.53 338.3 583.79 342.12 580.15 346C573.36 353.21 565.64 359.54 557.94 365.76C553.07 369.33 548.2 372.84 543.06 376.03C537.32 379.6 531.61 383.22 525.84 386.77C523.38 388.28 520.84 389.77 518.26 391C516.42 391.93 514.48 392.6 512.68 393.62C511.209 394.553 509.864 395.672 508.68 396.95C507.507 398.187 506.541 399.605 505.82 401.15C503.989 405.078 503.433 409.48 504.23 413.74C504.64 416.31 505.23 418.74 505.87 421.31C506.68 424.42 507.54 427.55 508.52 430.63C510.56 436.937 512.59 443.247 514.61 449.56C516.61 455.78 518.07 462.11 519.61 468.45C521.1 474.56 522.4 480.71 523.81 486.83L524.56 490.09C521.31 487.46 518.05 484.84 514.85 482.16C509.75 477.92 504.85 473.52 500.08 468.95C495.172 464.045 490.599 458.816 486.39 453.3C481.723 447.5 477.11 441.67 472.55 435.81C470.1 432.7 467.65 429.68 464.89 426.81C461.44 423.35 457.7 420.191 453.71 417.37C450.13 414.76 446.56 412.15 442.84 409.74C434.498 404.451 425.362 400.535 415.78 398.14C407.28 395.95 398.39 395.05 389.67 394.35C375.56 393.2 361.5 391.97 347.46 390.22L337.66 389C329.42 387.89 321.1 386.9 312.96 385.15C308.56 384.21 304.13 383.41 299.79 382.2C292.447 380.255 285.222 377.891 278.15 375.12C268.957 371.005 260.1 366.177 251.66 360.68C247.42 357.96 243.39 355.01 239.3 352.06C233.689 347.743 228.46 342.952 223.67 337.74C221.5 335.33 219.42 332.89 217.34 330.4L217.57 330.71C214.945 327.379 212.691 323.771 210.85 319.95L210.9 320.05C210.198 318.308 209.662 316.503 209.3 314.66C209.163 313.478 209.137 312.287 209.22 311.1C209.22 311.05 209.15 311.03 209.14 311.1C207.04 321.2 212.66 330.95 218.01 339.1C221.228 344.073 224.772 348.827 228.62 353.33C232.28 357.58 236.38 361.39 240.42 365.26C242.76 367.51 245.3 369.53 247.76 371.63C253.461 376.451 259.474 380.891 265.76 384.92C272.588 389.326 279.829 393.057 287.38 396.06C290.76 397.38 294.13 398.93 297.6 400.06C325.08 408.9 353.46 414.94 382 419.28C394.6 421.18 407 423.18 419 427.73C427.399 431.69 435.362 436.517 442.76 442.13C451 448.81 458.03 456.76 465.13 464.6C469.6 469.6 473.9 474.75 478.66 479.39C483.42 484.03 488.2 488.56 493.29 492.81C498.71 497.32 504.22 501.75 509.63 506.27C514.48 510.34 519.21 514.55 524.72 517.69C528.034 519.72 531.77 520.962 535.64 521.32C538.678 521.463 541.683 520.637 544.22 518.96C546.194 517.708 547.856 516.022 549.08 514.03C550.424 511.556 551.247 508.834 551.5 506.03C552.05 501.87 551.1 497.55 550.14 493.5C549.4 490.38 548.35 487.38 547.38 484.33C545.48 478.4 543.72 472.43 541.95 466.45C539.27 457.37 536.31 448.33 533.06 439.45C529.51 429.74 525.69 419.86 523.64 409.7C523.61 409.11 523.61 408.52 523.64 407.93C529.19 404.93 535.21 402.79 540.96 400.24C547.7 397.24 554.27 393.97 560.77 390.5C566.599 387.207 572.238 383.588 577.66 379.66C584.02 375.25 590.12 370.34 596.01 365.33C601.01 361.1 605.82 356.69 610.48 352.14C615.886 346.858 620.994 341.28 625.78 335.43C635.59 323.51 643.04 309.79 648.96 295.6C651.15 290.456 653.033 285.187 654.6 279.82C656.134 273.972 657.257 268.024 657.96 262.02C659.042 254.718 659.55 247.342 659.48 239.96C659.4 234.79 658.84 229.62 658.41 224.46C657.79 216.98 656.57 209.52 655.25 202.15C653.812 193.827 651.858 185.601 649.4 177.52C644.386 161.79 637.153 146.856 627.92 133.17C620.37 121.82 612.69 110.58 602.22 101.64C587.84 89.35 569.04 84.18 550.65 81.64C542.836 80.5638 534.957 80.0291 527.07 80.04C515.959 80.064 504.868 80.9669 493.9 82.74V82.74ZM524.23 406.03C524.09 406.39 523.94 406.74 523.79 407.09C523.92 406.73 524.07 406.38 524.23 406.03ZM524.68 406.89L523.68 407.7C523.987 407.399 524.322 407.128 524.68 406.89V406.89ZM523.09 408.27L522.58 408.93C522.739 408.702 522.909 408.481 523.09 408.27V408.27ZM527.29 504.27C527.23 504.42 527.16 504.57 527.09 504.71C527.16 504.56 527.22 504.4 527.29 504.25V504.27Z" fill="black"/>
    <path d="M176.25 78.47C172.441 79.3336 168.799 80.8166 165.47 82.86C157.29 87.69 151.68 96.54 147.66 104.86C139.78 121.22 136.78 139.6 136.25 157.64C136.061 166.561 137.176 175.461 139.56 184.06C141.758 192.582 146.344 200.298 152.78 206.3C155.446 208.641 158.489 210.514 161.78 211.84C165.111 213.187 168.635 213.997 172.22 214.24C180.22 214.93 188.39 212.12 195.35 208.36C201.78 204.86 206.58 198.89 210.82 193.08C214.024 188.532 216.638 183.596 218.6 178.39H218.52C217.09 180.83 215.52 183.13 213.86 185.39C210.186 189.987 205.98 194.133 201.33 197.74V197.74C199.062 199.46 196.639 200.963 194.09 202.23C190.683 203.592 187.144 204.597 183.53 205.23C180.614 205.558 177.671 205.582 174.75 205.3C172.71 204.947 170.703 204.425 168.75 203.74C166.932 202.833 165.193 201.776 163.55 200.58C162.271 199.462 161.065 198.263 159.94 196.99C158.362 194.762 156.983 192.4 155.82 189.93C154.523 186.281 153.572 182.518 152.98 178.69C152.211 171.325 152.289 163.897 153.21 156.55C154.862 144.902 157.883 133.49 162.21 122.55C164.565 117.188 167.435 112.067 170.78 107.26C172.33 105.408 174.022 103.68 175.84 102.09C176.79 101.47 177.76 100.92 178.77 100.39L179.92 100C180.77 100.46 181.59 100.95 182.41 101.47C183.287 102.237 184.113 103.063 184.88 103.94C188.715 109.168 192.031 114.758 194.78 120.63C196.204 124.248 197.289 127.991 198.02 131.81C198.22 133.843 198.28 135.888 198.2 137.93C197.946 139.063 197.633 140.181 197.26 141.28C196.97 141.83 196.66 142.37 196.32 142.9L196.22 142.8C195.88 142.28 195.56 141.74 195.22 141.19C194.724 139.706 194.115 138.262 193.4 136.87C193.071 136.257 192.664 135.689 192.19 135.18C192.1 134.57 191.99 134.01 191.93 133.63C191.449 130.815 190.781 128.036 189.93 125.31C189.31 123.31 188.57 120.7 186.58 119.53C185.388 118.929 184.071 118.622 182.736 118.635C181.402 118.647 180.09 118.978 178.91 119.6C170.31 123.89 165.68 132.4 161.91 140.89C159.56 146.22 156.61 152.2 156.45 158.11C156.35 161.91 157.03 165.96 159.7 168.85C161.237 170.5 163.022 171.9 164.99 173C167.28 174.31 170.13 174.42 172.68 174.23C174.478 174.1 176.25 173.73 177.95 173.13C180.203 172.418 182.257 171.188 183.95 169.54C185.239 168.146 186.388 166.629 187.38 165.01C187.973 164.011 188.488 162.968 188.92 161.89C191.076 162.973 193.448 163.554 195.86 163.59C199.832 163.617 203.723 162.465 207.04 160.28C210.707 157.703 213.618 154.191 215.47 150.11C217.47 145.94 218.23 141.67 218.68 137.11C218.788 134.768 218.647 132.422 218.26 130.11C218 127.849 217.622 125.602 217.13 123.38C215.948 118.606 214.272 113.967 212.13 109.54C209.664 104.346 206.771 99.3652 203.48 94.65C201.659 91.8522 199.602 89.2159 197.33 86.77C194.733 84.2219 191.767 82.081 188.53 80.42C185.902 78.9229 182.934 78.1241 179.91 78.1C178.655 78.1 177.405 78.2375 176.18 78.51L176.25 78.47ZM177.91 99.31H178.12H177.91ZM180.15 99.94L180.32 100.02L180.14 99.94H180.15ZM184.04 124.22H184.3L184.89 124.67C186.207 126.803 187.354 129.037 188.32 131.35C188.49 131.84 188.67 132.35 188.84 132.83C186.817 131.983 184.572 131.825 182.45 132.38C180.411 132.96 178.616 134.186 177.334 135.874C176.052 137.562 175.352 139.62 175.34 141.74C175.34 143.31 175.34 144.82 175.22 146.37C174.666 150.198 173.786 153.972 172.59 157.65L172.44 157.97L172.31 158.04C171.81 158.2 171.31 158.34 170.79 158.46L170.65 158.37C170.57 158.1 170.49 157.81 170.43 157.53C170.345 155.822 170.395 154.11 170.58 152.41C171.478 146.33 173.009 140.361 175.15 134.6C176.176 132.319 177.415 130.139 178.85 128.09C179.85 126.947 180.948 125.893 182.13 124.94L183.41 124.3L184.04 124.19V124.22ZM197.6 141.22C197.38 141.55 197.15 141.87 196.9 142.22C196.9 142.22 196.9 142.15 196.95 142.12L197.6 141.26V141.22ZM194.87 141.94L195.77 142.63C195.46 142.4 195.15 142.15 194.86 141.89L194.87 141.94ZM196.93 142.1V142.19L196.5 142.7L196.96 142.1H196.93ZM195.77 142.63L196.16 142.94L195.78 142.74L195.77 142.63ZM195.52 142.91L195.74 143.01L195.52 142.91ZM197.7 143.59L198.62 143.71C198.311 143.685 198.004 143.645 197.7 143.59V143.59ZM194.8 143.97C194.569 144.082 194.332 144.182 194.09 144.27L194.8 143.97ZM170.21 156.24C170.21 156.38 170.21 156.51 170.26 156.65C170.26 156.51 170.26 156.38 170.21 156.24ZM173.59 156.59C173.306 157.05 172.97 157.476 172.59 157.86L173.59 156.57V156.59ZM170.22 157.5L170.43 158C170.36 157.84 170.28 157.67 170.22 157.5ZM172.22 158.23C171.975 158.452 171.715 158.656 171.44 158.84V158.84L172.22 158.23ZM170.94 158.97L171.53 159.73C171.313 159.49 171.113 159.237 170.93 158.97H170.94Z" fill="black"/>
    <path d="M229.78 128.26C241.97 144.99 255.43 161.1 271.78 173.91C274.64 176.15 277.55 178.32 280.55 180.36C284.16 182.83 288.98 187.36 293.55 185.55C300.32 182.85 297.4 174.55 295.89 169.45C294.34 164.18 292.39 158.98 290.49 153.82C290.49 153.82 290.39 153.82 290.41 153.82C291.04 160.97 291.46 168.2 291.41 175.37C291.41 175.59 291.34 175.81 291.31 176.04C287.31 172.15 283.31 168.17 279.24 164.29C274.258 159.623 269.034 155.22 263.59 151.1L263.77 151.25L263.44 150.99L262.59 150.34L263.12 150.74C252.486 142.545 241.351 135.02 229.78 128.21V128.21C229.78 128.21 229.72 128.21 229.78 128.27V128.26ZM263.51 151L263.66 151.11L263.19 150.75L263.51 151Z" fill="black"/>
    <path d="M250.89 113.64C250.09 114.877 249.477 116.225 249.07 117.64C248.7 119.218 248.492 120.83 248.45 122.45C246.51 133.98 244.52 145.53 242.69 157.09C242.59 157.75 242.48 158.41 242.38 159.09C239.92 158.77 237.26 158.88 236.06 161.25C235.635 162.011 235.522 162.907 235.744 163.75C235.966 164.593 236.506 165.317 237.25 165.77C238.06 166.23 238.86 166.77 239.65 167.26C240.12 167.64 240.58 168.04 241.04 168.44C240.753 170.567 240.457 172.697 240.15 174.83C239.64 178.25 239.15 181.67 238.67 185.09L238.22 188.36C237.94 190.42 237.49 192.45 237.22 194.51C237.066 195.503 236.989 196.506 236.99 197.51C237.13 198.61 237.29 199.72 237.47 200.82C237.85 203.32 240.69 205.06 243.05 205.06C245.86 205.06 247.6 203.23 248.61 200.82C250.2 197.04 251.46 193.14 252.93 189.32C253.6 187.59 254.26 185.85 254.93 184.12C256.643 186.651 258.203 189.282 259.6 192C260.135 194.378 260.83 196.716 261.68 199C262.028 200.149 262.655 201.194 263.505 202.042C264.354 202.89 265.401 203.514 266.55 203.86C268.032 204.263 269.606 204.166 271.028 203.586C272.45 203.006 273.642 201.974 274.42 200.65C275.488 198.892 275.845 196.793 275.42 194.78C274.969 192.803 274.151 190.927 273.01 189.25C272.3 186.69 271.74 184.09 271.08 181.55C270.41 178.82 269.84 176.09 269.21 173.35C268.5 170.24 267.95 167.1 267.41 163.95C269.5 163.7 271.6 163.44 273.68 163.13C285.17 161.42 296.68 159.84 308.04 157.32C308.1 157.32 308.04 157.22 308.04 157.22C297.1 158.36 286.04 158.7 275.12 159.3C272.3 159.45 269.48 159.54 266.66 159.62C266.58 159.13 266.49 158.62 266.4 158.14C266.32 157.32 266.23 156.5 266.13 155.68L267.06 153.33C267.49 152.33 267.91 151.33 268.34 150.33C268.34 150.4 268.34 150.46 268.27 150.53C269.92 146.61 271.61 142.72 273.55 138.93C275.085 135.74 276.871 132.677 278.89 129.77C279.446 129.028 280.08 128.348 280.78 127.74C281.396 127.275 282.068 126.889 282.78 126.59L283.99 126.23H284.99L285.76 126.61C286.61 127.41 287.42 128.25 288.22 129.12C288.22 129.12 288.31 129.12 288.28 129.07C287.5 127.84 286.66 125.96 285.17 125.38C283.46 124.7 281.34 125.7 279.82 126.38C277.49 127.46 275.63 129.85 274.12 131.82C271.37 135.45 268.69 139.1 266.28 142.97C265.84 143.66 265.41 144.36 264.99 145.05C264.89 143.92 264.79 142.79 264.72 141.66C264.46 137.78 264.193 133.9 263.92 130.02C263.54 125.02 262.82 120.02 262.04 115.02C261.73 113.02 259.65 111.28 257.78 110.76C257.261 110.621 256.727 110.551 256.19 110.55C255.129 110.567 254.089 110.85 253.166 111.374C252.243 111.899 251.467 112.647 250.91 113.55L250.89 113.64ZM282.89 126.56L282.74 126.62L282.89 126.56ZM280.78 127.81L280.68 127.88L280.78 127.81ZM279.02 129.55C278.99 129.596 278.957 129.639 278.92 129.68C278.951 129.635 278.984 129.591 279.02 129.55V129.55Z" fill="black"/>
    <path d="M333.41 57.97C331.064 64.454 329.134 71.0808 327.63 77.81C325.544 88.0244 325.391 98.5393 327.18 108.81C328.85 119.23 331.71 129.43 334.36 139.61H334.44C335.35 129.92 335.93 120.24 335.99 110.52C336.05 100.8 335.24 91.3699 334.88 81.7899C334.56 73.7899 334.2 65.91 333.51 57.96C333.502 57.9556 333.494 57.9532 333.485 57.9532C333.476 57.9532 333.467 57.9556 333.46 57.96C333.46 57.96 333.46 57.96 333.46 57.96L333.41 57.97Z" fill="black"/>
    <path d="M316.17 197.82C316.17 200.193 316.874 202.513 318.193 204.487C319.511 206.46 321.385 207.998 323.578 208.907C325.771 209.815 328.183 210.053 330.511 209.589C332.839 209.126 334.977 207.984 336.655 206.305C338.334 204.627 339.477 202.489 339.94 200.161C340.403 197.833 340.165 195.421 339.257 193.228C338.348 191.035 336.81 189.161 334.837 187.842C332.864 186.524 330.544 185.82 328.17 185.82C325 185.862 321.972 187.139 319.731 189.381C317.489 191.622 316.212 194.65 316.17 197.82V197.82Z" fill="black"/>
    <path d="M369.35 75.15C365.35 88.15 362.65 101.89 363.71 115.57C364.57 126.65 367.3 137.5 370.15 148.2C370.156 148.208 370.163 148.215 370.172 148.22C370.18 148.224 370.19 148.227 370.2 148.227C370.21 148.227 370.22 148.224 370.228 148.22C370.237 148.215 370.245 148.208 370.25 148.2C372.59 137.43 374.64 126.61 375.25 115.57C376 102 373.13 88.12 369.44 75.15H369.35Z" fill="black"/>
    <path d="M352.32 202.38C352.318 204.094 352.825 205.769 353.775 207.195C354.726 208.621 356.079 209.732 357.661 210.389C359.244 211.046 360.986 211.218 362.667 210.884C364.348 210.55 365.892 209.725 367.104 208.514C368.315 207.302 369.14 205.758 369.474 204.077C369.808 202.396 369.636 200.654 368.979 199.071C368.322 197.489 367.211 196.136 365.785 195.185C364.359 194.234 362.684 193.728 360.97 193.73C358.684 193.756 356.499 194.676 354.882 196.292C353.266 197.909 352.346 200.094 352.32 202.38V202.38Z" fill="black"/>
    <path d="M542.57 160.1C537.44 163.1 531.35 167.99 531.57 174.53C531.57 174.58 531.63 174.6 531.65 174.53C531.79 174.26 531.94 174 532.09 173.73L532.03 173.79L533.81 171.85L533.6 172.01C534.911 170.804 536.481 169.915 538.19 169.41L537.63 169.66C540.063 168.997 542.534 168.486 545.03 168.13C549.506 167.771 554.005 167.828 558.47 168.3C561.368 168.816 564.214 169.596 566.97 170.63C567.795 171.04 568.591 171.508 569.35 172.03C570.441 172.962 571.469 173.964 572.43 175.03C573.89 177.13 575.17 179.33 576.43 181.57V181.91C576.31 182.4 576.17 182.91 576.01 183.37C573.025 189.82 569.432 195.972 565.28 201.74C560.255 207.905 554.914 213.806 549.28 219.42C547.43 221.3 545.46 223.08 543.49 224.84C542.39 225.84 541.12 226.69 539.98 227.61C536.76 230.17 536.38 233.77 535.98 237.54C535.53 241.54 538.31 246.54 539.98 250.01C541.04 252.27 542.26 254.45 543.53 256.61C545.61 260.16 548.17 263.93 551.53 266.37C551.53 266.37 551.61 266.37 551.6 266.37C551.32 265.388 551.119 264.384 551 263.37C550.49 257.433 550.52 251.462 551.09 245.53C551.28 244.27 551.5 243.03 551.77 241.8C574.51 232.42 596.63 214.91 602.5 190.23C603.489 185.671 603.3 180.935 601.95 176.47C600.69 171.92 597.57 168.15 594.3 164.88C591.225 161.79 587.771 159.102 584.02 156.88C579.25 154.1 573.89 153.13 568.47 152.77C567.8 152.77 567.12 152.7 566.47 152.7C558.21 152.7 549.62 156.08 542.66 160.11L542.57 160.1ZM569.83 172.37C570.25 172.67 570.66 172.98 571.05 173.37L569.83 172.37ZM575.43 178.91C575.842 179.643 576.177 180.417 576.43 181.22C576.1 180.45 575.77 179.68 575.43 178.91ZM576.78 182.74C576.78 182.96 576.85 183.18 576.88 183.4C576.88 183.18 576.81 182.96 576.78 182.74ZM576.46 183.28C576.46 183.55 576.4 183.82 576.36 184.09C576.36 183.82 576.43 183.55 576.46 183.28ZM575.78 184.28C575.62 184.68 575.45 185.09 575.26 185.49C575.43 185.09 575.6 184.68 575.78 184.28ZM550.97 246.28C550.97 246.53 550.9 246.79 550.86 247.04C550.86 246.79 550.93 246.53 550.97 246.28ZM550.97 263.13C550.97 263.13 550.97 263.21 550.97 263.25C550.97 263.29 550.97 263.17 550.97 263.13Z" fill="black"/>
    <path d="M546.18 304.48C544.39 303.83 542.48 303.67 541.18 304.4C541.1 304.45 541.1 304.63 541.18 304.64L541.44 304.7C541.898 304.93 542.336 305.198 542.75 305.5L543.17 305.86C541.616 306.74 540.256 307.923 539.17 309.34C537.79 311.2 536.1 314.45 537.72 316.67C539.34 318.89 541.54 319.49 544.33 319.09C549.06 318.42 552.73 312.32 550.75 308.09C550.408 307.411 549.924 306.814 549.33 306.34C550.411 305.266 551.546 304.248 552.73 303.29C552.73 303.29 552.73 303.22 552.73 303.22C550.49 303.322 548.277 303.75 546.16 304.49L546.18 304.48Z" fill="black"/>
    <path d="M481.61 323.3C481.61 325.08 482.138 326.82 483.127 328.3C484.116 329.78 485.521 330.934 487.166 331.615C488.81 332.296 490.62 332.474 492.366 332.127C494.112 331.78 495.715 330.923 496.974 329.664C498.233 328.405 499.09 326.802 499.437 325.056C499.784 323.31 499.606 321.5 498.925 319.856C498.244 318.211 497.09 316.806 495.61 315.817C494.13 314.828 492.39 314.3 490.61 314.3C488.23 314.321 485.953 315.276 484.269 316.959C482.586 318.642 481.631 320.92 481.61 323.3V323.3Z" fill="black"/>
    <path d="M434.41 328.23C434.408 330.297 435.019 332.319 436.166 334.038C437.313 335.758 438.945 337.099 440.854 337.892C442.763 338.684 444.865 338.893 446.892 338.49C448.92 338.088 450.783 337.094 452.246 335.633C453.708 334.172 454.704 332.31 455.108 330.282C455.512 328.255 455.306 326.153 454.515 324.243C453.725 322.333 452.385 320.701 450.667 319.552C448.948 318.403 446.927 317.79 444.86 317.79C442.098 317.816 439.457 318.924 437.503 320.876C435.549 322.828 434.439 325.468 434.41 328.23V328.23Z" fill="black"/>
</svg>
