<svg viewBox="0 0 494 493">
    <path d="M454.524 221.25C452.605 250.387 454.854 279.649 461.204 308.15C462.464 313.83 471.574 313.92 472.774 308.15C478.303 281.661 481.955 254.814 483.704 227.81H471.704C472.224 239.337 472.744 250.86 473.264 262.38C473.624 270.38 474.684 280.38 468.264 286.38L478.504 290.62C479.607 270.082 479.041 249.487 476.814 229.04C475.984 221.44 463.974 221.36 464.814 229.04C467.041 249.487 467.607 270.082 466.504 290.62C466.214 296.03 473.154 298.24 476.744 294.86C484.384 287.69 485.674 277.15 485.434 267.18C485.124 254.06 484.274 240.94 483.684 227.83C483.334 220.08 472.184 220.14 471.684 227.83C470.007 253.741 466.505 279.502 461.204 304.92H472.774C466.716 277.457 464.612 249.269 466.524 221.21C467.034 213.5 455.034 213.53 454.524 221.21V221.25Z" fill="#F8B368"/>
    <path d="M227.784 248.5C220.954 244.37 211.434 246.38 207.534 253.6C203.634 260.82 207.904 271.04 215.874 273.31C224.134 275.66 233.144 268.98 233.174 260.31C233.174 250.83 222.674 243.21 215.244 239.07C206.384 234.14 197.954 239.47 196.474 249.07C195.184 257.51 198.834 266.86 205.024 272.64C217.414 284.21 241.134 278.64 242.704 260.21C243.524 250.6 236.704 241.61 227.894 238.33C217.364 234.41 205.894 238.9 198.314 246.53C192.874 252.02 201.314 260.53 206.804 255.02C212.994 248.78 227.064 245.02 230.444 256.45C233.114 265.45 220.594 269.45 214.444 264.96C212.653 263.56 211.172 261.802 210.098 259.797C209.024 257.793 208.379 255.587 208.204 253.32C208.119 252.553 208.119 251.778 208.204 251.01C208.294 250.43 209.274 248.8 208.424 249.01C209.834 248.69 214.034 252.74 215.144 253.62C216.814 254.94 220.144 257.06 220.784 259.24C221.114 260.31 220.784 262.24 219.064 261.72C216.484 260.88 218.874 257.14 221.684 258.84C228.314 262.84 234.354 252.47 227.744 248.48L227.784 248.5Z" fill="#F8B368"/>
    <path d="M153.544 42.6103C148.49 43.5707 143.509 44.8771 138.634 46.5203C133.037 48.3297 127.585 50.5593 122.324 53.1903C112.321 58.318 102.767 64.2791 93.7642 71.0103C83.9045 78.4015 74.6211 86.5316 65.9941 95.3303C57.0826 104.239 48.9496 113.895 41.6842 124.19C38.2542 129.06 34.8342 133.89 31.6842 138.95C28.8269 143.735 26.2136 148.661 23.8542 153.71C20.4211 160.978 17.3735 168.422 14.7242 176.01C12.9012 181.062 11.3687 186.214 10.1342 191.44C4.1474 215.993 0.762073 241.108 0.0341587 266.37C-0.23466 280.252 1.08389 294.118 3.96415 307.7C6.23415 318.97 8.69416 330.28 13.1342 340.93C18.3742 353.52 23.8642 365.93 30.6142 377.78C37.3642 389.63 46.3042 400.11 54.9242 410.66C61.7017 418.969 68.9538 426.879 76.6442 434.35C80.6942 438.28 84.9442 441.99 89.2842 445.61C94.7658 450.323 100.49 454.746 106.434 458.86C126.375 472.345 148.741 481.837 172.294 486.81C185.014 489.61 197.94 491.38 210.944 492.1C217.294 492.38 223.654 492.68 230.024 492.56C241.224 492.34 252.274 490.28 263.274 488.25C269.274 487.15 275.204 485.42 281.104 483.93C286.524 482.55 291.904 481.05 297.274 479.51C309.325 476.051 321.148 471.842 332.674 466.91C342.903 462.626 352.67 457.312 361.824 451.05C367.704 446.93 373.774 442.81 379.054 437.94C383.144 434.17 387.144 430.35 391.054 426.35C395.104 422.16 399.204 418 403.254 413.81C408.387 408.324 413.189 402.537 417.634 396.48C424.634 387.33 429.774 377.14 434.944 366.91C438.224 360.42 440.944 353.52 443.574 346.78C445.814 341.12 447.644 335.44 449.464 329.64C452.044 321.41 453.194 312.64 454.284 304.18C455.367 296.044 455.792 287.835 455.554 279.63C455.194 268.35 453.114 257.13 451.474 245.98C449.67 234.609 446.879 223.417 443.134 212.53C441.394 207.3 439.254 202.23 437.194 197.12C434.484 190.39 431.544 183.61 428.314 177.12C425.614 171.65 422.924 166.24 419.934 160.93C417.204 156.05 414.264 151.33 411.214 146.63C403.794 135.2 394.914 124.7 385.734 114.63C378.347 106.47 370.447 98.7875 362.084 91.6303C356.594 86.9703 350.784 82.7103 344.984 78.4503C335.324 71.3703 323.984 66.7703 312.984 62.2503C297.109 55.5958 280.288 51.4724 263.134 50.0303C256.4 49.6004 249.648 49.5103 242.904 49.7603C237.384 49.8903 231.904 49.8703 226.354 50.3203C226.354 50.3203 226.354 50.3203 226.354 50.3703C235.074 52.6603 243.524 56.2403 251.894 59.5803C263.031 64.6326 273.575 70.9006 283.334 78.2703C289.274 83.1603 295.154 88.0903 300.974 93.1303C307.081 98.4584 312.858 104.152 318.274 110.18C321.124 113.33 323.754 116.68 326.474 119.94C327.808 121.714 329.164 123.477 330.544 125.23C341.914 141.41 353.974 157.23 364.374 174.11C369.964 183.11 375.554 192.05 380.514 201.46C384.514 209.04 388.064 216.83 391.514 224.65C394.314 232.13 397.244 239.65 399.074 247.43C401.294 256.92 403.354 266.43 404.854 276.03C405.814 285.272 405.814 294.588 404.854 303.83C403.521 311.093 401.755 318.269 399.564 325.32C398.374 329.32 396.794 333.19 395.304 337.09C392.804 342.84 390.204 348.54 387.234 354.09C385.104 358.09 382.984 361.96 380.614 365.79C378.674 368.91 376.614 371.9 374.444 374.9C368.814 381.81 362.874 388.42 356.904 395.07C353.404 398.97 349.734 402.71 346.074 406.45C343.655 408.851 341.079 411.089 338.364 413.15C334.004 416.27 329.614 419.23 325.074 422.15C320.624 424.852 316.005 427.264 311.244 429.37C288.884 438.25 265.484 445.27 241.674 448.9C228.984 450.25 216.384 449.4 203.754 448.05C195.924 446.65 188.234 444.94 180.514 442.98C174.047 441.256 167.7 439.108 161.514 436.55C159.274 435.55 157.074 434.46 154.884 433.32C152.559 431.984 150.303 430.533 148.124 428.97C144.194 426.37 140.294 423.75 136.484 420.97C128.577 414.292 121.168 407.046 114.314 399.29C108.624 391.45 103.314 383.29 98.2141 375.08C95.2141 370.22 92.0942 365.41 89.3242 360.4C86.9742 356.14 84.8242 351.81 82.7942 347.4C78.8675 337.347 75.4008 327.134 72.3942 316.76C69.6242 307.13 68.0542 297.07 66.6142 287.1C65.7081 278.818 65.2608 270.492 65.2742 262.16C65.3942 253.28 65.7642 244.49 66.4742 235.65C69.4742 215.85 73.2342 196.12 77.9242 176.65C79.2042 171.35 80.9242 166.1 82.5242 160.88C84.1642 155.387 85.8542 149.917 87.5942 144.47C90.3842 135.74 93.8342 127.26 97.3542 118.8C100.238 112.512 103.446 106.377 106.964 100.42C110.234 94.9303 113.964 89.7903 117.754 84.6403C121.304 80.3303 124.904 76.1203 128.604 71.9303C132.604 67.4303 137.274 63.5303 141.764 59.5403C143.764 58.0336 145.731 56.5203 147.664 55.0003C153.174 51.0003 158.844 46.9103 165.044 44.0603C167.086 43.3349 169.192 42.8058 171.334 42.4803C171.334 42.4803 171.334 42.4803 171.334 42.4303C168.92 41.7496 166.422 41.413 163.914 41.4303C160.446 41.5142 156.992 41.9091 153.594 42.6103H153.544Z" fill="#019DD3"/>
    <path d="M219.364 1.31028C214.914 2.16028 210.794 4.31025 206.694 6.19025C198.885 9.63778 191.709 14.37 185.464 20.1903C180.024 25.3703 174.654 30.6503 171.094 37.3603C166.094 46.8303 167.524 58.3603 170.444 68.2803H170.494C170.614 66.0903 170.824 63.9203 171.094 61.7403C171.685 57.3399 172.799 53.026 174.414 48.8903C175.106 47.4526 175.905 46.0687 176.804 44.7503C178.241 43.0454 179.823 41.4695 181.534 40.0403C186.863 36.2223 192.585 32.9871 198.604 30.3903C205.345 27.8029 212.341 25.9358 219.474 24.8203C223.61 24.5033 227.767 24.5971 231.884 25.1003C237.397 25.9687 242.805 27.4029 248.024 29.3803C250.95 30.6662 253.755 32.2124 256.404 34.0003C257.995 35.4111 259.485 36.9315 260.864 38.5503C262.538 40.9274 263.994 43.451 265.214 46.0903C267.387 51.9367 268.916 58.0025 269.774 64.1803C270.614 70.9203 271.214 77.7203 271.464 84.5103C276.354 71.5803 281.804 58.5703 282.154 44.5603C282.246 38.8263 281.096 33.1403 278.783 27.8928C276.47 22.6453 273.049 17.9605 268.754 14.1603C264.659 10.6548 260.091 7.74289 255.184 5.51026C252.093 4.07264 248.897 2.8725 245.624 1.92027C242.271 1.08702 238.857 0.525212 235.414 0.240273C234.03 0.0750625 232.638 -0.00510881 231.244 0.000252012C227.234 0.077775 223.24 0.529745 219.314 1.35026L219.364 1.31028ZM171.074 61.7803C171.074 61.7803 171.074 61.8403 171.074 61.8703V61.7803Z" fill="black"/>
    <path d="M221.484 244.48C219.904 244.705 218.35 245.084 216.844 245.61C214.314 246.46 211.384 247.61 209.444 249.49C208.6 250.208 207.915 251.094 207.431 252.09C206.947 253.087 206.676 254.173 206.634 255.28C206.555 257.403 207.002 259.512 207.934 261.42C209.254 263.99 212.304 265.03 215.044 265.82C214.674 265.84 214.304 265.84 213.934 265.82C213.934 265.82 213.934 265.82 213.934 265.87C215.851 266.605 217.881 267.001 219.934 267.04C221.492 267.339 223.083 267.424 224.664 267.29C226.604 267.11 228.574 265.71 230.224 264.81H229.964C230.134 264.71 230.294 264.6 230.454 264.49C231.941 263.365 233.126 261.888 233.902 260.193C234.679 258.498 235.024 256.637 234.907 254.776C234.789 252.915 234.212 251.112 233.227 249.528C232.242 247.944 230.881 246.629 229.264 245.7C227.479 244.776 225.494 244.305 223.484 244.33C222.815 244.335 222.148 244.378 221.484 244.46V244.48ZM224.934 252.88L225.234 253.11L224.934 252.88ZM224.364 253.07C224.74 253.161 225.11 253.271 225.474 253.4L225.654 253.48C225.802 253.616 225.942 253.76 226.074 253.91C226.385 254.339 226.669 254.786 226.924 255.25L227.164 256.12C227.199 256.636 227.199 257.154 227.164 257.67C227.085 258.108 226.975 258.539 226.834 258.96C226.567 259.509 226.26 260.037 225.914 260.54C225.333 261.129 224.701 261.665 224.024 262.14L224.534 261.75C223.345 262.546 222.109 263.271 220.834 263.92C218.598 262.795 216.443 261.515 214.384 260.09C214.188 259.914 214.001 259.727 213.824 259.53L213.374 258.74V258.59C213.33 258.075 213.33 257.556 213.374 257.04C213.433 256.673 213.524 256.312 213.644 255.96L213.914 255.69C214.213 255.491 214.523 255.311 214.844 255.15C217.238 254.26 219.708 253.59 222.224 253.15C222.933 253.1 223.645 253.1 224.354 253.15L224.364 253.07ZM226.134 253.92C226.355 254.179 226.562 254.45 226.754 254.73L226.134 253.92ZM214.024 255.13L213.934 255.35L214.024 255.13ZM227.104 255.13C227.104 255.26 227.104 255.39 227.154 255.52C227.154 255.4 227.154 255.27 227.154 255.15L227.104 255.13ZM227.154 255.55C227.159 255.63 227.159 255.71 227.154 255.79V255.53V255.55ZM213.734 255.82L213.324 256.12L213.734 255.81V255.82ZM227.344 256.91C227.344 256.97 227.344 257.02 227.344 257.08V256.91ZM213.424 257.2C213.424 257.29 213.424 257.39 213.424 257.49C213.424 257.39 213.424 257.29 213.424 257.2ZM213.514 259.01C213.564 259.06 213.604 259.12 213.654 259.18C213.704 259.24 213.564 259.06 213.514 259.01ZM225.774 260.78L225.614 260.99L225.774 260.78Z" fill="black"/>
    <path d="M178.914 80.2402C179.434 81.6302 180.824 82.5402 181.914 83.5202C181.914 83.5202 181.974 83.5202 181.914 83.5202C181.674 83.0702 181.434 82.6202 181.204 82.1702C186.774 87.1702 191.904 92.5502 197.804 97.1702L197.894 97.2402L198.424 97.6402L198.164 97.4502C201.164 99.7502 204.164 101.94 207.314 103.95C210.102 105.875 213.127 107.431 216.314 108.58C216.314 108.58 216.314 108.58 216.314 108.53C213.854 106.25 211.894 103.37 209.714 100.81C207.311 97.9524 204.719 95.2597 201.954 92.7502C198.93 90.0582 195.689 87.62 192.264 85.4602C190.764 84.4602 189.264 83.6202 187.674 82.7602C185.242 81.2603 182.604 80.1218 179.844 79.3802H179.674C179.549 79.3695 179.423 79.3904 179.308 79.441C179.193 79.4916 179.093 79.5703 179.016 79.6699C178.939 79.7694 178.889 79.8866 178.869 80.0107C178.85 80.1349 178.862 80.2619 178.904 80.3802L178.914 80.2402ZM198.134 97.3702L197.864 97.1602L198.184 97.4102L198.134 97.3702Z" fill="black"/>
    <path d="M214.214 78.4202C204.424 86.3202 194.924 94.8002 186.944 104.55C183.424 108.86 180.144 113.36 176.944 117.93C175.644 119.82 174.394 121.74 173.144 123.66C171.639 125.77 170.318 128.005 169.194 130.34C169.194 130.34 169.194 130.4 169.194 130.34C170.913 128.496 172.772 126.788 174.754 125.23C176.421 123.79 178.087 122.34 179.754 120.88C184.164 116.98 188.414 112.94 192.474 108.67C201.004 99.6702 207.964 89.0902 214.204 78.4102L214.214 78.4202Z" fill="black"/>
    <path d="M218.554 81.7703C215.834 87.9803 213.754 94.6902 213.724 101.53C213.767 107.814 215.02 114.031 217.414 119.84H217.464C219.174 114.06 220.974 108.48 221.684 102.46C222.504 95.5503 220.784 88.2702 218.604 81.7802L218.554 81.7703Z" fill="black"/>
    <path d="M230.624 84.9202C227.624 92.7302 225.274 100.92 224.754 109.27C224.314 116.48 225.314 123.72 226.444 130.82H226.494C228.494 124.01 230.594 117.24 231.674 110.21C232.944 101.83 232.134 93.2102 230.674 84.9202H230.624Z" fill="black"/>
    <path d="M281.244 105.23C280.144 106.79 279.104 108.34 278.154 110C277.204 111.916 276.459 113.927 275.934 116C275.324 118 274.864 120 274.424 122C273.82 124.964 273.485 127.976 273.424 131C273.144 137.23 274.214 143.68 275.304 149.8C276.757 143.776 277.879 137.677 278.664 131.53C279.664 124.74 279.764 117.87 280.664 111.08C281.034 109.35 281.484 107.65 281.924 105.94L283.084 106.08L283.414 106.34C283.414 106.34 283.414 106.34 283.414 106.29C282.934 105.46 283.224 105.91 281.794 105.14C281.733 105.105 281.664 105.088 281.594 105.09C281.522 105.092 281.452 105.111 281.389 105.146C281.326 105.18 281.273 105.23 281.234 105.29L281.244 105.23ZM278.734 130.92C278.734 131.05 278.734 131.19 278.684 131.32C278.684 131.19 278.684 131.05 278.734 130.92Z" fill="black"/>
    <path d="M310.214 132.29C307.484 137.306 305.71 142.786 304.984 148.45C304.414 153.64 305.224 159.08 306.334 164.14C307.974 159.21 309.834 154.39 310.664 149.23C311.415 143.599 311.263 137.884 310.214 132.3C310.214 132.3 310.214 132.3 310.214 132.3V132.29Z" fill="black"/>
    <path d="M324.494 140.48C321.764 147.1 319.594 154.13 319.424 161.36C319.396 167.401 320.214 173.416 321.854 179.23C322.784 173.59 324.184 168.02 324.934 162.35C325.731 155.075 325.587 147.728 324.504 140.49C324.504 140.49 324.504 140.49 324.504 140.49L324.494 140.48Z" fill="black"/>
    <path d="M356.044 209.18C355.977 209.489 355.95 209.805 355.964 210.12C355.154 222.12 355.564 234.18 358.614 245.9C359.608 240.345 360.11 234.713 360.114 229.07C359.924 222.36 358.594 215.72 357.204 209.18C357.174 209.046 357.097 208.928 356.987 208.845C356.877 208.763 356.741 208.722 356.604 208.73C356.466 208.724 356.33 208.765 356.219 208.847C356.108 208.929 356.029 209.047 355.994 209.18H356.044Z" fill="black"/>
    <path d="M368.454 208.5C366.583 215.657 365.758 223.047 366.004 230.44C366.384 237.44 368.304 244.31 370.124 251.04C371.779 244.637 372.788 238.084 373.134 231.48C373.384 223.67 371.204 215.75 368.534 208.48L368.454 208.5Z" fill="black"/>
    <path d="M381.314 212.77C380.214 220.16 379.724 227.77 380.934 235.18C382.148 241.9 384.271 248.423 387.244 254.57C387.244 254.57 387.244 254.57 387.244 254.57C387.104 248.15 387.474 241.73 386.954 235.32C386.334 227.58 384.044 220 381.314 212.78V212.77Z" fill="black"/>
    <path d="M339.384 318.08C337.854 325 337.224 332.18 338.644 339.18C339.327 342.225 340.277 345.203 341.484 348.08C342.373 350.679 343.629 353.138 345.214 355.38C345.214 355.38 345.214 355.38 345.214 355.38C345.154 352.71 345.564 349.95 345.734 347.28C345.959 344.268 345.959 341.243 345.734 338.23C345.154 331.23 342.544 324.36 339.444 318.08H339.384Z" fill="black"/>
    <path d="M379.294 314.66C376.434 318.06 373.764 321.6 371.224 325.25C370.034 326.95 369.034 328.81 368.004 330.61C367.554 331.41 367.144 332.23 366.754 333.07L366.034 331.83C363.039 326.738 359.733 321.836 356.134 317.15C356.134 317.15 356.134 317.15 356.134 317.15C356.584 323.466 357.504 329.74 358.884 335.92C359.434 338.29 359.654 340.82 360.334 343.13C361.334 346.51 362.524 351.96 366.644 352.59C369.644 353.05 372.764 351.88 373.644 348.64C373.931 347.416 374.128 346.173 374.234 344.92C375.104 339.1 376.144 333.32 377.234 327.53C378.014 323.26 378.604 318.95 379.394 314.69L379.294 314.66Z" fill="black"/>
    <path d="M333.744 367.8C326.874 376.31 319.884 384.8 315.474 394.8C314.534 393.45 313.574 392.12 312.574 390.8C309.14 386.275 305.468 381.936 301.574 377.8C301.574 377.8 301.574 377.8 301.574 377.8C302.871 384.013 304.568 390.136 306.654 396.13C307.544 398.64 308.564 401.13 309.654 403.53C310.904 406.37 312.534 410.12 315.864 410.86C318.514 411.45 321.544 410.09 322.204 407.26C324.074 399.26 326.634 391.41 329.074 383.55C330.694 378.31 332.284 373.06 333.894 367.82L333.744 367.8Z" fill="black"/>
    <path d="M256.874 397.92C253.585 401.379 250.575 405.094 247.874 409.03C246.444 411.12 245.074 413.2 243.814 415.4C242.214 418.14 240.814 421.02 239.374 423.84C238.224 421.93 237.084 420.03 235.854 418.17C232.934 413.72 230.044 409.33 226.854 405.07C227.334 415.65 228.524 427.7 234.484 436.78C234.924 437.489 235.516 438.092 236.217 438.545C236.919 438.997 237.712 439.289 238.539 439.398C239.367 439.507 240.208 439.431 241.003 439.175C241.797 438.92 242.525 438.491 243.134 437.92C245.281 435.951 246.918 433.491 247.904 430.75C248.922 427.843 249.79 424.886 250.504 421.89C251.184 419.17 251.774 416.43 252.454 413.71C253.647 408.368 255.15 403.099 256.954 397.93C256.954 397.93 256.954 397.93 256.954 397.93L256.874 397.92Z" fill="black"/>
    <path d="M271.334 393.48C268.566 402.433 266.887 411.686 266.334 421.04C266.142 429.065 266.607 437.092 267.724 445.04C267.724 445.04 267.724 445.04 267.784 445.04C269.718 437.721 271.2 430.291 272.224 422.79C273.414 413.08 272.644 403.15 271.394 393.49L271.334 393.48Z" fill="black"/>
    <path d="M139.134 382.16C138.854 394.39 139.584 406.94 142.724 418.82C142.564 422.65 144.974 425.82 148.974 426.12C149.902 426.131 150.815 425.894 151.62 425.433C152.425 424.972 153.093 424.305 153.554 423.5C155.124 420.5 155.404 417.04 155.714 413.75C155.954 411.19 156.154 408.64 156.364 406.08C156.814 400.57 157.084 395.08 157.644 389.52C157.878 387.921 158.263 386.347 158.794 384.82C158.794 384.82 158.794 384.82 158.794 384.82C154.794 389.02 152.794 394.82 150.724 400.2C149.994 402.2 149.354 404.12 148.724 406.11C145.897 397.997 142.724 390.017 139.204 382.17L139.134 382.16ZM157.624 389.67C157.619 389.697 157.619 389.724 157.624 389.75V389.67ZM145.134 417.35L145.044 417.57L145.134 417.36V417.35Z" fill="black"/>
    <path d="M169.224 388.92C167.495 394.407 166.424 400.08 166.034 405.82C165.944 408.571 166.054 411.325 166.364 414.06C166.604 416.76 166.834 419.8 168.044 422.23H168.094C167.999 421.565 168.023 420.887 168.164 420.23C168.159 420.257 168.159 420.284 168.164 420.31C169.094 415.17 170.274 410.1 170.524 404.86C170.668 399.499 170.256 394.137 169.294 388.86L169.224 388.92Z" fill="black"/>
    <path d="M178.654 391.58C176.862 397.292 175.876 403.226 175.724 409.21C175.853 414.333 176.486 419.431 177.614 424.43C177.614 424.43 177.614 424.43 177.614 424.43C178.797 419.589 179.639 414.67 180.134 409.71C180.464 403.632 179.994 397.536 178.734 391.58H178.654Z" fill="black"/>
    <path d="M108.834 327.85C106.574 332.15 105.584 337.05 104.474 341.74C103.944 344.01 103.474 346.31 103.054 348.61C102.744 350.29 102.444 351.97 102.164 353.61L101.984 354.74C101.344 353.34 100.694 351.95 99.9841 350.59C97.4941 345.59 94.7341 340.82 91.9841 336.01C92.3145 341.733 93.1172 347.419 94.3841 353.01C94.9241 355.38 95.5541 357.73 96.3041 360.01C97.1341 362.57 97.9841 366.08 100.174 367.82C100.816 368.407 101.624 368.781 102.486 368.891C103.349 369.002 104.224 368.845 104.994 368.44C106.694 367.7 107.434 366.06 107.904 364.36C108.794 361.21 108.714 357.75 108.774 354.51C108.824 351.04 108.774 347.57 108.714 344.1C108.604 338.69 108.284 333.22 108.914 327.83L108.834 327.85Z" fill="black"/>
    <path d="M125.134 333.13C123.344 340.27 121.844 347.76 121.824 355.13C121.857 361.227 122.392 367.311 123.424 373.32H123.474C124.474 367.26 125.784 361.26 126.364 355.13C127.044 347.81 126.254 340.32 125.184 333.13H125.134Z" fill="black"/>
    <path d="M93.7942 275.04C95.8492 281.873 98.8805 288.374 102.794 294.34C104.54 296.829 106.448 299.201 108.504 301.44C110.242 303.53 112.313 305.317 114.634 306.73C113.782 305.344 113.02 303.905 112.354 302.42C110.621 297.971 108.541 293.665 106.134 289.54C102.673 284.194 98.5388 279.314 93.8342 275.02L93.7942 275.04ZM112.354 302.39C112.392 302.468 112.425 302.549 112.454 302.63C112.425 302.549 112.392 302.468 112.354 302.39Z" fill="black"/>
    <path d="M112.924 274.51C106.727 280.91 101.042 287.788 95.9242 295.08C93.7742 298.19 91.8242 301.43 89.9242 304.68C87.8542 308.16 85.9242 311.8 83.5542 315.08C83.5542 315.08 83.5542 315.14 83.5542 315.13C89.5542 310.53 94.7042 304.56 99.3942 298.68C101.399 296.076 103.226 293.34 104.864 290.49C107.888 285.327 110.594 279.984 112.964 274.49C112.964 274.49 112.964 274.49 112.964 274.49L112.924 274.51Z" fill="black"/>
    <path d="M82.1342 277.74C81.2342 283.74 80.5742 289.74 80.2542 295.74C79.9608 300.246 79.9875 304.768 80.3342 309.27C81.2455 317.891 82.6377 326.455 84.5042 334.92C84.5042 334.92 84.5542 334.92 84.5542 334.92C85.3342 326.4 86.1242 317.92 86.1442 309.33C86.1442 298.73 84.4642 288.09 82.1442 277.77L82.1342 277.74Z" fill="black"/>
    <path d="M67.9641 215.53C71.7098 220.437 76.253 224.679 81.4041 228.08C85.879 230.857 90.8235 232.792 95.9941 233.79C95.9941 233.79 96.0441 233.79 95.9941 233.79C92.3141 230.72 88.6941 227.53 84.8141 224.71L85.2841 225.08C80.0441 221.02 74.0241 218.15 67.9641 215.53C67.9641 215.53 67.9641 215.53 67.9641 215.58V215.53Z" fill="black"/>
    <path d="M99.0642 197.8C91.2421 207.101 84.0303 216.898 77.4742 227.13C70.9742 237.28 65.8142 248.13 60.2842 258.84C64.3154 255.067 67.9817 250.922 71.2342 246.46C75.1342 241.39 78.8042 236.1 82.2342 230.67C88.7542 220.24 94.1042 209.03 99.0942 197.81L99.0642 197.8Z" fill="black"/>
    <path d="M96.6343 151.92C101.584 160.6 107.804 168.42 116.684 173.36C122.336 176.604 128.475 178.91 134.864 180.19C134.864 180.19 134.864 180.19 134.864 180.19L133.524 179.19L133.604 179.25C129.174 175.68 125.154 171.67 120.774 168.06C115.958 164.225 110.93 160.662 105.714 157.39C102.714 155.45 99.7143 153.63 96.6343 151.91V151.92Z" fill="black"/>
    <path d="M121.534 145.75C116.068 151.656 111.399 158.252 107.644 165.37C104.497 171.888 101.801 178.614 99.5742 185.5C99.5742 185.5 99.5742 185.5 99.5742 185.5C103.997 179.85 108.087 173.946 111.824 167.82C115.824 160.89 118.824 153.26 121.544 145.76L121.534 145.75Z" fill="black"/>
    <path d="M132.884 121.71C130.514 132.57 128.884 143.84 129.334 154.99C129.81 164.222 131.149 173.388 133.334 182.37C133.334 182.37 133.384 182.37 133.384 182.37C135.449 173.688 136.705 164.834 137.134 155.92C137.624 144.45 135.594 132.77 132.944 121.67L132.884 121.71Z" fill="black"/>
    <path d="M211.534 132.92C207.994 134.92 205.714 138.1 203.274 141.2L199.554 145.94C196.401 149.94 193.254 153.94 190.114 157.94C187.254 161.56 184.431 165.227 181.644 168.94C180.324 170.69 178.994 172.43 177.714 174.21C176.258 176.083 174.921 178.047 173.714 180.09C172.704 181.594 172.133 183.35 172.064 185.16C171.995 186.97 172.432 188.764 173.324 190.34C175.764 194.5 181.984 196.65 186.194 193.72C190.194 190.94 193.534 187.41 196.924 183.96C199.784 181.04 202.594 178.05 205.314 174.96C207.314 172.66 209.384 170.35 211.374 168.02C211.514 170.27 211.624 172.52 211.724 174.78C212.034 182.32 212.144 189.88 212.454 197.43C212.784 205.48 213.344 213.49 213.974 221.52C214.284 225.52 214.714 229.45 215.104 233.42C215.234 234.7 215.354 235.98 215.484 237.26C215.594 238.34 215.724 239.43 215.834 240.51C215.713 242.246 215.736 243.989 215.904 245.72C215.973 248.044 216.911 250.256 218.534 251.92C220.188 253.573 222.431 254.502 224.769 254.502C227.108 254.502 229.35 253.573 231.004 251.92C231.818 251.102 232.461 250.129 232.895 249.06C233.33 247.99 233.547 246.845 233.534 245.69H233.584C233.424 243.63 233.584 241.24 233.024 239.24L232.844 238.62C232.474 232.06 232.344 225.46 232.264 218.91C232.151 209.41 232.068 199.914 232.014 190.42C232.014 185.28 232.014 180.12 231.874 174.97C232.881 176.357 233.881 177.74 234.874 179.12C239.324 185.12 244.004 190.9 248.794 196.59C248.794 196.59 248.854 196.59 248.794 196.59C244.794 189.257 240.871 181.88 237.024 174.46C235.084 170.71 233.214 166.95 231.304 163.19L230.914 162.43C230.584 159.16 230.204 155.9 229.804 152.63C229.544 150.63 229.328 148.604 229.154 146.55C228.974 144.55 228.734 142.66 228.454 140.71C227.94 138.427 226.773 136.342 225.094 134.71C224.062 133.67 222.832 132.847 221.477 132.289C220.122 131.731 218.67 131.449 217.204 131.46C215.223 131.471 213.275 131.973 211.534 132.92Z" fill="black"/>
    <path d="M289.484 242.79C287.85 243.233 286.341 244.047 285.073 245.169C283.805 246.29 282.814 247.689 282.175 249.257C281.536 250.825 281.268 252.518 281.391 254.207C281.514 255.895 282.025 257.532 282.884 258.99C283.461 260.146 284.176 261.227 285.014 262.21C286.014 263.57 287.094 264.92 288.154 266.28C289.714 268.28 291.274 270.28 292.854 272.28C294.784 274.73 296.734 277.18 298.714 279.6C294.314 278.66 289.914 277.71 285.544 276.6C275.544 274.15 265.614 271.74 255.734 268.97C251.174 267.68 246.584 266.36 242.134 264.72C239.801 263.86 237.467 262.99 235.134 262.11L230.994 260.55C229.642 259.892 228.158 259.55 226.654 259.55C226.587 259.553 226.522 259.575 226.467 259.614C226.412 259.652 226.37 259.706 226.344 259.768C226.319 259.83 226.312 259.898 226.325 259.964C226.337 260.03 226.368 260.091 226.414 260.14C227.447 261.239 228.546 262.275 229.704 263.24C228.914 262.24 228.124 261.3 227.274 260.37C229.421 261.404 231.502 262.569 233.504 263.86L238.324 266.73C241.704 268.73 245.174 270.57 248.634 272.44C255.124 275.97 261.924 278.99 268.634 282.11C282.024 288.36 295.794 293.81 309.444 299.45C312.504 300.78 315.574 302.1 318.624 303.45L321.104 306.58C316.874 309.42 312.254 311.71 307.804 314.15L298.524 319.23C292.938 322.27 287.318 325.244 281.664 328.15C281.664 328.15 281.664 328.21 281.664 328.2C290.278 326.08 298.891 323.984 307.504 321.91L315.344 320C317.874 319.39 320.404 318.73 322.914 318C325.83 317.27 328.645 316.182 331.294 314.76C333.523 313.427 335.192 311.331 335.994 308.86C335.994 308.75 336.054 308.64 336.074 308.53C337.97 307.986 339.639 306.844 340.833 305.275C342.028 303.705 342.684 301.792 342.704 299.82C342.708 298.979 342.593 298.14 342.364 297.33C341.514 293.85 338.854 291.58 335.744 289.96C332.614 286.96 329.674 283.8 326.744 280.66C323.054 276.77 319.674 272.66 316.264 268.5C313.937 264.94 311.581 261.397 309.194 257.87C308.034 256.16 306.844 254.47 305.654 252.78C303.986 250.287 302.148 247.911 300.154 245.67C299.492 244.996 298.742 244.414 297.924 243.94C296.23 242.953 294.305 242.432 292.344 242.43C291.36 242.428 290.381 242.563 289.434 242.83L289.484 242.79Z" fill="black"/>
    <path d="M207.874 20.4302C194.587 24.0902 181.341 27.8968 168.134 31.8502C165.424 32.6502 162.764 33.6402 160.084 34.5502C157.554 35.4102 155.084 36.3302 152.554 37.2702C147.204 39.2702 141.854 41.3702 136.674 43.8002C131.494 46.2302 126.384 48.9502 121.334 51.7102C116.46 54.3337 111.721 57.2007 107.134 60.3002C97.6837 66.6013 88.7489 73.6435 80.4141 81.3602C78.4141 83.2402 76.4141 85.0902 74.5341 87.1002C72.4841 89.3202 70.3841 91.5002 68.4141 93.7802C64.6141 98.1702 60.7241 102.53 57.1741 107.13L56.6241 107.84C53.0766 112.297 49.8135 116.973 46.8541 121.84C43.7841 127.05 41.1041 132.45 38.3741 137.84C37.2074 140.16 36.0875 142.494 35.0141 144.84C33.7941 147.55 32.4841 150.26 31.4541 153.04C29.3275 158.807 27.3675 164.627 25.5741 170.5C22.2641 181.35 19.4641 192.39 17.2141 203.5C14.9141 214.88 13.4241 226.38 11.7841 237.87C10.1241 249.52 9.35411 261.26 8.84411 273.01C8.61745 278.51 8.45078 284.007 8.34411 289.5C8.23411 295.25 8.06411 301.01 8.21411 306.76C8.38411 312.76 8.67413 318.76 8.98413 324.76C9.29413 330.76 10.1341 336.55 10.9841 342.41C11.7541 348.01 12.6841 353.56 13.8741 359.08C15.0849 364.538 16.737 369.889 18.8141 375.08C19.9041 377.85 21.0741 380.57 22.3141 383.27C23.5541 385.97 24.9041 388.27 26.2641 390.74C28.9741 395.57 31.9741 400.25 34.9741 404.91C36.3941 407.11 37.7841 409.33 39.2841 411.48C40.7841 413.63 42.3841 415.78 43.9641 417.9C45.5441 420.02 47.3441 422.25 49.0941 424.37C50.8441 426.49 52.4841 428.37 54.3341 430.27C56.1841 432.17 58.3341 434.15 60.4641 436C63.5513 438.604 66.8797 440.908 70.4041 442.88C75.3439 445.769 80.4607 448.344 85.7241 450.59C90.7241 452.77 95.7241 455.04 100.594 457.52C105.684 460.1 110.714 462.79 115.804 465.36C120.894 467.93 125.964 470.36 131.164 472.5C133.774 473.59 136.384 474.69 139.034 475.7C141.684 476.71 144.144 477.77 146.784 478.55C149.424 479.33 152.374 480.12 155.184 480.85C156.434 481.17 157.674 481.48 158.934 481.74C160.194 482 161.774 482.39 163.204 482.61C169.204 483.5 175.204 484.41 181.284 484.96C193.134 485.96 204.984 486.7 216.874 487.12C228.574 487.53 240.264 487.64 251.964 487.78C257.544 487.78 263.144 488.01 268.714 487.78C274.524 487.55 280.284 487.19 286.054 486.55C289.304 486.18 292.554 485.55 295.764 484.98C298.404 484.47 301.074 483.92 303.674 483.19C309.034 481.69 314.284 479.92 319.524 478C330.434 474 340.744 468.56 350.894 462.91C355.774 460.2 360.434 457.1 365.074 454C370.074 450.65 374.974 447.23 379.704 443.53C384.014 440.15 388.264 436.72 392.304 433.02C396.343 429.245 400.131 425.209 403.644 420.94C407.478 416.145 410.919 411.048 413.934 405.7C416.794 400.94 419.694 396.19 422.554 391.43C425.554 386.51 428.434 381.58 431.244 376.57C434.054 371.56 436.514 366.33 438.914 361.09C443.726 350.429 447.711 339.413 450.834 328.14C452.394 322.61 453.654 317.02 454.924 311.41C455.484 308.91 455.924 306.36 456.294 303.82C456.744 300.48 457.294 297.13 457.634 293.82C458.224 287.82 458.814 281.75 459.094 275.68C459.254 272.54 459.407 269.4 459.554 266.26C459.704 263.26 459.684 260.17 459.744 257.13C459.864 251.45 459.584 245.78 459.314 240.13C459.184 237.38 458.904 234.61 458.594 231.87C458.394 230.06 458.204 228.24 457.954 226.44C457.744 224.97 457.594 223.44 457.314 222.02C456.224 216.49 454.814 211.02 453.314 205.61C451.664 199.61 449.924 193.61 447.924 187.67C445.857 181.416 443.378 175.306 440.504 169.38C438.768 166.067 436.761 162.903 434.504 159.92C433.334 158.32 432.214 156.64 430.944 155.1C429.944 153.87 428.884 152.62 427.864 151.39C424.124 146.88 420.144 142.57 416.284 138.17C412.764 134.17 409.284 130.08 405.884 126C398.434 117.12 390.884 108.28 382.714 100.08C374.254 91.6202 365.634 83.3202 357.194 74.8402C348.924 66.5502 340.714 58.1002 331.594 50.7402C328.314 47.9897 324.793 45.5398 321.074 43.4202C317.447 41.5608 313.686 39.9731 309.824 38.6702C307.025 37.693 304.178 36.8586 301.294 36.1702C298.654 35.5002 295.944 34.9602 293.294 34.4502C286.674 33.1902 280.014 32.2202 273.394 31.0402C266.314 29.7902 259.214 28.7002 252.234 26.9502V27.0002C256.694 28.7402 261.224 30.3068 265.824 31.7002C270.274 33.0602 274.684 34.4902 279.124 35.8502C287.774 38.4902 296.454 41.0302 304.834 44.4202C310.198 46.5617 315.293 49.3239 320.014 52.6502C329.014 59.8402 336.814 68.3102 344.554 76.7702C348.901 81.5502 353.281 86.3168 357.694 91.0702C361.094 94.7402 364.614 98.3102 368.024 101.98C370.604 104.753 373.191 107.517 375.784 110.27C377.564 112.17 379.234 114.18 380.944 116.14C384.684 120.42 388.344 124.74 391.944 129.14C395.864 133.96 399.804 138.77 403.814 143.52C407.394 147.77 411.104 151.91 414.814 156.06C417.034 158.57 419.164 161.12 421.294 163.69C422.894 165.9 424.474 168.11 425.994 170.38C427.547 172.656 428.93 175.042 430.134 177.52C430.684 178.69 431.214 179.86 431.734 181.04C434.612 188.151 437.083 195.419 439.134 202.81C440.221 206.81 441.307 210.843 442.394 214.91C443.394 218.48 444.094 222.09 444.794 225.72C446.167 236.459 446.722 247.287 446.454 258.11C446.294 264.04 446.144 269.96 445.734 275.87C445.504 279.09 445.284 282.31 445.054 285.52C444.834 288.52 444.454 291.52 444.144 294.52V294.59C444.224 294.02 444.294 293.45 444.374 292.88C443.684 297.94 443.064 303.03 441.964 308.02C440.814 313.21 439.684 318.39 438.264 323.52C436.944 328.25 435.564 332.96 434.004 337.61C432.444 342.26 430.634 346.93 428.764 351.51C426.654 356.31 424.454 361.08 422.024 365.73C419.354 370.83 416.454 375.78 413.534 380.73C410.614 385.68 407.534 390.73 404.434 395.73C403.104 397.91 401.844 400.11 400.514 402.27C399.014 404.67 397.584 407.17 395.894 409.45L395.044 410.59C393.354 412.7 391.614 414.74 389.804 416.74C387.964 418.867 386.018 420.899 383.974 422.83C379.684 426.76 375.214 430.45 370.674 434.07C367.044 436.83 363.374 439.49 359.604 442.07C355.374 444.95 351.104 447.8 346.714 450.44C342.524 452.95 338.174 455.25 333.854 457.54C329.534 459.83 325.114 461.9 320.644 463.88C315.014 466.13 309.334 468.26 303.524 470.02C297.563 471.767 291.488 473.103 285.344 474.02C279.854 474.65 274.344 475.02 268.834 475.32C264.484 475.55 260.124 475.55 255.774 475.54H252.084C240.394 475.54 228.694 475.63 216.994 475.54C207.994 475.54 199.064 475.33 190.104 474.95C186.034 474.78 181.954 474.47 177.884 474.08C173.814 473.69 169.784 473.2 165.734 472.69C159.803 471.757 153.927 470.498 148.134 468.92C142.464 467.22 136.894 465.15 131.414 462.92C127.774 461.34 124.144 459.76 120.554 458.06C116.964 456.36 113.294 454.46 109.674 452.63C102.254 448.88 94.6741 445.63 86.9641 442.41C83.8141 441.04 80.6841 439.66 77.6341 438.07C73.7729 436.167 70.071 433.957 66.5641 431.46C64.5641 429.87 62.6441 428.26 60.8341 426.52C59.0241 424.78 57.2541 422.92 55.5341 421.04C52.5341 417.8 49.8541 414.34 47.1441 410.88C42.5641 404.77 38.3141 398.43 34.1441 392.05C32.0541 388.88 30.0241 385.66 28.2441 382.32C26.4641 378.98 24.7641 375.32 23.2441 371.64C21.0164 365.998 19.2702 360.177 18.0241 354.24C16.7941 348.06 15.8941 341.83 15.0241 335.58C14.6841 332.71 14.3541 329.85 14.1441 326.96C13.9541 324.28 13.8141 321.58 13.6941 318.89C13.4541 313.26 13.1141 307.6 13.2141 301.95C13.4241 290.37 13.6141 278.75 14.4841 267.19C14.7541 263.77 15.0041 260.35 15.2641 256.93C15.5141 253.75 15.9341 250.57 16.2641 247.4C17.9141 235.98 19.6641 224.57 21.7341 213.24C23.8041 201.91 26.7341 190.78 29.8341 179.71C32.2041 171.31 35.0841 163.04 38.1941 154.88C41.7241 147.05 45.5941 139.41 49.5741 131.81C51.5172 128.066 53.6637 124.43 56.0041 120.92C58.2541 117.56 60.6041 114.28 63.0041 111.05C69.1241 103.5 75.2941 96.0002 82.0041 88.9302C83.5741 87.2602 85.2841 85.6902 86.9241 84.0902C88.5641 82.4902 90.4841 80.7502 92.2941 79.0902C95.9241 75.8502 99.7341 72.7802 103.554 69.7702C107.734 66.5902 111.864 63.3702 116.334 60.6002C120.604 57.9602 124.954 55.4602 129.334 53.0402C131.727 51.7068 134.117 50.3968 136.504 49.1102C139.024 47.7402 141.654 46.5302 144.234 45.2802C148.894 43.0502 153.644 41.0302 158.374 38.9602L158.124 39.0602L158.424 38.9402L158.564 38.8802H158.464C161.844 37.5102 165.204 36.0402 168.634 34.7802C173.014 33.1668 177.391 31.5502 181.764 29.9302C190.444 26.7202 199.164 23.6102 207.874 20.4602V20.4102V20.4302ZM304.134 44.1802L304.614 44.3902L304.134 44.1802ZM444.444 224.08L444.504 224.54L444.444 224.08ZM444.004 294.76C443.999 294.73 443.999 294.7 444.004 294.67V294.76ZM158.434 38.9202H158.524H158.434Z" fill="black"/>
    <path d="M456.134 216.59C451.004 219.48 446.504 223.21 442.004 226.59C447.434 224.29 452.844 221.97 458.444 219.89C460.013 219.443 461.615 219.118 463.234 218.92H464.554C465.134 219.01 465.694 219.11 466.254 219.25L466.624 219.4L467.004 219.71C467.414 220.188 467.791 220.692 468.134 221.22C469.431 223.8 470.354 226.55 470.874 229.39C471.705 236.042 471.993 242.751 471.734 249.45C471.644 254.73 471.574 260.02 471.554 265.31C471.554 269.83 471.554 274.31 471.434 278.87C471.456 283.759 471.222 288.646 470.734 293.51C470.624 293.97 470.504 294.43 470.364 294.89C469.98 295.429 469.566 295.947 469.124 296.44L468.594 296.89C467.821 297.284 467.018 297.618 466.194 297.89C463.044 298.89 459.844 299.76 456.774 300.89C455.012 301.466 453.332 302.266 451.774 303.27C451.173 303.663 450.66 304.178 450.27 304.781C449.88 305.384 449.62 306.062 449.508 306.771C449.396 307.481 449.434 308.206 449.619 308.9C449.804 309.594 450.133 310.241 450.584 310.8C453.654 314.8 460.284 314.33 465.434 313.8C467.074 313.62 468.744 313.45 470.334 313.12L472.744 312.62C474.569 312.177 476.305 311.422 477.874 310.39C482.125 308.95 485.867 306.307 488.644 302.78C491.104 299.44 491.704 295.6 492.354 291.89C492.984 287.896 493.252 283.853 493.154 279.81C492.913 271.967 492.047 264.156 490.564 256.45C488.454 244.45 486.564 231.83 479.074 220.91C476.954 217.79 473.644 214.55 468.984 213.66C468.157 213.505 467.316 213.428 466.474 213.43C462.815 213.589 459.257 214.676 456.134 216.59ZM469.684 296.28C469.424 296.44 469.164 296.6 468.894 296.74L469.664 296.29L469.684 296.28ZM468.884 296.74L468.744 296.82L468.904 296.72L468.884 296.74Z" fill="black"/>
</svg>
