<svg viewBox="0 0 577 856">
<path class="fill" d="M467.05 286.61C462.99 286.95 458.95 287.61 454.94 288.28C452.483 288.713 450.058 289.307 447.68 290.06C444.74 290.95 441.82 291.84 438.9 292.8C424.45 297.52 410.23 302.8 396.67 309.73C381.82 317.32 368.09 327.22 354.45 336.84C348.02 332.28 339.73 332.23 332.6 335.89C325.77 339.39 319.74 344.48 313.4 348.82C307.87 352.6 302.28 356.2 296.64 359.82C283.485 368.061 269.76 375.356 255.57 381.65C253.921 378.451 251.781 375.529 249.23 372.99C246.53 370.294 243.507 367.943 240.23 365.99C232.6 361.36 224.12 360.32 215.45 359.59C212.28 359.437 209.103 359.493 205.94 359.76C199.497 360.158 193.089 360.993 186.76 362.26C178.273 364.007 169.92 366.346 161.76 369.26C151.85 372.61 142.21 376.85 132.63 381.01C125.905 383.894 119.339 387.135 112.96 390.72C107.61 393.78 102.19 396.72 96.96 399.97C93.85 401.92 90.72 403.81 87.69 405.87C87.08 406.28 86.48 406.7 85.88 407.12C78.66 406.98 71.43 406.73 64.21 406.56C60.97 406.48 57.71 406.41 54.46 406.35C52.4 406.35 50.35 406.26 48.29 406.23C45.19 406.17 41.37 405.08 38.92 407.61C37.25 409.33 37.3 412.84 39.74 413.95C48.31 417.86 56.74 422.12 65.14 426.37L64.96 426.61C62.2472 430.451 60.2767 434.765 59.15 439.33C56.8394 448.039 57.5443 457.273 61.15 465.53C58.3 467.87 55.5 470.27 52.78 472.74C50.06 475.21 47.22 477.8 44.54 480.46C39.6989 485.501 35.29 490.94 31.36 496.72C28 501.43 25.31 508.04 23.52 513.21C22.1818 517.485 21.4316 521.923 21.29 526.4C21.02 530.72 22.01 534.97 22.81 539.2C24.17 546.51 29.03 551.6 33.44 557.11C35.44 559.58 40.09 562.82 43.68 564.43C48.31 566.51 51.74 568.43 56.4 569.11C61.92 569.95 67.05 570.79 72.55 570.69C76.65 570.61 80.75 570.32 84.85 569.92C76.12 588.35 83.3 611.34 101.01 621.78C106.19 624.78 110.39 627.39 116.52 629.3C122.21 631.08 128.4 631.56 134.36 631.67C140.49 631.77 146.78 630.39 152.77 629.5C156.03 629.01 159.24 628.24 162.45 627.5C169.21 626.02 175.89 624.5 182.52 622.5C183.9 622.1 185.28 621.68 186.65 621.25C184.65 623.38 182.71 625.53 180.77 627.69C172.103 637.357 163.543 647.11 155.09 656.95C150.98 661.73 147.25 666.87 143.45 671.88C141.273 674.553 139.37 677.437 137.77 680.49C133.77 688.97 131.52 694.63 131.52 704.23C131.52 714.63 133.86 718.5 137.81 727.76C141.51 736.42 150.11 743.9 157.88 748.76C165.04 753.22 173.77 754.96 182.14 755.7C178.14 760.84 174.43 766.8 173.14 772.97C172.137 777.919 171.469 782.931 171.14 787.97C171.69 792.07 172.24 796.16 172.79 800.27C174.88 807.995 178.939 815.044 184.57 820.73C196.14 832.29 213.76 837.15 229.57 832.62C236.383 830.662 243.004 828.088 249.35 824.93C252.707 823.106 255.928 821.044 258.99 818.76C261.93 816.76 264.85 814.69 267.77 812.65C272.93 809.03 278.1 805.433 283.28 801.86C287.81 798.72 292.42 795.71 297.09 792.78C299.57 791.21 302.09 789.7 304.61 788.19C309.793 785.301 314.657 781.872 319.12 777.96C324.53 773.1 328.86 766.96 332.86 760.96C335.025 757.557 336.898 753.978 338.46 750.26C341.26 743.88 343.96 737.43 346.32 730.87L346.41 730.63C353.38 730.419 360.007 727.558 364.94 722.63L365.78 721.55C373.689 720.238 380.992 716.49 386.67 710.83C388.67 708.24 390.67 705.65 392.67 703.06C396.108 697.188 397.917 690.505 397.91 683.7C397.69 681.507 397.447 679.32 397.18 677.14L397.29 677.97C396.98 674.91 396.68 671.85 396.37 668.8L396.19 666.99C395.75 663.703 395.307 660.413 394.86 657.12C394.033 654.127 392.837 651.248 391.3 648.55C390.3 643.163 389.377 637.747 388.53 632.3C386.403 616.08 384.257 599.86 382.09 583.64C382.57 587.207 383.047 590.78 383.52 594.36C382.993 590.113 382.47 585.857 381.95 581.59C381.95 579.96 381.95 578.33 381.95 576.71C382.3 553.48 382.32 530.2 383.46 507C384.027 495.42 384.593 483.84 385.16 472.26C385.83 458.73 385.95 445.18 386.16 431.62C386.38 416.87 373.67 404.56 359.1 404.56C356.626 404.56 354.163 404.896 351.78 405.56C352.321 402.776 352.1 399.898 351.14 397.23C358.86 392.07 366.82 387.23 374.74 382.43C386.61 375.2 398.74 367.98 411.37 362.24C421.865 358.164 432.753 355.182 443.86 353.34C449.3 352.658 454.778 352.324 460.26 352.34C460.77 352.88 461.26 353.42 461.77 353.98C467.965 363.135 473.301 372.843 477.71 382.98C482.269 395.304 485.513 408.075 487.39 421.08C488.39 430.937 488.42 440.868 487.48 450.73C484.867 465.193 481.255 479.457 476.67 493.42C472.02 508.16 467 522.66 461.24 536.99C459.03 541.99 456.88 546.99 454.75 551.99C451.75 558.55 448.85 565.12 446 571.72C443.924 576.845 441.439 581.794 438.57 586.52C437.06 588.88 435.36 591.13 433.65 593.35L433.92 593.01L433.62 593.39L433.11 594.06L433.45 593.61C430.117 597.87 426.783 602.103 423.45 606.31C423.45 606.31 423.45 606.36 423.45 606.31C428.93 604.59 434.45 602.95 439.93 601.31C442.58 600.53 445.21 599.74 447.84 598.9C452.778 597.161 457.497 594.852 461.9 592.02C472.9 585.45 482.97 577.54 492.84 569.44C501.629 562.345 509.842 554.564 517.4 546.17C523.885 538.678 529.99 530.865 535.69 522.76C547.305 506.897 556.315 489.282 562.38 470.58C566.03 459.34 567.63 447.32 568.31 435.58C568.95 424.5 567.14 413.33 565.23 402.48C563.572 393.479 561.022 384.666 557.62 376.17C553.81 366.158 549.285 356.433 544.08 347.07C539.73 339.477 534.911 332.163 529.65 325.17C523.85 317.34 517.9 309.34 510.47 302.95C506.183 299.086 501.489 295.699 496.47 292.85C488.21 288.45 481.09 287.07 471.83 286.39C471.48 286.39 471.14 286.39 470.83 286.39C469.58 286.39 468.32 286.52 467.09 286.63L467.05 286.61ZM57.84 418.1C61.7 418.94 65.5667 419.753 69.44 420.54C68.35 421.86 67.34 423.27 66.44 424.54L57.84 418.11V418.1ZM433.4 593.61L433.57 593.39L433.37 593.65L433.4 593.61Z" fill="#F8B368"/>
<path d="M220.12 266.88C213.68 267.88 207.29 269.09 200.92 270.43C195.55 271.56 190.11 272.65 184.81 274.11L170.93 277.96C165.26 279.53 159.58 281.11 153.93 282.74C151.44 283.45 149.05 284.39 146.63 285.3C140.59 287.553 134.54 289.843 128.48 292.17C125.16 293.45 121.78 294.64 118.54 296.12C109.467 300.22 100.417 304.37 91.39 308.57C90.2 309.12 89.08 309.81 87.93 310.43C85.0767 311.97 82.2367 313.513 79.41 315.06L66.76 321.97C62.76 324.18 58.88 326.81 55.04 329.32C50.73 332.16 46.53 335.16 42.4 338.32C33.8529 344.755 25.8797 351.918 18.57 359.73C15.3774 363.189 12.373 366.818 9.57001 370.6C6.87023 374.26 4.73637 378.305 3.24002 382.6C2.30002 385.25 1.73 388.05 1.06 390.77C0.586972 392.851 0.233066 394.958 0 397.08C0 397.08 0 397.08 0 397.08C1.07653 392.772 2.49092 388.556 4.23001 384.47C5.47883 381.699 7.00672 379.062 8.79001 376.6C14.44 369.44 21.68 363.5 28.87 357.92C37.5329 351.454 46.6648 345.641 56.19 340.53C62.26 337.21 68.44 334.05 74.78 331.3C82.2867 328.053 89.7867 324.78 97.28 321.48C106.46 318.073 115.623 314.61 124.77 311.09C127.65 309.99 130.64 309.17 133.57 308.22C139.67 306.22 145.763 304.22 151.85 302.22C154.24 301.42 156.6 300.62 159.05 300C164.87 298.51 170.68 297 176.5 295.43L189.77 291.91C195.03 290.52 200.45 289.53 205.77 288.46C212.437 287.127 219.143 285.983 225.89 285.03C238.904 283.323 252.006 282.368 265.13 282.17C278.501 282.031 291.866 282.81 305.13 284.5C313.48 285.67 321.79 287.16 330.01 289.04C339.031 291.027 347.887 293.702 356.5 297.04C361.642 299.237 366.541 301.961 371.12 305.17C372.728 306.504 374.238 307.951 375.64 309.5C375.95 309.96 376.24 310.42 376.52 310.88C376.2 311.23 375.88 311.55 375.52 311.88C371.728 314.279 367.787 316.434 363.72 318.33C361.02 319.69 358.22 320.87 355.47 322.11C351.98 323.57 348.47 325.11 344.95 326.37L330.33 331.63C326.15 333.14 321.88 334.4 317.65 335.78C314.13 336.92 310.65 338.04 307.04 339.04L290.96 343.55C286.63 344.76 282.23 345.7 277.87 346.78C268.49 349.08 259.05 351.15 249.62 353.23C240.19 355.31 230.93 356.87 221.62 358.7C217.86 359.43 214.02 359.85 210.23 360.42C205.5 361.11 200.78 361.83 196.06 362.55L181.69 363.89C178.05 364.24 174.41 364.65 170.69 364.82C160.357 365.3 150.023 365.757 139.69 366.19L86.44 368.39C71.1067 369.017 55.79 369.683 40.49 370.39C40.49 370.39 40.49 370.39 40.49 370.45C60.25 371.52 80.02 372.45 99.79 373.31C118.31 374.13 136.79 375.03 155.36 375.65L172.2 376.19C176.2 376.31 180.14 376.06 184.09 375.94C187.09 375.87 190.17 375.78 193.22 375.69C194.41 375.69 195.63 375.69 196.83 375.57C202.17 375.08 207.49 374.57 212.83 374.04C216.92 373.65 221.05 373.35 225.12 372.73C230.82 371.87 236.513 370.993 242.2 370.1C251.51 368.63 260.74 366.69 269.99 364.86C278.39 363.19 286.73 361.24 295.09 359.38C299.87 358.32 304.61 356.98 309.36 355.77C312.93 354.87 316.46 353.94 320 352.9C338.3 347.53 356.53 341.9 374.12 334.48C376.83 333.32 379.55 332.19 382.24 330.98C385.134 329.708 387.828 328.024 390.24 325.98C392.636 323.972 394.623 321.521 396.09 318.76C397.947 315.199 398.539 311.112 397.77 307.17C397.065 304.078 395.797 301.143 394.03 298.51C390.2 292.57 384.33 288.04 378.42 284.31C373.041 281.116 367.373 278.437 361.49 276.31C355.055 273.946 348.479 271.985 341.8 270.44C328.52 267.25 315.024 265.041 301.42 263.83C292.37 262.95 283.3 262.54 274.23 262.54C256.11 262.631 238.023 264.082 220.12 266.88V266.88ZM376.51 310.29L376.64 310.6L376.51 310.29ZM376.71 311.2C376.71 311.34 376.6 311.48 376.54 311.62C376.6 311.48 376.66 311.34 376.71 311.19V311.2ZM376.92 311.56C376.895 311.815 376.855 312.069 376.8 312.32C376.8 312.06 376.87 311.8 376.91 311.54L376.92 311.56ZM29.46 357.56L29.05 357.88L29.46 357.56Z" fill="black"/>
<path d="M14.25 392.61C13.8203 395.254 13.6462 397.933 13.7301 400.61C13.8201 403.15 14.11 405.7 14.38 408.21C14.78 411.75 15.1701 415.28 15.5701 418.81C16.1401 423.88 16.8801 428.9 17.6701 433.95C18.4601 439 19.1501 444.17 20.1701 449.17C21.6101 456.297 23.0734 463.42 24.56 470.54C26.79 481.33 29.6801 491.99 32.3601 502.68C33.5801 507.53 35.1001 512.33 36.4801 517.15C37.4801 520.8 38.59 524.46 39.65 528.1C40.14 529.79 40.53 531.56 41.15 533.22C43.31 539.09 45.4501 544.98 47.6301 550.86C49.6901 556.43 51.63 562.08 53.97 567.57L53.1701 565.68L54.1001 567.88C54.1001 567.97 54.1701 568.05 54.2101 568.14C57.3767 575.66 60.5934 583.167 63.8601 590.66C68.5601 601.413 73.25 612.173 77.93 622.94C86.1567 643.26 94.3434 663.593 102.49 683.94C110.637 704.287 118.87 724.697 127.19 745.17C130.57 753.59 133.96 762.003 137.36 770.41L143.78 786.17C145.01 789.17 145.78 792.49 146.67 795.64L150.99 810.43C151.755 812.57 152.643 814.663 153.65 816.7L157.47 825.47L162.57 837.27C163.38 839.12 164.22 840.96 165.06 842.8C165.77 844.38 166.56 845.92 167.38 847.45C168.306 848.956 169.4 850.351 170.64 851.61C172.34 853.55 174.64 854.23 176.96 855.15C179.037 855.722 181.229 855.734 183.312 855.184C185.395 854.634 187.296 853.543 188.82 852.02C189.642 851.215 190.361 850.312 190.96 849.33C191.14 848.89 191.33 848.45 191.52 848.01L191.25 848.65C191.712 847.557 192.274 846.509 192.93 845.52C193.13 845.3 193.34 845.08 193.56 844.87C194.962 844.001 196.419 843.223 197.92 842.54C209.6 837.91 221.69 834.35 233.68 830.63C243.12 827.71 252.56 824.79 262.02 821.97C273.96 818.41 285.867 814.743 297.74 810.97C302.05 809.59 306.34 808.21 310.62 806.73C316.3 804.73 322.07 802.93 327.62 800.73C342.62 794.85 357.5 788.8 372.28 782.46C380.28 779.033 388.207 775.497 396.06 771.85C400.06 769.99 404.06 768.1 407.93 765.85C411.879 763.453 415.676 760.814 419.3 757.95C422.93 755.14 426.53 752.35 429.99 749.34C429.99 749.34 429.99 749.28 429.99 749.34C423.276 753.467 416.293 757.142 409.09 760.34C400.51 763.88 391.41 766.06 382.49 768.62C377.1 770.18 371.67 771.62 366.28 773.15C356.333 775.97 346.4 778.82 336.48 781.7C331.48 783.14 326.58 784.7 321.59 786.03C315.03 787.75 308.483 789.503 301.95 791.29C292.36 793.91 282.68 796.21 273.07 798.71C258.27 802.56 243.51 806.56 228.9 811.09C221.52 813.39 214.12 815.61 206.79 818.09C202.15 819.66 197.5 821.18 192.9 822.87C190.36 823.8 187.9 824.87 185.41 825.99L184.88 824.85C183.38 821.617 181.887 818.383 180.4 815.15L174.7 802.68C173.534 800.328 172.225 798.051 170.78 795.86L163.11 783.17C162.48 782.17 161.85 781.17 161.23 780.11C160.805 779.285 160.434 778.433 160.12 777.56C156.893 770.02 153.66 762.49 150.42 754.97C142.12 735.16 133.73 715.39 125.58 695.51C116.94 674.43 108.37 653.31 99.68 632.25C97.31 626.51 95.0501 620.69 92.5201 615.02C89.2201 607.613 85.92 600.2 82.62 592.78C77.92 582.253 73.1534 571.75 68.3201 561.27C68.1596 560.815 67.9554 560.376 67.7101 559.96L67.6001 559.71C63.3401 549.483 59.0234 539.283 54.65 529.11C52.8034 523.957 50.9567 518.803 49.1101 513.65C47.4201 508.99 45.5801 504.37 44.0101 499.65C42.0101 493.65 40.0101 487.68 38.0101 481.74C36.6601 477.74 35.2401 473.81 34.0101 469.8C30.7001 458.98 27.2601 448.23 24.3201 437.31C22.9701 432.31 21.4801 427.38 20.3201 422.31C18.5201 414.43 16.41 406.54 15.15 398.56C15.0091 397.175 14.9423 395.783 14.9501 394.39L15.0101 394.51C15.5269 395.616 15.929 396.772 16.2101 397.96C16.2101 397.96 16.2701 397.96 16.2601 397.96C15.9483 396.131 15.5208 394.324 14.9801 392.55C14.9505 392.469 14.8959 392.399 14.824 392.35C14.7521 392.301 14.6667 392.277 14.5801 392.28C14.5026 392.277 14.4268 392.303 14.3676 392.353C14.3084 392.403 14.27 392.473 14.2601 392.55L14.25 392.61ZM15.03 394.61V394.56C15.0247 394.576 15.0247 394.594 15.03 394.61Z" fill="black"/>
<path d="M395.87 321.17C394.7 330.77 393.32 340.36 392.57 350C392.217 354.547 391.883 359.097 391.57 363.65C390.483 378.643 389.53 393.643 388.71 408.65C388.41 414.1 388.13 419.56 387.87 425C387.79 426.56 387.69 428.1 387.71 429.66C387.85 440.993 388.067 452.327 388.36 463.66C388.9 483.82 389.45 504 391.14 524.1C393.08 547.01 395.69 569.85 398.57 592.66C399.79 602.35 401.07 612.04 402.51 621.66C404.05 631.93 405.69 642.19 407.18 652.47C408.84 663.76 410.54 675.04 412.18 686.34C413.68 696.49 415.1 706.67 416.72 716.8C417.81 723.65 419.01 730.48 420.23 737.31H420.28C419.85 715.92 419.51 694.53 418.72 673.15C417.95 652.15 416.59 631.15 415.14 610.21C414.38 599.29 414.01 588.33 413.37 577.4C412.9 569.49 412.46 561.57 411.97 553.66C411.163 540.4 410.183 527.15 409.03 513.91C408.44 507.16 408.09 500.39 407.6 493.64C406.513 478.567 405.27 463.513 403.87 448.48C403.37 443.08 402.85 437.683 402.31 432.29C402.16 430.72 401.97 429.15 401.89 427.57C400.79 402.683 399.333 377.803 397.52 352.93C396.74 342.34 396.45 331.72 395.93 321.11L395.87 321.17Z" fill="black"/>
<path d="M453.31 296.68C457.15 295.638 461.042 294.8 464.97 294.17C487.183 294.75 518.48 304.132 534.57 330.2C592.57 424.17 575.843 507.039 570.57 523.17C555.86 568.17 519.57 592.56 487.67 619.17C476.52 628.471 442.049 635.878 416.542 642.2C413.856 643.064 411.159 643.892 408.47 644.73C404.776 645.881 401.015 646.809 397.21 647.51C402.336 645.82 409.053 644.057 416.542 642.2C420.331 640.982 424.098 639.692 427.79 638.2C444.94 630.84 460.53 620.46 476.31 610.62C480.24 608.17 483.91 605.28 487.67 602.56C492.27 599.21 496.96 595.99 501.49 592.56C516.09 581.17 530.2 568.9 541.85 554.43C543.469 552.294 544.939 550.048 546.25 547.71C547.5 545.39 548.65 543.02 549.74 540.62C551.27 536.62 552.56 532.53 553.85 528.62C555.14 524.71 556.47 520.84 557.59 516.84C559.686 509.369 561.313 501.774 562.46 494.1C563.731 483.484 564.199 472.787 563.86 462.1C563.51 451.22 562.84 440.37 561.51 429.58C559.122 413.353 554.832 397.464 548.73 382.24C543.066 369.227 535.911 356.915 527.41 345.55C521.19 337.75 514.55 330.33 506.78 324.04C501.692 320.164 496.224 316.813 490.46 314.04C485.585 312.138 480.543 310.695 475.4 309.73C467.17 308.94 458.87 309.68 450.69 310.73C447.158 311.191 443.663 311.899 440.23 312.85C436.88 313.84 433.63 314.98 430.4 316.29C422.043 319.986 414.152 324.655 406.89 330.2C404.183 332.317 401.688 334.691 399.44 337.29C397.236 340.395 395.274 343.665 393.57 347.07C394.445 343.904 395.497 340.789 396.72 337.74C397.914 335.037 399.457 332.502 401.31 330.2C403.204 327.728 405.266 325.39 407.48 323.2C410.092 320.511 412.85 317.967 415.74 315.58C421.42 310.835 427.636 306.771 434.26 303.47C440.379 300.605 446.758 298.332 453.31 296.68Z" fill="black"/>
<path d="M444.44 357.94C440.472 358.864 436.604 360.174 432.89 361.85C430.451 362.905 428.134 364.223 425.98 365.78C423.703 367.565 421.612 369.575 419.74 371.78C417.92 373.78 416.17 375.89 414.4 377.95C407.209 386.38 400.501 395.211 394.31 404.4C394.31 404.4 394.31 404.4 394.31 404.4C404.298 394.216 414.862 384.614 425.95 375.64C427.908 374.176 430.013 372.919 432.23 371.89C434.738 371.08 437.306 370.469 439.91 370.06C442.382 369.768 444.874 369.681 447.36 369.8C450.255 370.372 453.096 371.191 455.85 372.25C457.838 373.144 459.745 374.208 461.55 375.43C465.917 379.016 469.907 383.037 473.46 387.43C475.049 389.725 476.434 392.154 477.6 394.69C479.075 398.852 480.133 403.149 480.76 407.52C482.38 422.02 481.86 436.52 480.27 450.97C479.53 455.97 478.84 461.07 478.16 466.12L478.61 462.75C476.37 476.45 473.35 489.93 468.16 502.83C466.31 507.04 464.31 511.16 462.05 515.17C459.277 519.883 456.18 524.397 452.78 528.68L450.65 531.44C447.57 535.41 444.258 539.193 440.73 542.77C437.26 546.23 433.39 549.3 429.6 552.39C417.8 561.25 406.1 570.39 393.75 578.46C393.75 578.46 393.75 578.52 393.75 578.51C405.28 573.72 416.56 568.26 427.84 562.91C430.7 561.56 433.59 560.24 436.4 558.78C439.79 557.03 443.14 555.21 446.4 553.27C450.188 550.938 453.816 548.356 457.26 545.54C463.424 540.708 469.199 535.398 474.53 529.66C480.239 523.309 485.155 516.287 489.17 508.75C493.218 501.223 496.54 493.327 499.09 485.17C500.99 479.279 502.487 473.265 503.57 467.17C505.57 455.79 507.24 444.47 507.09 432.85C506.889 424.721 506.009 416.623 504.46 408.64C502.92 400.19 500.25 391.81 495.66 384.5C491.88 378.5 486.78 373.74 481.14 369.5C478.45 367.5 475.74 365.56 472.9 363.78C469.534 361.696 465.882 360.113 462.06 359.08C459.238 358.399 456.37 357.921 453.48 357.65C452.23 357.486 450.971 357.402 449.71 357.4C447.945 357.39 446.185 357.575 444.46 357.95L444.44 357.94Z" fill="black"/>
<path d="M320.67 318.61C313.51 319.37 306.31 319.85 299.12 320.37C291.61 320.92 284.12 321.53 276.55 321.93C262.17 322.69 247.79 323.41 233.42 324.27C226.21 324.69 219.03 325.15 211.83 325.83C204.35 326.55 196.83 327.16 189.44 328.35C184.33 329.18 179.22 330.01 174.12 330.87C171.96 331.22 169.8 331.52 167.67 332.01C159.003 334.01 150.337 336.057 141.67 338.15C140.07 338.53 138.51 339.02 136.93 339.51C132.377 340.89 127.827 342.287 123.28 343.7C118.513 345.173 113.747 346.653 108.98 348.14C107.31 348.67 105.62 349.14 103.98 349.75C86.89 355.88 69.81 362.08 52.85 368.59L44.15 371.94C44.15 371.94 44.15 372 44.15 371.99C64.15 366.99 84.2201 361.93 104.21 356.72C108.82 355.52 113.51 354.53 118.21 353.51C117.44 353.8 116.67 354.11 115.92 354.45C114.675 355.07 113.472 355.772 112.32 356.55C111.234 357.213 110.435 358.258 110.08 359.48C109.847 360.313 109.84 361.193 110.06 362.03C110.279 362.866 110.718 363.629 111.33 364.24C112.7 365.47 114.05 366.84 115.87 367.38C117.604 367.866 119.39 368.145 121.19 368.21C123.028 368.241 124.867 368.138 126.69 367.9C129.09 367.68 131.5 367.54 133.9 367.28C140.65 366.57 147.41 365.4 154.09 364.17L176.52 360.03C188.8 357.76 201.09 355.51 213.3 352.9C213.3 352.9 213.3 352.84 213.3 352.85C201.3 354.3 189.3 355.26 177.3 356.27L156.57 358.03C152.78 358.35 148.99 358.61 145.18 358.88C140.99 359.18 136.8 359.4 132.6 359.44H132.57C134.663 358.82 136.757 358.21 138.85 357.61C145.1 355.83 151.4 354.29 157.71 352.7C158.71 352.43 159.83 352.29 160.88 352.09L167.57 350.82C170.12 350.33 172.69 349.72 175.27 349.37C181.76 348.46 188.27 347.55 194.72 346.6C202.167 345.74 209.61 344.85 217.05 343.93C224.67 342.93 232.33 342.34 239.96 341.54C247.16 340.8 254.39 340.35 261.6 339.78C268.81 339.21 276.02 338.65 283.23 338.09C289.37 337.6 295.51 337.03 301.65 336.46L308.78 335.8L314.78 335.24C315.63 335.15 316.47 335.11 317.31 335.06C318.716 335.004 320.116 334.847 321.5 334.59C322.632 334.338 323.729 333.952 324.77 333.44C326.281 332.548 327.457 331.184 328.117 329.557C328.777 327.931 328.883 326.133 328.42 324.44C328.073 323.115 327.383 321.904 326.42 320.93C325.051 319.532 323.213 318.692 321.26 318.57H320.8L320.67 318.61Z" fill="black"/>
<path d="M105.57 0C98.67 5.18 91.93 10.49 85.25 15.94C81.01 19.41 76.62 22.74 72.62 26.5C63.4 35.13 54.31 43.79 45.83 53.16C42.4647 56.7464 39.3443 60.5549 36.49 64.56C34.7027 67.4694 33.3548 70.6268 32.49 73.93C31.75 76.33 31.34 78.84 30.84 81.29C29.2 89.35 28.29 97.67 30.84 105.65C32.07 109.5 34.67 112.65 37.22 115.71C39.77 118.77 43.11 121.17 46.27 123.56C52.5 128.28 59.82 131.56 66.95 134.61C72.75 137.11 78.68 139.43 84.65 141.5C99.98 146.77 115.65 151 130.78 156.69C135.03 158.514 139.112 160.706 142.98 163.24L143.71 163.97C144.709 165.511 145.627 167.103 146.46 168.74C146.944 170.322 147.315 171.936 147.57 173.57C147.826 176.765 147.826 179.975 147.57 183.17C145.88 193.35 142.57 203.25 139.85 213.17C137.94 220.17 136.14 227.26 134.4 234.34C132.503 241.83 130.998 249.414 129.89 257.06C129.457 260.592 129.203 264.143 129.13 267.7C128.947 271.67 129.382 275.644 130.42 279.48C131.216 282.211 132.712 284.686 134.76 286.66C134.76 286.66 134.76 286.66 134.76 286.66C134.41 286.06 134.08 285.43 133.76 284.8V284.75C133.374 283.704 133.079 282.627 132.88 281.53C132.765 279.82 132.795 278.104 132.97 276.4C133.84 271.06 135.97 265.99 137.97 260.98C142.54 250.83 147.67 240.98 152.54 230.98C155.11 225.7 157.69 220.41 160.22 215.1C163.99 207.18 167.87 199.25 170.5 190.87C173.01 182.575 173.48 173.796 171.87 165.28C171.09 161.384 169.703 157.635 167.76 154.17C165.409 149.482 161.961 145.431 157.71 142.36C151.656 138.447 145.118 135.34 138.26 133.12C126.7 129.12 114.91 125.99 103.09 122.93C98.15 121.65 93.15 120.35 88.3 118.8C80.73 116.37 73.14 114.09 65.74 111.15C61.0224 109.138 56.5112 106.674 52.27 103.79C50.9049 102.648 49.6093 101.426 48.39 100.13C47.93 99.43 47.51 98.73 47.11 97.98C46.6336 96.5245 46.2594 95.0376 45.99 93.53C45.5282 88.0292 45.6019 82.4965 46.21 77.01C46.5325 75.1716 46.9803 73.3574 47.55 71.58C50.34 65.7 54.48 60.5 58.22 55.2C60.6 51.83 63.22 48.61 65.75 45.34C70.6 39.39 75.23 33.18 80.41 27.52C88.78 18.34 97.06 9.09999 105.59 0.0699921L105.57 0Z" fill="black"/>
<path d="M258.38 96.02C252.786 96.6958 247.253 97.8024 241.83 99.33C236.91 100.904 232.119 102.857 227.5 105.17C222.587 107.666 218.198 111.081 214.57 115.23C210.544 119.624 207.34 124.704 205.11 130.23C204.257 132.292 203.608 134.432 203.17 136.62C203 137.92 202.83 139.21 202.65 140.5C202.4 142.36 202.95 144.31 203.26 146.15C203.69 148.87 205.2 151.55 206.31 154.04C206.77 155.04 207.31 156.1 207.8 157.12C209.355 160.05 211.237 162.794 213.41 165.3C214.905 167.187 216.609 168.898 218.49 170.4C231.89 180.89 246.62 189.4 260.28 199.58C261.638 200.716 262.914 201.946 264.1 203.26C265.222 204.85 266.225 206.522 267.1 208.26C267.953 210.666 268.621 213.133 269.1 215.64C269.225 217.127 269.225 218.623 269.1 220.11C268.827 221.723 268.412 223.31 267.86 224.85C264 233.22 259.86 241.54 255.31 249.56C255.31 249.56 255.31 249.62 255.36 249.56C263.21 244.13 271.23 238.82 278.36 232.5C284.95 226.69 287.53 217.95 287.74 209.43C287.9 202.52 285.74 196.17 282.74 190.08C280.83 186.28 277.69 183.08 274.65 180.14C267.473 173.367 259.656 167.305 251.31 162.04C244.31 157.5 236.82 153.5 230 148.64C228.427 147.249 226.947 145.756 225.57 144.17C224.31 142.502 223.158 140.755 222.12 138.94C222.025 137.347 222.055 135.749 222.21 134.16C222.705 131.546 223.445 128.985 224.42 126.51C225.751 123.574 227.348 120.766 229.19 118.12C232.943 113.855 237.125 109.988 241.67 106.58C246.98 102.694 252.564 99.1979 258.38 96.12V96.07V96.02ZM241.51 106.66L241.16 106.93L241.51 106.66ZM222.3 139.45C222.47 139.87 222.65 140.29 222.83 140.71C222.62 140.305 222.443 139.883 222.3 139.45V139.45Z" fill="black"/>
<path d="M50.03 207.17C43.82 210.3 37.7 213.59 31.63 216.98C29.1844 218.33 26.8264 219.833 24.57 221.48C22.3639 223.224 20.6651 225.527 19.65 228.15C18.7055 230.52 18.2629 233.06 18.35 235.61C18.35 239.02 19.6 242.2 20.99 245.24C23.99 251.8 30.13 256.72 35.33 261.49C37.87 263.82 40.47 266.07 43.03 268.37C47.3757 272.277 51.3679 276.56 54.96 281.17C57.9291 285.382 60.6342 289.774 63.06 294.32H63.11C62.74 290.64 62.18 287 61.51 283.32C60.18 276.1 56.46 269.15 52.13 263.32C49.3546 259.723 46.3764 256.288 43.21 253.03C39.56 249.17 35.58 245.56 32.14 241.5C31.0542 240.058 30.0876 238.529 29.25 236.93C28.8315 235.684 28.4974 234.411 28.25 233.12C28.2099 232.584 28.2099 232.046 28.25 231.51C28.4196 230.583 28.6809 229.675 29.03 228.8C29.2239 228.391 29.4478 227.996 29.7 227.62C33.2 223.75 37.13 220.28 40.83 216.62C43.96 213.52 47.02 210.35 50.05 207.16V207.11L50.03 207.17ZM28.94 229.07L28.67 229.71C28.75 229.49 28.84 229.28 28.94 229.07ZM28.4 230.53C28.35 230.82 28.31 231.12 28.27 231.42C28.2979 231.121 28.3413 230.824 28.4 230.53V230.53Z" fill="black"/>
</svg>
