<svg xmlns="http://www.w3.org/2000/svg" xmlns:xlink="http://www.w3.org/1999/xlink">
  <defs>
    <path id="a" d="M0 0h1793v1958H0z"/>
    <path id="c" d="M0 0h815v949H0z"/>
    <path id="e" d="M0 0h1104v1337H0z"/>
    <path id="g" d="M0 0h1793v1154H0z"/>
    <path id="i" d="M0 0h1793v1079H0z"/>
  </defs>
  <g fill="none" fill-rule="evenodd">
    <g transform="translate(80 -878)">
      <mask id="b" fill="#fff">
        <use xlink:href="#a"/>
      </mask>
      <path id="line-one" d="M.426 0c86.952 10.542 173.762 22.401 260.363 35.846 86.583 13.522 172.956 28.72 258.824 46.884 42.908 9.186 85.73 18.922 128.288 29.98 42.526 11.168 84.806 23.544 126.516 38.135 20.77 7.577 41.545 15.224 61.853 24.37 20.331 9.036 40.445 18.875 59.692 30.894 4.735 3.17 9.542 6.193 14.212 9.5l6.909 5.177 3.451 2.593c1.131.901 2.218 1.885 3.33 2.825l6.62 5.72c2.161 1.976 4.196 4.172 6.295 6.256l3.118 3.169c.989 1.126 1.94 2.31 2.907 3.468l2.887 3.494c.96 1.17 1.944 2.306 2.77 3.629 7.27 9.772 13.032 21.634 15.338 34.642.359 3.277.805 6.557.952 9.855.09 3.311-.077 6.63-.444 9.928-.777 6.593-2.53 13.034-5.024 19-5.024 11.972-12.588 22.013-20.8 30.693-8.288 8.647-17.324 16.074-26.654 22.781-18.687 13.393-38.46 24.194-58.455 34.1-20.03 9.843-40.37 18.675-60.833 27.014a1808.87 1808.87 0 0 1-61.703 23.75c-82.638 30.086-165.867 57.082-247.687 87.373-40.92 15.084-81.46 31-121.353 48.177-39.882 17.185-79.031 35.885-116.742 56.858-37.657 21.015-73.83 44.56-106.485 71.958-32.496 27.425-61.476 59.074-81.67 95.68-10.08 18.263-17.92 37.666-23.032 57.807l-1.789 7.583-1.52 7.644-2.174 15.465-.535 3.87-.234 3.913-.478 7.826c-.145 2.61-.362 5.216-.452 7.832l.096 7.867c-.189 10.496.932 20.994 1.768 31.5l2.285 15.691.568 3.923c.232 1.304.53 2.598.793 3.897l1.618 7.787 1.616 7.789c.54 2.598 1.338 5.144 1.993 7.719 1.405 5.129 2.685 10.294 4.19 15.4 3.318 10.129 6.39 20.348 10.42 30.265 3.589 10.074 8.14 19.788 12.374 29.63 2.252 4.86 4.707 9.635 7.051 14.462l3.553 7.223 3.854 7.077 7.753 14.137 8.336 13.822 4.188 6.9 4.45 6.743 8.918 13.479 9.428 13.142 4.725 6.568 4.967 6.39 9.93 12.788 10.404 12.414 5.204 6.209c1.766 2.043 3.612 4.018 5.412 6.03l10.869 12.03c3.676 3.956 7.512 7.77 11.261 11.665 3.785 3.859 7.474 7.815 11.447 11.487l11.729 11.209c3.855 3.799 8.04 7.236 12.041 10.872 4.08 3.554 8.019 7.27 12.212 10.687l12.531 10.32c4.128 3.505 8.453 6.753 12.764 10.025l12.935 9.814 13.29 9.32 6.648 4.662c2.241 1.516 4.541 2.944 6.805 4.422 36.237 23.646 74.687 44.123 115.243 59.26 5.073 1.866 10.112 3.855 15.219 5.627l15.46 4.914c2.581.803 5.145 1.676 7.742 2.42l7.843 2.061 15.687 4.111 15.872 3.322c2.649.532 5.282 1.149 7.944 1.616l8.008 1.258c5.347.8 10.67 1.769 16.035 2.43l16.13 1.715c21.54 1.836 43.224 2.691 64.859 1.51l8.116-.31c2.703-.162 5.399-.436 8.1-.65 5.395-.473 10.801-.865 16.192-1.405 10.742-1.438 21.529-2.608 32.186-4.67 10.72-1.68 21.299-4.123 31.91-6.409 5.295-1.188 10.525-2.655 15.792-3.97l7.89-2.027 7.817-2.293c20.938-5.832 41.39-13.324 61.677-21.156 20.233-8.012 40.097-16.952 59.713-26.42 4.895-2.386 9.733-4.894 14.594-7.348 4.867-2.448 9.715-4.935 14.489-7.561l14.393-7.753 14.227-8.06c75.712-43.39 146.696-94.737 215.524-148.622 34.474-26.905 68.488-54.433 102.58-81.919 34.055-27.54 68.149-55.099 103.066-81.743 35.008-26.51 70.675-52.406 108.796-74.977 19.069-11.25 38.76-21.66 59.42-30.294 20.652-8.564 42.323-15.54 65.06-18.548l8.566-.86 4.286-.416 4.327-.09 8.664-.165c2.889.07 5.788.343 8.682.514 5.811.162 11.543 1.384 17.305 2.252 2.887.418 5.672 1.368 8.515 2.037l4.241 1.108 2.123.558 2.06.752c5.473 2.05 11.075 3.832 16.239 6.588 2.615 1.288 5.282 2.5 7.859 3.868 2.512 1.478 5.052 2.914 7.536 4.432 9.877 6.183 18.978 13.466 27.27 21.472 16.6 16.04 30.067 34.75 41.222 54.458 11.065 19.785 19.926 40.603 27.044 61.894 14.215 42.625 21.955 86.965 25.13 131.445 3.124 44.515 1.52 89.29-4.402 133.547-6.09 44.216-16.487 88.034-32.687 129.993-16.092 41.915-37.842 82.221-67.029 117.368-7.283 8.765-14.943 17.3-23.292 25.133l-12.526 11.743-13.286 10.85-3.325 2.709c-1.126.88-2.316 1.668-3.467 2.507l-6.979 4.961-6.983 4.954c-2.329 1.65-4.815 3.045-7.216 4.576-4.864 2.954-9.64 6.085-14.584 8.887l-15.013 8.078c-40.491 20.624-83.818 34.387-127.603 43.428-43.81 9.318-88.2 13.882-132.463 16.384-44.297 2.474-88.542 2.24-132.633.777-88.204-3.047-175.76-11.546-262.947-20.849l-65.34-7.14c-21.764-2.381-43.732-4.98-65.514-7.844-43.62-5.733-87.047-12.326-130.296-18.863-43.256-6.459-86.35-13.005-129.318-17.321-42.913-4.274-85.873-6.24-127.487-1.495-20.773 2.414-41.135 6.652-60.546 13.313-19.381 6.712-37.73 15.924-54.593 27.478-4.172 2.96-8.453 5.757-12.374 9.08-4.007 3.2-8.058 6.34-11.894 9.799-7.704 6.885-15.119 14.238-22.21 21.903-14.143 15.363-26.987 32.05-37.627 49.65-5.264 8.814-9.934 17.873-13.68 27.057-3.7 9.17-6.434 18.525-7.464 27.476-1.017 8.946-.284 17.37 2.742 24.263 1.422 3.538 3.55 6.508 5.912 9.254 1.363 1.229 2.512 2.65 4.151 3.693.788.55 1.451 1.206 2.314 1.704l2.594 1.503c7.012 4.021 16.226 6.307 25.848 7.65 9.677 1.332 19.926 1.673 30.32 1.39 20.811-.53 42.126-3.033 63.427-6.215 42.65-6.433 85.452-15.32 128.335-23.966 42.892-8.726 85.924-17.453 129.165-25.33 86.477-15.72 173.914-27.966 261.99-33.162 88.028-5.29 176.723-3.213 264.284 8.491 21.906 2.79 43.672 6.58 65.384 10.576 10.81 2.244 21.671 4.233 32.419 6.771l16.146 3.67 16.063 4.024c2.672.687 5.362 1.31 8.019 2.05l7.96 2.288 15.908 4.58 15.908 4.578c2.644.78 5.311 1.493 7.94 2.33l7.84 2.642 31.355 10.575c5.256 1.671 10.386 3.704 15.526 5.7l15.428 5.96c20.724 7.56 40.706 16.924 60.96 25.586l29.762 14.354c4.928 2.456 9.955 4.713 14.803 7.324l14.566 7.781 14.564 7.782 7.277 3.892 7.134 4.152 28.522 16.609c18.643 11.676 37.412 23.147 55.46 35.712 36.367 24.7 71.452 51.225 105.133 79.382 33.645 28.205 65.865 58.038 96.853 89.04l-2.16 2.218a1544.633 1544.633 0 0 0-99.05-85.91c-34.211-27.168-69.792-52.541-106.416-76.205-18.178-12.053-37.043-23.003-55.757-34.15l-28.606-15.797-7.149-3.952-7.285-3.682-14.576-7.37-14.566-7.366c-4.849-2.472-9.868-4.592-14.794-6.904l-29.664-13.597c-20.163-8.16-40.04-17.022-60.615-24.072-81.564-30.128-166.603-50.262-252.85-60.205-86.248-10.141-173.458-10.679-260.134-4.501-86.732 6.183-172.892 19.431-258.501 35.98-42.833 8.202-85.548 17.27-128.38 26.391-42.865 9.045-85.757 18.383-129.644 25.418-21.955 3.471-44.186 6.345-67.15 7.151-11.476.4-23.19.18-35.222-1.35-11.982-1.615-24.532-4.31-36.723-10.979l-4.51-2.611c-1.49-.894-2.9-2.056-4.34-3.094-2.938-2.004-5.496-4.656-8.096-7.195-4.908-5.403-9.09-11.554-11.86-18.155-2.807-6.565-4.696-13.507-5.36-20.289-.702-6.771-.728-13.486.039-19.865 1.415-12.828 4.951-24.677 9.343-35.82 4.456-11.123 9.81-21.598 15.71-31.616 11.904-19.958 25.824-38.21 41.217-55.161 7.716-8.458 15.828-16.578 24.428-24.305 4.288-3.889 8.863-7.494 13.401-11.136 4.444-3.76 9.305-7.006 14.058-10.387 19.2-13.264 40.293-23.927 62.263-31.613 21.999-7.637 44.736-12.412 67.421-15.126 22.706-2.735 45.392-3.437 67.85-2.985 22.464.462 44.741 2.017 66.82 4.238 44.165 4.452 87.703 10.921 131.02 17.543 43.313 6.637 86.453 13.282 129.64 19.051a3807.491 3807.491 0 0 0 64.868 8.027l65.188 7.469c86.87 9.728 173.72 18.597 260.562 22.045 43.4 1.668 86.81 2.223 129.968.082 43.125-2.148 86.144-6.304 128.079-14.945 41.958-8.36 82.904-21.167 120.62-40.058l13.956-7.389c4.596-2.56 8.995-5.423 13.505-8.114 2.22-1.397 4.536-2.658 6.682-4.16l6.43-4.513 6.44-4.506c1.063-.762 2.168-1.475 3.201-2.278l3.052-2.461 12.227-9.832 11.517-10.622c7.693-7.069 14.751-14.814 21.523-22.822 27.126-32.073 47.953-69.66 63.549-109.292 15.645-39.673 26.173-81.51 32.576-123.948 6.232-42.48 8.326-85.668 5.853-128.573-2.401-42.875-9.178-85.63-22.058-126.354-6.442-20.343-14.512-40.115-24.534-58.728-10.097-18.532-22.25-35.892-36.942-50.548-7.34-7.32-15.33-13.913-23.932-19.488l-6.555-3.996c-2.236-1.229-4.552-2.306-6.821-3.473-4.467-2.516-9.328-4.088-14.06-5.981l-1.782-.695-1.843-.504-3.687-1.017c-2.476-.615-4.88-1.521-7.41-1.911-5.046-.806-10.037-2.015-15.195-2.214-2.564-.185-5.12-.485-7.691-.59l-7.758.033-3.88.007-3.888.326-7.784.65c-20.765 2.413-41.269 8.6-61.12 16.485-19.871 7.947-39.141 17.737-57.938 28.444-37.634 21.444-73.318 46.626-108.399 72.56-70.07 52.13-137.55 108.08-207.104 161.473-34.743 26.747-70.04 52.826-106.036 77.952-18.088 12.432-36.248 24.78-54.828 36.5-9.201 5.996-18.648 11.613-27.973 17.413l-14.187 8.391a495.235 495.235 0 0 1-14.274 8.244c-19.032 11.001-38.612 21.045-58.277 30.895-19.796 9.602-39.859 18.68-60.327 26.825-5.075 2.136-10.293 3.923-15.43 5.901-5.161 1.93-10.296 3.923-15.542 5.617l-15.656 5.305-15.823 4.811-7.923 2.371-8.004 2.102c-5.344 1.366-10.65 2.885-16.027 4.125-10.776 2.38-21.524 4.922-32.429 6.694-10.835 2.164-21.828 3.388-32.764 4.96-5.492.61-11.003 1.067-16.505 1.607-2.752.248-5.502.553-8.256.749l-8.288.408c-22.084 1.426-44.27.796-66.344-.857l-16.542-1.589c-5.501-.622-10.964-1.552-16.45-2.316l-8.223-1.206c-2.734-.45-5.44-1.051-8.16-1.57l-16.304-3.236-16.12-4.045-8.058-2.032c-2.67-.734-5.3-1.596-7.954-2.389l-15.893-4.85c-5.26-1.73-10.443-3.675-15.669-5.506-41.764-14.847-81.409-35.162-118.846-58.759-2.342-1.474-4.717-2.9-7.03-4.416l-6.872-4.656-13.746-9.32-13.39-9.817c-4.472-3.267-8.96-6.51-13.248-10.015l-13.017-10.315c-4.355-3.422-8.46-7.146-12.702-10.705-4.166-3.646-8.517-7.091-12.534-10.903l-12.23-11.258c-4.138-3.688-7.995-7.667-11.95-11.552-3.917-3.917-7.918-7.755-11.768-11.742l-11.38-12.133c-1.887-2.033-3.815-4.024-5.667-6.087l-5.465-6.276-10.928-12.557-10.459-12.959-5.228-6.482-4.993-6.67-9.963-13.368-9.46-13.74-4.721-6.882-4.464-7.053-8.886-14.147-8.31-14.51-4.134-7.272-3.836-7.443c-2.53-4.976-5.171-9.896-7.611-14.924-4.619-10.183-9.534-20.237-13.505-30.733-4.402-10.31-7.856-21.006-11.535-31.626-1.673-5.366-3.116-10.816-4.68-16.224-.737-2.716-1.612-5.395-2.229-8.15l-1.85-8.262-1.844-8.267-.901-4.14-.677-4.191L5.2 977.907c-1.095-11.302-2.44-22.593-2.427-34.023l-.22-8.553c.052-2.854.238-5.713.351-8.57l.403-8.574.204-4.287.514-4.274 2.156-17.091 1.556-8.492 1.857-8.43c5.3-22.41 13.724-44.058 24.614-64.23 10.866-20.201 24.095-38.958 38.795-56.251 14.739-17.28 30.996-33.052 48.056-47.697 34.218-29.227 71.748-53.751 110.433-75.535 38.712-21.813 78.765-40.75 119.27-58.26 40.522-17.492 81.656-33.256 122.94-48.33 82.564-30.162 166.095-56.866 248.15-86.349 40.945-14.842 81.728-30.136 120.49-48.697 19.301-9.33 38.166-19.48 55.195-31.463 8.501-5.986 16.479-12.481 23.41-19.589 6.878-7.117 12.656-14.896 16.196-23.14 3.552-8.228 4.634-16.91 3.27-25.572-1.471-8.597-5.258-17.117-10.987-24.927-1.268-2.014-3.026-3.825-4.505-5.76-.78-.947-1.523-1.915-2.329-2.853l-2.626-2.696c-1.776-1.78-3.433-3.644-5.295-5.372l-5.75-5.08c-.965-.842-1.889-1.717-2.888-2.536l-3.085-2.373-6.163-4.76c-4.218-3.073-8.651-5.94-12.962-8.928-17.757-11.443-36.932-21.187-56.465-30.187-19.502-9.12-39.748-16.89-59.994-24.6-40.744-14.919-82.42-27.674-124.394-39.438-41.994-11.748-84.391-22.22-126.928-32.155-85.17-19.499-170.94-36.807-257.06-52.292C172.887 30.898 86.498 16.701 0 3.068L.426 0z" fill="#FFF" mask="url(#b)"/>
    </g>
    <g transform="matrix(1 0 0 -1 0 947)">
      <mask id="d" fill="#fff">
        <use xlink:href="#c"/>
      </mask>
      <path id="line-two" d="M-290.738 16c53.539 6.49 106.99 13.79 160.313 22.065 53.311 8.324 106.494 17.68 159.365 28.86 26.42 5.655 52.787 11.648 78.99 18.456 26.185 6.874 52.218 14.491 77.9 23.473 12.789 4.665 25.58 9.372 38.085 15.001 12.518 5.563 24.903 11.62 36.754 19.018 2.915 1.95 5.875 3.812 8.75 5.847l4.254 3.187 2.126 1.597c.696.554 1.365 1.16 2.05 1.739l4.076 3.521c1.33 1.216 2.583 2.567 3.876 3.85l1.92 1.95c.609.694 1.194 1.424 1.79 2.136l1.777 2.15c.591.721 1.197 1.42 1.706 2.234 4.476 6.016 8.024 13.318 9.444 21.325.22 2.017.496 4.036.586 6.066a44.37 44.37 0 0 1-.273 6.111c-.479 4.059-1.558 8.024-3.094 11.696-3.093 7.37-7.75 13.55-12.807 18.894-5.103 5.322-10.667 9.894-16.412 14.023-11.505 8.244-23.68 14.892-35.992 20.99-12.332 6.06-24.857 11.496-37.456 16.63a1113.957 1113.957 0 0 1-37.993 14.618c-50.882 18.52-102.129 35.138-152.507 53.784-25.196 9.286-50.158 19.083-74.72 29.656-24.557 10.579-48.663 22.09-71.882 35-23.187 12.936-45.459 27.43-65.566 44.295-20.009 16.88-37.852 36.363-50.287 58.896-6.205 11.242-11.033 23.186-14.18 35.584l-1.102 4.668-.937 4.705-1.338 9.52-.33 2.383-.144 2.408-.294 4.817c-.089 1.607-.222 3.211-.278 4.822l.059 4.842c-.116 6.46.574 12.923 1.089 19.39l1.407 9.659.35 2.415c.142.803.325 1.6.487 2.399l.997 4.793.995 4.794c.332 1.6.824 3.167 1.227 4.752.865 3.157 1.654 6.337 2.58 9.48 2.043 6.235 3.935 12.525 6.416 18.63 2.21 6.201 5.012 12.18 7.62 18.239 1.385 2.991 2.897 5.93 4.34 8.902l2.188 4.447 2.373 4.355 4.774 8.703 5.133 8.508 2.578 4.248 2.74 4.15 5.491 8.297 5.805 8.09 2.91 4.043 3.058 3.933 6.114 7.872 6.406 7.642 3.205 3.822c1.087 1.257 2.223 2.473 3.331 3.712l6.693 7.405c2.263 2.435 4.626 4.783 6.934 7.18 2.33 2.376 4.602 4.811 7.048 7.072l7.222 6.9c2.373 2.338 4.95 4.454 7.414 6.692 2.511 2.187 4.937 4.475 7.519 6.578l7.716 6.353c2.542 2.157 5.204 4.157 7.859 6.171l7.964 6.041 8.183 5.737 4.094 2.87c1.38.933 2.796 1.812 4.19 2.721 22.312 14.556 45.986 27.161 70.958 36.478 3.124 1.15 6.227 2.374 9.37 3.464l9.52 3.026c1.59.494 3.168 1.031 4.767 1.49l4.83 1.268 9.658 2.53 9.773 2.045c1.63.328 3.252.708 4.891.995l4.931.774c3.292.493 6.57 1.09 9.873 1.496l9.932 1.056c13.263 1.13 26.614 1.656 39.935.93l4.998-.19c1.664-.101 3.324-.27 4.986-.401 3.323-.291 6.652-.533 9.97-.865 6.615-.886 13.257-1.606 19.819-2.874 6.6-1.035 13.114-2.54 19.647-3.946 3.26-.731 6.481-1.634 9.724-2.444l4.858-1.248 4.813-1.411c12.892-3.59 25.485-8.202 37.977-13.023 12.458-4.932 24.688-10.435 36.766-16.263 3.014-1.47 5.993-3.013 8.987-4.523 2.996-1.507 5.981-3.038 8.92-4.655l8.863-4.772 8.76-4.962c46.618-26.709 90.325-58.316 132.704-91.485 21.226-16.562 42.17-33.507 63.16-50.427 20.97-16.952 41.962-33.916 63.462-50.318 21.556-16.318 43.516-32.258 66.989-46.153 11.74-6.924 23.865-13.333 36.587-18.647 12.715-5.272 26.059-9.566 40.058-11.418l5.275-.529 2.639-.256 2.664-.056 5.335-.101c1.778.043 3.564.211 5.346.316 3.578.1 7.107.852 10.655 1.386 1.777.258 3.492.843 5.242 1.255l2.612.682 1.307.343 1.268.463c3.37 1.262 6.82 2.359 10 4.055 1.61.793 3.252 1.539 4.838 2.381 1.547.91 3.11 1.794 4.64 2.728 6.082 3.806 11.685 8.29 16.791 13.217 10.222 9.874 18.513 21.392 25.382 33.523 6.813 12.179 12.269 24.994 16.651 38.1 8.753 26.238 13.519 53.532 15.474 80.912 1.923 27.402.936 54.963-2.71 82.206-3.75 27.218-10.152 54.191-20.127 80.02-9.908 25.8-23.3 50.612-41.271 72.246-4.485 5.396-9.201 10.65-14.342 15.471l-7.713 7.229-8.18 6.678-2.048 1.668c-.693.542-1.425 1.027-2.134 1.544l-4.297 3.053-4.3 3.05c-1.434 1.015-2.965 1.874-4.443 2.817-2.995 1.818-5.936 3.745-8.98 5.47l-9.244 4.972c-24.931 12.696-51.609 21.168-78.569 26.733-26.974 5.736-54.306 8.545-81.56 10.086-27.275 1.523-54.519 1.378-81.666.478-54.31-1.876-108.22-7.108-161.904-12.834l-40.232-4.395c-13.4-1.466-26.927-3.065-40.339-4.828-26.858-3.53-53.597-7.588-80.227-11.612-26.634-3.976-53.168-8.006-79.624-10.662-26.423-2.631-52.874-3.84-78.498-.92-12.79 1.486-25.327 4.095-37.28 8.195-11.933 4.131-23.23 9.802-33.614 16.914-2.569 1.822-5.205 3.544-7.62 5.59-2.466 1.97-4.96 3.903-7.323 6.031-4.743 4.238-9.308 8.764-13.675 13.483-8.708 9.457-16.617 19.728-23.167 30.562-3.242 5.426-6.117 11.003-8.424 16.656-2.278 5.645-3.961 11.403-4.596 16.913-.626 5.507-.174 10.692 1.689 14.935.876 2.178 2.185 4.007 3.64 5.696.84.757 1.547 1.631 2.556 2.274.485.338.893.742 1.424 1.049l1.598.925c4.317 2.475 9.99 3.882 15.915 4.709 5.958.82 12.27 1.03 18.669.855 12.814-.326 25.938-1.866 39.054-3.825 26.26-3.96 52.615-9.43 79.019-14.752 26.41-5.372 52.906-10.744 79.53-15.592 53.247-9.677 107.085-17.216 161.315-20.414 54.201-3.256 108.813-1.978 162.727 5.227 13.488 1.717 26.89 4.05 40.26 6.51 6.655 1.381 13.342 2.605 19.96 4.168l9.942 2.26 9.89 2.476c1.646.423 3.302.806 4.938 1.262l4.9 1.409 9.796 2.818 9.795 2.819c1.628.48 3.27.919 4.888 1.434l4.828 1.626 19.306 6.51c3.237 1.029 6.395 2.28 9.56 3.509l9.5 3.669c12.76 4.653 25.063 10.417 37.534 15.75l18.325 8.835c3.035 1.512 6.13 2.901 9.115 4.508l8.969 4.79 8.967 4.79 4.481 2.396 4.392 2.556 17.563 10.224c11.478 7.187 23.035 14.248 34.148 21.982a814.133 814.133 0 0 1 64.733 48.865c20.716 17.362 40.555 35.726 59.635 54.81l-1.33 1.365a951.002 951.002 0 0 0-60.988-52.882c-21.064-16.724-42.973-32.343-65.523-46.91-11.193-7.42-22.808-14.16-34.332-21.021l-17.613-9.724-4.401-2.433-4.486-2.267-8.975-4.537-8.969-4.534c-2.985-1.521-6.076-2.826-9.109-4.249l-18.264-8.37c-12.415-5.023-24.654-10.478-37.323-14.818-50.222-18.546-102.582-30.94-155.687-37.06-53.105-6.242-106.803-6.573-160.171-2.77-53.404 3.805-106.455 11.96-159.167 22.148-26.373 5.049-52.674 10.63-79.047 16.245-26.393 5.567-52.803 11.316-79.825 15.646-13.519 2.137-27.207 3.906-41.347 4.402-7.066.247-14.278.111-21.687-.831-7.377-.994-15.105-2.653-22.61-6.758l-2.778-1.607c-.917-.55-1.785-1.266-2.672-1.905-1.81-1.234-3.384-2.866-4.985-4.429-3.022-3.326-5.597-7.112-7.303-11.176-1.728-4.04-2.892-8.314-3.3-12.489-.432-4.168-.448-8.301.024-12.228.87-7.896 3.049-15.19 5.753-22.05 2.743-6.846 6.04-13.294 9.673-19.46 7.33-12.286 15.9-23.52 25.378-33.956 4.751-5.206 9.746-10.204 15.041-14.96 2.64-2.395 5.457-4.614 8.252-6.856 2.736-2.314 5.729-4.313 8.655-6.394 11.823-8.164 24.81-14.728 38.338-19.46 13.545-4.7 27.545-7.64 41.513-9.31 13.98-1.684 27.949-2.116 41.777-1.838 13.831.284 27.548 1.241 41.143 2.609 27.193 2.74 54.001 6.723 80.672 10.799 26.669 4.085 53.232 8.176 79.823 11.727a2344.947 2344.947 0 0 0 39.941 4.94l40.138 4.598c53.488 5.989 106.965 11.448 160.435 13.57 26.724 1.027 53.452 1.37 80.026.051 26.553-1.322 53.04-3.88 78.861-9.2 25.835-5.145 51.046-13.029 74.27-24.658l8.593-4.548c2.83-1.575 5.538-3.338 8.315-4.995 1.367-.86 2.793-1.636 4.114-2.561l3.96-2.777 3.964-2.774c.655-.47 1.336-.908 1.972-1.402l1.879-1.515 7.528-6.053 7.091-6.538c4.737-4.351 9.084-9.119 13.253-14.049 16.702-19.742 29.526-42.88 39.129-67.275 9.633-24.422 16.116-50.175 20.058-76.298 3.837-26.15 5.126-52.734 3.604-79.144-1.479-26.393-5.652-52.711-13.582-77.78-3.966-12.522-8.936-24.693-15.107-36.15-6.217-11.408-13.699-22.094-22.746-31.116-4.519-4.505-9.439-8.564-14.735-11.996l-4.037-2.459c-1.376-.757-2.802-1.42-4.2-2.138-2.75-1.549-5.743-2.517-8.656-3.682l-1.097-.428-1.135-.31-2.27-.626c-1.525-.378-3.005-.936-4.563-1.176-3.107-.496-6.18-1.24-9.356-1.363-1.579-.114-3.152-.299-4.736-.364l-4.776.02-2.39.006-2.394.2-4.792.4c-12.786 1.485-25.41 5.294-37.633 10.148-12.236 4.891-24.1 10.918-35.675 17.509-23.172 13.2-45.144 28.7-66.744 44.665-43.144 32.089-84.694 66.53-127.52 99.396-21.391 16.465-43.125 32.518-65.29 47.985-11.136 7.653-22.317 15.253-33.758 22.467-5.665 3.692-11.482 7.15-17.224 10.72l-8.735 5.165a304.942 304.942 0 0 1-8.789 5.074c-11.719 6.772-23.774 12.955-35.883 19.018-12.189 5.91-24.542 11.499-37.144 16.513-3.126 1.314-6.338 2.414-9.502 3.632-3.177 1.188-6.34 2.415-9.57 3.458l-9.639 3.265-9.743 2.962-4.878 1.46-4.928 1.293c-3.29.841-6.557 1.776-9.868 2.539-6.636 1.466-13.253 3.03-19.968 4.12-6.671 1.333-13.44 2.086-20.174 3.054-3.38.376-6.775.657-10.162.99-1.695.152-3.388.34-5.084.46l-5.103.251c-13.597.878-27.259.49-40.85-.527l-10.185-.978c-3.387-.383-6.75-.955-10.129-1.426l-5.063-.742c-1.683-.277-3.35-.647-5.025-.967l-10.038-1.992-9.926-2.49-4.961-1.25c-1.644-.452-3.264-.983-4.898-1.471l-9.785-2.986c-3.239-1.065-6.43-2.262-9.648-3.389-25.715-9.14-50.126-21.644-73.177-36.17-1.442-.907-2.904-1.785-4.329-2.718l-4.231-2.866-8.463-5.737-8.246-6.043c-2.753-2.011-5.516-4.008-8.156-6.165l-8.015-6.35c-2.682-2.106-5.21-4.398-7.821-6.589-2.566-2.244-5.244-4.365-7.718-6.712l-7.53-6.93c-2.548-2.27-4.923-4.72-7.358-7.11-2.412-2.412-4.876-4.774-7.246-7.229l-7.007-7.468c-1.162-1.251-2.35-2.477-3.49-3.747l-3.364-3.863-6.73-7.73-6.439-7.977-3.219-3.99-3.074-4.106-6.135-8.229-5.824-8.457-2.907-4.237-2.749-4.341-5.471-8.709-5.117-8.93-2.545-4.477-2.363-4.582c-1.557-3.063-3.184-6.092-4.686-9.187-2.844-6.268-5.87-12.457-8.315-18.918-2.71-6.346-4.837-12.93-7.103-19.468-1.03-3.303-1.918-6.657-2.882-9.986-.453-1.673-.992-3.321-1.371-5.017l-1.14-5.086-1.135-5.089-.555-2.548-.416-2.58-1.658-10.327c-.674-6.957-1.503-13.907-1.495-20.943l-.135-5.265c.032-1.757.146-3.517.216-5.275l.248-5.278.126-2.639.316-2.63 1.328-10.522.958-5.227 1.143-5.189c3.264-13.795 8.45-27.12 15.156-39.538 6.69-12.435 14.836-23.98 23.887-34.626 9.075-10.637 19.085-20.345 29.59-29.36 21.068-17.991 44.177-33.087 67.996-46.497 23.836-13.427 48.498-25.084 73.438-35.862 24.95-10.768 50.278-20.471 75.698-29.75 50.836-18.567 102.269-35.005 152.792-53.153 25.211-9.136 50.323-18.55 74.19-29.976 11.884-5.744 23.499-11.991 33.984-19.368 5.235-3.685 10.147-7.683 14.415-12.058 4.235-4.381 7.792-9.17 9.972-14.244 2.187-5.065 2.853-10.41 2.014-15.741-.906-5.293-3.238-10.537-6.766-15.344-.78-1.24-1.863-2.355-2.774-3.546-.48-.583-.937-1.18-1.433-1.756l-1.617-1.66c-1.094-1.095-2.114-2.243-3.26-3.306l-3.54-3.127c-.595-.519-1.164-1.058-1.78-1.562l-1.899-1.46-3.794-2.93c-2.598-1.892-5.327-3.657-7.982-5.496-10.933-7.044-22.74-13.042-34.767-18.582-12.008-5.614-24.474-10.397-36.94-15.143-25.087-9.183-50.748-17.035-76.593-24.276C79.037 89.4 52.932 82.955 26.742 76.839-25.7 64.836-78.511 54.182-131.538 44.65-184.548 35.02-237.74 26.28-291 17.89l.262-1.889z" fill="#87E800" mask="url(#d)"/>
    </g>
    <g transform="scale(-1 1) rotate(38 243.395 -3242.057)">
      <mask id="f" fill="#fff">
        <use xlink:href="#e"/>
      </mask>
      <path d="M-1.738 16c53.539 6.49 106.99 13.79 160.313 22.065 53.311 8.324 106.494 17.68 159.365 28.86 26.42 5.655 52.787 11.648 78.99 18.456 26.185 6.874 52.218 14.491 77.9 23.473 12.789 4.665 25.58 9.372 38.085 15.001 12.518 5.563 24.903 11.62 36.754 19.018 2.915 1.95 5.875 3.812 8.75 5.847l4.254 3.187 2.126 1.597c.696.554 1.365 1.16 2.05 1.739l4.076 3.521c1.33 1.216 2.583 2.567 3.876 3.85l1.92 1.95c.609.694 1.194 1.424 1.79 2.136l1.777 2.15c.591.721 1.197 1.42 1.706 2.234 4.476 6.016 8.024 13.318 9.444 21.325.22 2.017.496 4.036.586 6.066a44.37 44.37 0 0 1-.273 6.111c-.479 4.059-1.558 8.024-3.094 11.696-3.093 7.37-7.75 13.55-12.807 18.894-5.103 5.322-10.667 9.894-16.412 14.023-11.505 8.244-23.68 14.892-35.992 20.99-12.332 6.06-24.857 11.496-37.456 16.63a1113.957 1113.957 0 0 1-37.993 14.618c-50.882 18.52-102.129 35.138-152.507 53.784-25.196 9.286-50.158 19.083-74.72 29.656-24.557 10.579-48.663 22.09-71.882 35-23.187 12.936-45.459 27.43-65.566 44.295-20.009 16.88-37.852 36.363-50.287 58.896-6.205 11.242-11.033 23.186-14.18 35.584l-1.102 4.668-.937 4.705-1.338 9.52-.33 2.383-.144 2.408-.294 4.817c-.089 1.607-.222 3.211-.278 4.822l.059 4.842c-.116 6.46.574 12.923 1.089 19.39l1.407 9.659.35 2.415c.142.803.325 1.6.487 2.399l.997 4.793.995 4.794c.332 1.6.824 3.167 1.227 4.752.865 3.157 1.654 6.337 2.58 9.48 2.043 6.235 3.935 12.525 6.416 18.63 2.21 6.201 5.012 12.18 7.62 18.239 1.385 2.991 2.897 5.93 4.34 8.902l2.188 4.447 2.373 4.355 4.774 8.703 5.133 8.508 2.578 4.248 2.74 4.15 5.491 8.297 5.805 8.09 2.91 4.043 3.058 3.933 6.114 7.872 6.406 7.642 3.205 3.822c1.087 1.257 2.223 2.473 3.331 3.712l6.693 7.405c2.263 2.435 4.626 4.783 6.934 7.18 2.33 2.376 4.602 4.811 7.048 7.072l7.222 6.9c2.373 2.338 4.95 4.454 7.414 6.692 2.511 2.187 4.937 4.475 7.519 6.578l7.716 6.353c2.542 2.157 5.204 4.157 7.859 6.171l7.964 6.041 8.183 5.737 4.094 2.87c1.38.933 2.796 1.812 4.19 2.721 22.312 14.556 45.986 27.161 70.958 36.478 3.124 1.15 6.227 2.374 9.37 3.464l9.52 3.026c1.59.494 3.168 1.031 4.767 1.49l4.83 1.268 9.658 2.53 9.773 2.045c1.63.328 3.252.708 4.891.995l4.931.774c3.292.493 6.57 1.09 9.873 1.496l9.932 1.056c13.263 1.13 26.614 1.656 39.935.93l4.998-.19c1.664-.101 3.324-.27 4.986-.401 3.323-.291 6.652-.533 9.97-.865 6.615-.886 13.257-1.606 19.819-2.874 6.6-1.035 13.114-2.54 19.647-3.946 3.26-.731 6.481-1.634 9.724-2.444l4.858-1.248 4.813-1.411c12.892-3.59 25.485-8.202 37.977-13.023 12.458-4.932 24.688-10.435 36.766-16.263 3.014-1.47 5.993-3.013 8.987-4.523 2.996-1.507 5.981-3.038 8.92-4.655l8.863-4.772 8.76-4.962c46.618-26.709 90.325-58.316 132.704-91.485 21.226-16.562 42.17-33.507 63.16-50.427 20.97-16.952 41.962-33.916 63.462-50.318 21.556-16.318 43.516-32.258 66.989-46.153 11.74-6.924 23.865-13.333 36.587-18.647 12.715-5.272 26.059-9.566 40.058-11.418l5.275-.529 2.639-.256 2.664-.056 5.335-.101c1.778.043 3.564.211 5.346.316 3.578.1 7.107.852 10.655 1.386 1.777.258 3.492.843 5.242 1.255l2.612.682 1.307.343 1.268.463c3.37 1.262 6.82 2.359 10 4.055 1.61.793 3.252 1.539 4.838 2.381 1.547.91 3.11 1.794 4.64 2.728 6.082 3.806 11.685 8.29 16.791 13.217 10.222 9.874 18.513 21.392 25.382 33.523 6.813 12.179 12.269 24.994 16.651 38.1 8.753 26.238 13.519 53.532 15.474 80.912 1.923 27.402.936 54.963-2.71 82.206-3.75 27.218-10.152 54.191-20.127 80.02-9.908 25.8-23.3 50.612-41.271 72.246-4.485 5.396-9.201 10.65-14.342 15.471l-7.713 7.229-8.18 6.678-2.048 1.668c-.693.542-1.425 1.027-2.134 1.544l-4.297 3.053-4.3 3.05c-1.434 1.015-2.965 1.874-4.443 2.817-2.995 1.818-5.936 3.745-8.98 5.47l-9.244 4.972c-24.931 12.696-51.609 21.168-78.569 26.733-26.974 5.736-54.306 8.545-81.56 10.086-27.275 1.523-54.519 1.378-81.666.478-54.31-1.876-108.22-7.108-161.904-12.834l-40.232-4.395c-13.4-1.466-26.927-3.065-40.339-4.828-26.858-3.53-53.597-7.588-80.227-11.612-26.634-3.976-53.168-8.006-79.624-10.662-26.423-2.631-52.874-3.84-78.498-.92-12.79 1.486-25.327 4.095-37.28 8.195-11.933 4.131-23.23 9.802-33.614 16.914-2.569 1.822-5.205 3.544-7.62 5.59-2.466 1.97-4.96 3.903-7.323 6.031-4.743 4.238-9.308 8.764-13.675 13.483-8.708 9.457-16.617 19.728-23.167 30.562-3.242 5.426-6.117 11.003-8.424 16.656-2.278 5.645-3.961 11.403-4.596 16.913-.626 5.507-.174 10.692 1.689 14.935.876 2.178 2.185 4.007 3.64 5.696.84.757 1.547 1.631 2.556 2.274.485.338.893.742 1.424 1.049l1.598.925c4.317 2.475 9.99 3.882 15.915 4.709 5.958.82 12.27 1.03 18.669.855 12.814-.326 25.938-1.866 39.054-3.825 26.26-3.96 52.615-9.43 79.019-14.752 26.41-5.372 52.906-10.744 79.53-15.592 53.247-9.677 107.085-17.216 161.315-20.414 54.201-3.256 108.813-1.978 162.727 5.227 13.488 1.717 26.89 4.05 40.26 6.51 6.655 1.381 13.342 2.605 19.96 4.168l9.942 2.26 9.89 2.476c1.646.423 3.302.806 4.938 1.262l4.9 1.409 9.796 2.818 9.795 2.819c1.628.48 3.27.919 4.888 1.434l4.828 1.626 19.306 6.51c3.237 1.029 6.395 2.28 9.56 3.509l9.5 3.669c12.76 4.653 25.063 10.417 37.534 15.75l18.325 8.835c3.035 1.512 6.13 2.901 9.115 4.508l8.969 4.79 8.967 4.79 4.481 2.396 4.392 2.556 17.563 10.224c11.478 7.187 23.035 14.248 34.148 21.982a814.134 814.134 0 0 1 64.733 48.865c20.716 17.362 40.555 35.726 59.635 54.81l-1.33 1.365a951.002 951.002 0 0 0-60.988-52.882c-21.064-16.724-42.973-32.343-65.523-46.91-11.193-7.42-22.808-14.16-34.332-21.021l-17.613-9.724-4.401-2.433-4.486-2.267-8.975-4.537-8.969-4.534c-2.985-1.521-6.076-2.826-9.109-4.249l-18.264-8.37c-12.415-5.023-24.654-10.478-37.323-14.818-50.222-18.546-102.582-30.94-155.687-37.06-53.105-6.242-106.803-6.573-160.171-2.77-53.404 3.805-106.455 11.96-159.167 22.148-26.373 5.049-52.674 10.63-79.047 16.245-26.393 5.567-52.803 11.316-79.825 15.646-13.519 2.137-27.207 3.906-41.347 4.402-7.066.247-14.278.111-21.687-.831-7.377-.994-15.105-2.653-22.61-6.758l-2.778-1.607c-.917-.55-1.785-1.266-2.672-1.905-1.81-1.234-3.384-2.866-4.985-4.429-3.022-3.326-5.597-7.112-7.303-11.176-1.728-4.04-2.892-8.314-3.3-12.489-.432-4.168-.448-8.301.024-12.228.87-7.896 3.049-15.19 5.753-22.05 2.743-6.846 6.04-13.294 9.673-19.46 7.33-12.286 15.9-23.52 25.378-33.956 4.751-5.206 9.746-10.204 15.041-14.96 2.64-2.395 5.457-4.614 8.252-6.856 2.736-2.314 5.729-4.313 8.655-6.394 11.823-8.164 24.81-14.728 38.338-19.46 13.545-4.7 27.545-7.64 41.513-9.31 13.98-1.684 27.949-2.116 41.777-1.838 13.831.284 27.548 1.241 41.143 2.609 27.193 2.74 54.001 6.723 80.672 10.799 26.669 4.085 53.232 8.176 79.823 11.727a2344.947 2344.947 0 0 0 39.941 4.94l40.138 4.598c53.488 5.989 106.965 11.448 160.435 13.57 26.724 1.027 53.452 1.37 80.026.051 26.553-1.322 53.04-3.88 78.861-9.2 25.835-5.145 51.046-13.029 74.27-24.658l8.593-4.548c2.83-1.575 5.538-3.338 8.315-4.995 1.367-.86 2.793-1.636 4.114-2.561l3.96-2.777 3.964-2.774c.655-.47 1.336-.908 1.972-1.402l1.879-1.515 7.528-6.053 7.091-6.538c4.737-4.351 9.084-9.119 13.253-14.049 16.702-19.742 29.526-42.88 39.129-67.275 9.633-24.422 16.116-50.175 20.058-76.298 3.837-26.15 5.126-52.734 3.604-79.144-1.479-26.393-5.652-52.711-13.582-77.78-3.966-12.522-8.936-24.693-15.107-36.15-6.217-11.408-13.699-22.094-22.746-31.116-4.519-4.505-9.439-8.564-14.735-11.996l-4.037-2.459c-1.376-.757-2.802-1.42-4.2-2.138-2.75-1.549-5.743-2.517-8.656-3.682l-1.097-.428-1.135-.31-2.27-.626c-1.525-.378-3.005-.936-4.563-1.176-3.107-.496-6.18-1.24-9.356-1.363-1.579-.114-3.152-.299-4.736-.364l-4.776.02-2.39.006-2.394.2-4.792.4c-12.786 1.485-25.41 5.294-37.633 10.148-12.236 4.891-24.1 10.918-35.675 17.509-23.172 13.2-45.144 28.7-66.744 44.665-43.144 32.089-84.694 66.53-127.52 99.396-21.391 16.465-43.125 32.518-65.29 47.985-11.136 7.653-22.317 15.253-33.758 22.467-5.665 3.692-11.482 7.15-17.224 10.72l-8.735 5.165a304.942 304.942 0 0 1-8.789 5.074c-11.719 6.772-23.774 12.955-35.883 19.018-12.189 5.91-24.542 11.499-37.144 16.513-3.126 1.314-6.338 2.414-9.502 3.632-3.177 1.188-6.34 2.415-9.57 3.458l-9.639 3.265-9.743 2.962-4.878 1.46-4.928 1.293c-3.29.841-6.557 1.776-9.868 2.539-6.636 1.466-13.253 3.03-19.968 4.12-6.671 1.333-13.44 2.086-20.174 3.054-3.38.376-6.775.657-10.162.99-1.695.152-3.388.34-5.084.46l-5.103.251c-13.597.878-27.259.49-40.85-.527l-10.185-.978c-3.387-.383-6.75-.955-10.129-1.426l-5.063-.742c-1.683-.277-3.35-.647-5.025-.967l-10.038-1.992-9.926-2.49-4.961-1.25c-1.644-.452-3.264-.983-4.898-1.471l-9.785-2.986c-3.239-1.065-6.43-2.262-9.648-3.389-25.715-9.14-50.126-21.644-73.177-36.17-1.442-.907-2.904-1.785-4.329-2.718l-4.231-2.866-8.463-5.737-8.246-6.043c-2.753-2.011-5.516-4.008-8.156-6.165l-8.015-6.35c-2.682-2.106-5.21-4.398-7.821-6.589-2.566-2.244-5.244-4.365-7.718-6.712l-7.53-6.93c-2.548-2.27-4.923-4.72-7.358-7.11-2.412-2.412-4.876-4.774-7.246-7.229l-7.007-7.468c-1.162-1.251-2.35-2.477-3.49-3.747l-3.364-3.863-6.73-7.73-6.439-7.977-3.219-3.99-3.074-4.106-6.135-8.229-5.824-8.457-2.907-4.237-2.749-4.341-5.471-8.709-5.117-8.93-2.545-4.477-2.363-4.582c-1.557-3.063-3.184-6.092-4.686-9.187-2.844-6.268-5.87-12.457-8.315-18.918-2.71-6.346-4.837-12.93-7.103-19.468-1.03-3.303-1.918-6.657-2.882-9.986-.453-1.673-.992-3.321-1.371-5.017l-1.14-5.086-1.135-5.089-.555-2.548-.416-2.58-1.658-10.327c-.674-6.957-1.503-13.907-1.495-20.943l-.135-5.265c.032-1.757.146-3.517.216-5.275l.248-5.278.126-2.639.316-2.63 1.328-10.522.958-5.227 1.143-5.189c3.264-13.795 8.45-27.12 15.156-39.538 6.69-12.435 14.836-23.98 23.887-34.626 9.075-10.637 19.085-20.345 29.59-29.36 21.068-17.991 44.177-33.087 67.996-46.497 23.836-13.427 48.498-25.084 73.438-35.862 24.95-10.768 50.278-20.471 75.698-29.75 50.836-18.567 102.269-35.005 152.792-53.153 25.211-9.136 50.323-18.55 74.19-29.976 11.884-5.744 23.499-11.991 33.984-19.368 5.235-3.685 10.147-7.683 14.415-12.058 4.235-4.381 7.792-9.17 9.972-14.244 2.187-5.065 2.853-10.41 2.014-15.741-.906-5.293-3.238-10.537-6.766-15.344-.78-1.24-1.863-2.355-2.774-3.546-.48-.583-.937-1.18-1.433-1.756l-1.617-1.66c-1.094-1.095-2.114-2.243-3.26-3.306l-3.54-3.127c-.595-.519-1.164-1.058-1.78-1.562l-1.899-1.46-3.794-2.93c-2.598-1.892-5.327-3.657-7.982-5.496-10.933-7.044-22.74-13.042-34.767-18.582-12.008-5.614-24.474-10.397-36.94-15.143-25.087-9.183-50.748-17.035-76.593-24.276-25.857-7.232-51.962-13.678-78.152-19.794C263.3 64.836 210.489 54.182 157.462 44.65 104.452 35.02 51.26 26.28-2 17.89L-1.738 16z" fill="#87E800" mask="url(#f)"/>
    </g>
    <g transform="translate(124 -77)">
      <mask id="h" fill="#fff">
        <use xlink:href="#g"/>
      </mask>
      <path id="line-three" d="M.426 0c86.952 10.542 173.762 22.401 260.363 35.846 86.583 13.522 172.956 28.72 258.824 46.884 42.908 9.186 85.73 18.922 128.288 29.98 42.526 11.168 84.806 23.544 126.516 38.135 20.77 7.577 41.545 15.224 61.853 24.37 20.331 9.036 40.445 18.875 59.692 30.894 4.735 3.17 9.542 6.193 14.212 9.5l6.909 5.177 3.451 2.593c1.131.901 2.218 1.885 3.33 2.825l6.62 5.72c2.161 1.976 4.196 4.172 6.295 6.256l3.118 3.169c.989 1.126 1.94 2.31 2.907 3.468l2.887 3.494c.96 1.17 1.944 2.306 2.77 3.629 7.27 9.772 13.032 21.634 15.338 34.642.359 3.277.805 6.557.952 9.855.09 3.311-.077 6.63-.444 9.928-.777 6.593-2.53 13.034-5.024 19-5.024 11.972-12.588 22.013-20.8 30.693-8.288 8.647-17.324 16.074-26.654 22.781-18.687 13.393-38.46 24.194-58.455 34.1-20.03 9.843-40.37 18.675-60.833 27.014a1808.87 1808.87 0 0 1-61.703 23.75c-82.638 30.086-165.867 57.082-247.687 87.373-40.92 15.084-81.46 31-121.353 48.177-39.882 17.185-79.031 35.885-116.742 56.858-37.657 21.015-73.83 44.56-106.485 71.958-32.496 27.425-61.476 59.074-81.67 95.68-10.08 18.263-17.92 37.666-23.032 57.807l-1.789 7.583-1.52 7.644-2.174 15.465-.535 3.87-.234 3.913-.478 7.826c-.145 2.61-.362 5.216-.452 7.832l.096 7.867c-.189 10.496.932 20.994 1.768 31.5l2.285 15.691.568 3.923c.232 1.304.53 2.598.793 3.897l1.618 7.787 1.616 7.789c.54 2.598 1.338 5.144 1.993 7.719 1.405 5.129 2.685 10.294 4.19 15.4 3.318 10.129 6.39 20.348 10.42 30.265 3.589 10.074 8.14 19.788 12.374 29.63 2.252 4.86 4.707 9.635 7.051 14.462l3.553 7.223 3.854 7.077 7.753 14.137 8.336 13.822 4.188 6.9 4.45 6.743 8.918 13.479 9.428 13.142 4.725 6.568 4.967 6.39 9.93 12.788 10.404 12.414 5.204 6.209c1.766 2.043 3.612 4.018 5.412 6.03l10.869 12.03c3.676 3.956 7.512 7.77 11.261 11.665 3.785 3.859 7.474 7.815 11.447 11.487l11.729 11.209c3.855 3.799 8.04 7.236 12.041 10.872 4.08 3.554 8.019 7.27 12.212 10.687l12.531 10.32c4.128 3.505 8.453 6.753 12.764 10.025l12.935 9.814 13.29 9.32 6.648 4.662c2.241 1.516 4.541 2.944 6.805 4.422 36.237 23.646 74.687 44.123 115.243 59.26 5.073 1.866 10.112 3.855 15.219 5.627l15.46 4.914c2.581.803 5.145 1.676 7.742 2.42l7.843 2.061 15.687 4.111 15.872 3.322c2.649.532 5.282 1.149 7.944 1.616l8.008 1.258c5.347.8 10.67 1.769 16.035 2.43l16.13 1.715c21.54 1.836 43.224 2.691 64.859 1.51l8.116-.31c2.703-.162 5.399-.436 8.1-.65 5.395-.473 10.801-.865 16.192-1.405 10.742-1.438 21.529-2.608 32.186-4.67 10.72-1.68 21.299-4.123 31.91-6.409 5.295-1.188 10.525-2.655 15.792-3.97l7.89-2.027 7.817-2.293c20.938-5.832 41.39-13.324 61.677-21.156 20.233-8.012 40.097-16.952 59.713-26.42 4.895-2.386 9.733-4.894 14.594-7.348 4.867-2.448 9.715-4.935 14.489-7.561l14.393-7.753 14.227-8.06c75.712-43.39 146.696-94.737 215.524-148.622 34.474-26.905 68.488-54.433 102.58-81.919 34.055-27.54 68.149-55.099 103.066-81.743 35.008-26.51 70.675-52.406 108.796-74.977 19.069-11.25 38.76-21.66 59.42-30.294 20.652-8.564 42.323-15.54 65.06-18.548l8.566-.86 4.286-.416 4.327-.09 8.664-.165c2.889.07 5.788.343 8.682.514 5.811.162 11.543 1.384 17.305 2.252 2.887.418 5.672 1.368 8.515 2.037l4.241 1.108 2.123.558 2.06.752c5.473 2.05 11.075 3.832 16.239 6.588 2.615 1.288 5.282 2.5 7.859 3.868 2.512 1.478 5.052 2.914 7.536 4.432 9.877 6.183 18.978 13.466 27.27 21.472 16.6 16.04 30.067 34.75 41.222 54.458 11.065 19.785 19.926 40.603 27.044 61.894 14.215 42.625 21.955 86.965 25.13 131.445 3.124 44.515 1.52 89.29-4.402 133.547-6.09 44.216-16.487 88.034-32.687 129.993-16.092 41.915-37.842 82.221-67.029 117.368-7.283 8.765-14.943 17.3-23.292 25.133l-12.526 11.743-13.286 10.85-3.325 2.709c-1.126.88-2.316 1.668-3.467 2.507l-6.979 4.961-6.983 4.954c-2.329 1.65-4.815 3.045-7.216 4.576-4.864 2.954-9.64 6.085-14.584 8.887l-15.013 8.078c-40.491 20.624-83.818 34.387-127.603 43.428-43.81 9.318-88.2 13.882-132.463 16.384-44.297 2.474-88.542 2.24-132.633.777-88.204-3.047-175.76-11.546-262.947-20.849l-65.34-7.14c-21.764-2.381-43.732-4.98-65.514-7.844-43.62-5.733-87.047-12.326-130.296-18.863-43.256-6.459-86.35-13.005-129.318-17.321-42.913-4.274-85.873-6.24-127.487-1.495-20.773 2.414-41.135 6.652-60.546 13.313-19.381 6.712-37.73 15.924-54.593 27.478-4.172 2.96-8.453 5.757-12.374 9.08-4.007 3.2-8.058 6.34-11.894 9.799-7.704 6.885-15.119 14.238-22.21 21.903-14.143 15.363-26.987 32.05-37.627 49.65-5.264 8.814-9.934 17.873-13.68 27.057-3.7 9.17-6.434 18.525-7.464 27.476-1.017 8.946-.284 17.37 2.742 24.263 1.422 3.538 3.55 6.508 5.912 9.254 1.363 1.229 2.512 2.65 4.151 3.693.788.55 1.451 1.206 2.314 1.704l2.594 1.503c7.012 4.021 16.226 6.307 25.848 7.65 9.677 1.332 19.926 1.673 30.32 1.39 20.811-.53 42.126-3.033 63.427-6.215 42.65-6.433 85.452-15.32 128.335-23.966 42.892-8.726 85.924-17.453 129.165-25.33 86.477-15.72 173.914-27.966 261.99-33.162 88.028-5.29 176.723-3.213 264.284 8.491 21.906 2.79 43.672 6.58 65.384 10.576 10.81 2.244 21.671 4.233 32.419 6.771l16.146 3.67 16.063 4.024c2.672.687 5.362 1.31 8.019 2.05l7.96 2.288 15.908 4.58 15.908 4.578c2.644.78 5.311 1.493 7.94 2.33l7.84 2.642 31.355 10.575c5.256 1.671 10.386 3.704 15.526 5.7l15.428 5.96c20.724 7.56 40.706 16.924 60.96 25.586l29.762 14.354c4.928 2.456 9.955 4.713 14.803 7.324l14.566 7.781 14.564 7.782 7.277 3.892 7.134 4.152 28.522 16.609c18.643 11.676 37.412 23.147 55.46 35.712 36.367 24.7 71.452 51.225 105.133 79.382 33.645 28.205 65.865 58.038 96.853 89.04l-2.16 2.218a1544.633 1544.633 0 0 0-99.05-85.91c-34.211-27.168-69.792-52.541-106.416-76.205-18.178-12.053-37.043-23.003-55.757-34.15l-28.606-15.797-7.149-3.952-7.285-3.682-14.576-7.37-14.566-7.366c-4.849-2.472-9.868-4.592-14.794-6.904l-29.664-13.597c-20.163-8.16-40.04-17.022-60.615-24.072-81.564-30.128-166.603-50.262-252.85-60.205-86.248-10.141-173.458-10.679-260.134-4.501-86.732 6.183-172.892 19.431-258.501 35.98-42.833 8.202-85.548 17.27-128.38 26.391-42.865 9.045-85.757 18.383-129.644 25.418-21.955 3.471-44.186 6.345-67.15 7.151-11.476.4-23.19.18-35.222-1.35-11.982-1.615-24.532-4.31-36.723-10.979l-4.51-2.611c-1.49-.894-2.9-2.056-4.34-3.094-2.938-2.004-5.496-4.656-8.096-7.195-4.908-5.403-9.09-11.554-11.86-18.155-2.807-6.565-4.696-13.507-5.36-20.289-.702-6.771-.728-13.486.039-19.865 1.415-12.828 4.951-24.677 9.343-35.82 4.456-11.123 9.81-21.598 15.71-31.616 11.904-19.958 25.824-38.21 41.217-55.161 7.716-8.458 15.828-16.578 24.428-24.305 4.288-3.889 8.863-7.494 13.401-11.136 4.444-3.76 9.305-7.006 14.058-10.387 19.2-13.264 40.293-23.927 62.263-31.613 21.999-7.637 44.736-12.412 67.421-15.126 22.706-2.735 45.392-3.437 67.85-2.985 22.464.462 44.741 2.017 66.82 4.238 44.165 4.452 87.703 10.921 131.02 17.543 43.313 6.637 86.453 13.282 129.64 19.051a3807.491 3807.491 0 0 0 64.868 8.027l65.188 7.469c86.87 9.728 173.72 18.597 260.562 22.045 43.4 1.668 86.81 2.223 129.968.082 43.125-2.148 86.144-6.304 128.079-14.945 41.958-8.36 82.904-21.167 120.62-40.058l13.956-7.389c4.596-2.56 8.995-5.423 13.505-8.114 2.22-1.397 4.536-2.658 6.682-4.16l6.43-4.513 6.44-4.506c1.063-.762 2.168-1.475 3.201-2.278l3.052-2.461 12.227-9.832 11.517-10.622c7.693-7.069 14.751-14.814 21.523-22.822 27.126-32.073 47.953-69.66 63.549-109.292 15.645-39.673 26.173-81.51 32.576-123.948 6.232-42.48 8.326-85.668 5.853-128.573-2.401-42.875-9.178-85.63-22.058-126.354-6.442-20.343-14.512-40.115-24.534-58.728-10.097-18.532-22.25-35.892-36.942-50.548-7.34-7.32-15.33-13.913-23.932-19.488l-6.555-3.996c-2.236-1.229-4.552-2.306-6.821-3.473-4.467-2.516-9.328-4.088-14.06-5.981l-1.782-.695-1.843-.504-3.687-1.017c-2.476-.615-4.88-1.521-7.41-1.911-5.046-.806-10.037-2.015-15.195-2.214-2.564-.185-5.12-.485-7.691-.59l-7.758.033-3.88.007-3.888.326-7.784.65c-20.765 2.413-41.269 8.6-61.12 16.485-19.871 7.947-39.141 17.737-57.938 28.444-37.634 21.444-73.318 46.626-108.399 72.56-70.07 52.13-137.55 108.08-207.104 161.473-34.743 26.747-70.04 52.826-106.036 77.952-18.088 12.432-36.248 24.78-54.828 36.5-9.201 5.996-18.648 11.613-27.973 17.413l-14.187 8.391a495.235 495.235 0 0 1-14.274 8.244c-19.032 11.001-38.612 21.045-58.277 30.895-19.796 9.602-39.859 18.68-60.327 26.825-5.075 2.136-10.293 3.923-15.43 5.901-5.161 1.93-10.296 3.923-15.542 5.617l-15.656 5.305-15.823 4.811-7.923 2.371-8.004 2.102c-5.344 1.366-10.65 2.885-16.027 4.125-10.776 2.38-21.524 4.922-32.429 6.694-10.835 2.164-21.828 3.388-32.764 4.96-5.492.61-11.003 1.067-16.505 1.607-2.752.248-5.502.553-8.256.749l-8.288.408c-22.084 1.426-44.27.796-66.344-.857l-16.542-1.589c-5.501-.622-10.964-1.552-16.45-2.316l-8.223-1.206c-2.734-.45-5.44-1.051-8.16-1.57l-16.304-3.236-16.12-4.045-8.058-2.032c-2.67-.734-5.3-1.596-7.954-2.389l-15.893-4.85c-5.26-1.73-10.443-3.675-15.669-5.506-41.764-14.847-81.409-35.162-118.846-58.759-2.342-1.474-4.717-2.9-7.03-4.416l-6.872-4.656-13.746-9.32-13.39-9.817c-4.472-3.267-8.96-6.51-13.248-10.015l-13.017-10.315c-4.355-3.422-8.46-7.146-12.702-10.705-4.166-3.646-8.517-7.091-12.534-10.903l-12.23-11.258c-4.138-3.688-7.995-7.667-11.95-11.552-3.917-3.917-7.918-7.755-11.768-11.742l-11.38-12.133c-1.887-2.033-3.815-4.024-5.667-6.087l-5.465-6.276-10.928-12.557-10.459-12.959-5.228-6.482-4.993-6.67-9.963-13.368-9.46-13.74-4.721-6.882-4.464-7.053-8.886-14.147-8.31-14.51-4.134-7.272-3.836-7.443c-2.53-4.976-5.171-9.896-7.611-14.924-4.619-10.183-9.534-20.237-13.505-30.733-4.402-10.31-7.856-21.006-11.535-31.626-1.673-5.366-3.116-10.816-4.68-16.224-.737-2.716-1.612-5.395-2.229-8.15l-1.85-8.262-1.844-8.267-.901-4.14-.677-4.191L5.2 977.907c-1.095-11.302-2.44-22.593-2.427-34.023l-.22-8.553c.052-2.854.238-5.713.351-8.57l.403-8.574.204-4.287.514-4.274 2.156-17.091 1.556-8.492 1.857-8.43c5.3-22.41 13.724-44.058 24.614-64.23 10.866-20.201 24.095-38.958 38.795-56.251 14.739-17.28 30.996-33.052 48.056-47.697 34.218-29.227 71.748-53.751 110.433-75.535 38.712-21.813 78.765-40.75 119.27-58.26 40.522-17.492 81.656-33.256 122.94-48.33 82.564-30.162 166.095-56.866 248.15-86.349 40.945-14.842 81.728-30.136 120.49-48.697 19.301-9.33 38.166-19.48 55.195-31.463 8.501-5.986 16.479-12.481 23.41-19.589 6.878-7.117 12.656-14.896 16.196-23.14 3.552-8.228 4.634-16.91 3.27-25.572-1.471-8.597-5.258-17.117-10.987-24.927-1.268-2.014-3.026-3.825-4.505-5.76-.78-.947-1.523-1.915-2.329-2.853l-2.626-2.696c-1.776-1.78-3.433-3.644-5.295-5.372l-5.75-5.08c-.965-.842-1.889-1.717-2.888-2.536l-3.085-2.373-6.163-4.76c-4.218-3.073-8.651-5.94-12.962-8.928-17.757-11.443-36.932-21.187-56.465-30.187-19.502-9.12-39.748-16.89-59.994-24.6-40.744-14.919-82.42-27.674-124.394-39.438-41.994-11.748-84.391-22.22-126.928-32.155-85.17-19.499-170.94-36.807-257.06-52.292C172.887 30.898 86.498 16.701 0 3.068L.426 0z" fill="#004EFF" mask="url(#h)"/>
    </g>
    <g transform="translate(124 -2)">
      <mask id="j" fill="#fff">
        <use xlink:href="#i"/>
      </mask>
      <path d="M.426-75c86.952 10.542 173.762 22.401 260.363 35.846 86.583 13.522 172.956 28.72 258.824 46.884 42.908 9.186 85.73 18.922 128.288 29.98 42.526 11.168 84.806 23.544 126.516 38.135 20.77 7.577 41.545 15.224 61.853 24.37 20.331 9.036 40.445 18.875 59.692 30.894 4.735 3.17 9.542 6.193 14.212 9.5l6.909 5.177 3.451 2.593c1.131.901 2.218 1.885 3.33 2.825l6.62 5.72c2.161 1.976 4.196 4.172 6.295 6.256l3.118 3.169c.989 1.126 1.94 2.31 2.907 3.468l2.887 3.494c.96 1.17 1.944 2.306 2.77 3.629 7.27 9.772 13.032 21.634 15.338 34.642.359 3.277.805 6.557.952 9.855.09 3.311-.077 6.63-.444 9.928-.777 6.593-2.53 13.034-5.024 19-5.024 11.972-12.588 22.013-20.8 30.693-8.288 8.647-17.324 16.074-26.654 22.781-18.687 13.393-38.46 24.194-58.455 34.1-20.03 9.843-40.37 18.675-60.833 27.014a1808.87 1808.87 0 0 1-61.703 23.75c-82.638 30.086-165.867 57.082-247.687 87.373-40.92 15.084-81.46 31-121.353 48.177-39.882 17.185-79.031 35.885-116.742 56.858-37.657 21.015-73.83 44.56-106.485 71.958-32.496 27.425-61.476 59.074-81.67 95.68-10.08 18.263-17.92 37.666-23.032 57.807l-1.789 7.583-1.52 7.644-2.174 15.465-.535 3.87-.234 3.913-.478 7.826c-.145 2.61-.362 5.216-.452 7.832l.096 7.867c-.189 10.496.932 20.994 1.768 31.5l2.285 15.691.568 3.923c.232 1.304.53 2.598.793 3.897l1.618 7.787 1.616 7.789c.54 2.598 1.338 5.144 1.993 7.719 1.405 5.129 2.685 10.294 4.19 15.4 3.318 10.129 6.39 20.348 10.42 30.265 3.589 10.074 8.14 19.788 12.374 29.63 2.252 4.86 4.707 9.635 7.051 14.462l3.553 7.223 3.854 7.077 7.753 14.137 8.336 13.822 4.188 6.9 4.45 6.743 8.918 13.479 9.428 13.142 4.725 6.568 4.967 6.39 9.93 12.788 10.404 12.414 5.204 6.209c1.766 2.043 3.612 4.018 5.412 6.03l10.869 12.03c3.676 3.956 7.512 7.77 11.261 11.665 3.785 3.859 7.474 7.815 11.447 11.487l11.729 11.209c3.855 3.799 8.04 7.236 12.041 10.872 4.08 3.554 8.019 7.27 12.212 10.687l12.531 10.32c4.128 3.505 8.453 6.753 12.764 10.025l12.935 9.814 13.29 9.32 6.648 4.662c2.241 1.516 4.541 2.944 6.805 4.422 36.237 23.646 74.687 44.123 115.243 59.26 5.073 1.866 10.112 3.855 15.219 5.627l15.46 4.914c2.581.803 5.145 1.676 7.742 2.42l7.843 2.061 15.687 4.111 15.872 3.322c2.649.532 5.282 1.149 7.944 1.616l8.008 1.258c5.347.8 10.67 1.769 16.035 2.43l16.13 1.715c21.54 1.836 43.224 2.691 64.859 1.51l8.116-.31c2.703-.162 5.399-.436 8.1-.65 5.395-.473 10.801-.865 16.192-1.405 10.742-1.438 21.529-2.608 32.186-4.67 10.72-1.68 21.299-4.123 31.91-6.409 5.295-1.188 10.525-2.655 15.792-3.97l7.89-2.027 7.817-2.293c20.938-5.832 41.39-13.324 61.677-21.156 20.233-8.012 40.097-16.952 59.713-26.42 4.895-2.386 9.733-4.894 14.594-7.348 4.867-2.448 9.715-4.935 14.489-7.561l14.393-7.753 14.227-8.06c75.712-43.39 146.696-94.737 215.524-148.622 34.474-26.905 68.488-54.433 102.58-81.919 34.055-27.54 68.149-55.099 103.066-81.743 35.008-26.51 70.675-52.406 108.796-74.977 19.069-11.25 38.76-21.66 59.42-30.294 20.652-8.564 42.323-15.54 65.06-18.548l8.566-.86 4.286-.416 4.327-.09 8.664-.165c2.889.07 5.788.343 8.682.514 5.811.162 11.543 1.384 17.305 2.252 2.887.418 5.672 1.368 8.515 2.037l4.241 1.108 2.123.558 2.06.752c5.473 2.05 11.075 3.832 16.239 6.588 2.615 1.288 5.282 2.5 7.859 3.868 2.512 1.478 5.052 2.914 7.536 4.432 9.877 6.183 18.978 13.466 27.27 21.472 16.6 16.04 30.067 34.75 41.222 54.458 11.065 19.785 19.926 40.603 27.044 61.894 14.215 42.625 21.955 86.965 25.13 131.445 3.124 44.515 1.52 89.29-4.402 133.547-6.09 44.216-16.487 88.034-32.687 129.993-16.092 41.915-37.842 82.221-67.029 117.368-7.283 8.765-14.943 17.3-23.292 25.133l-12.526 11.743-13.286 10.85-3.325 2.709c-1.126.88-2.316 1.668-3.467 2.507l-6.979 4.961-6.983 4.954c-2.329 1.65-4.815 3.045-7.216 4.576-4.864 2.954-9.64 6.085-14.584 8.887l-15.013 8.078c-40.491 20.624-83.818 34.387-127.603 43.428-43.81 9.318-88.2 13.882-132.463 16.384-44.297 2.474-88.542 2.24-132.633.777-88.204-3.047-175.76-11.546-262.947-20.849l-65.34-7.14c-21.764-2.381-43.732-4.98-65.514-7.844-43.62-5.733-87.047-12.326-130.296-18.863-43.256-6.459-86.35-13.005-129.318-17.321-42.913-4.274-85.873-6.24-127.487-1.495-20.773 2.414-41.135 6.652-60.546 13.313-19.381 6.712-37.73 15.924-54.593 27.478-4.172 2.96-8.453 5.757-12.374 9.08-4.007 3.2-8.058 6.34-11.894 9.799-7.704 6.885-15.119 14.238-22.21 21.903-14.143 15.363-26.987 32.05-37.627 49.65-5.264 8.814-9.934 17.873-13.68 27.057-3.7 9.17-6.434 18.525-7.464 27.476-1.017 8.946-.284 17.37 2.742 24.263 1.422 3.538 3.55 6.508 5.912 9.254 1.363 1.229 2.512 2.65 4.151 3.693.788.55 1.451 1.206 2.314 1.704l2.594 1.503c7.012 4.021 16.226 6.307 25.848 7.65 9.677 1.332 19.926 1.673 30.32 1.39 20.811-.53 42.126-3.033 63.427-6.215 42.65-6.433 85.452-15.32 128.335-23.966 42.892-8.726 85.924-17.453 129.165-25.33 86.477-15.72 173.914-27.966 261.99-33.162 88.028-5.29 176.723-3.213 264.284 8.491 21.906 2.79 43.672 6.58 65.384 10.576 10.81 2.244 21.671 4.233 32.419 6.771l16.146 3.67 16.063 4.024c2.672.687 5.362 1.31 8.019 2.05l7.96 2.288 15.908 4.58 15.908 4.578c2.644.78 5.311 1.493 7.94 2.33l7.84 2.642 31.355 10.575c5.256 1.671 10.386 3.704 15.526 5.7l15.428 5.96c20.724 7.56 40.706 16.924 60.96 25.586l29.762 14.354c4.928 2.456 9.955 4.713 14.803 7.324l14.566 7.781 14.564 7.782 7.277 3.892 7.134 4.152 28.522 16.609c18.643 11.676 37.412 23.147 55.46 35.712 36.367 24.7 71.452 51.225 105.133 79.382 33.645 28.205 65.865 58.038 96.853 89.04l-2.16 2.218a1544.633 1544.633 0 0 0-99.05-85.91c-34.211-27.168-69.792-52.541-106.416-76.205-18.178-12.053-37.043-23.003-55.757-34.15l-28.606-15.797-7.149-3.952-7.285-3.682-14.576-7.37-14.566-7.366c-4.849-2.472-9.868-4.592-14.794-6.904l-29.664-13.597c-20.163-8.16-40.04-17.022-60.615-24.072-81.564-30.128-166.603-50.262-252.85-60.205-86.248-10.141-173.458-10.679-260.134-4.501-86.732 6.183-172.892 19.431-258.501 35.98-42.833 8.202-85.548 17.27-128.38 26.391-42.865 9.045-85.757 18.383-129.644 25.418-21.955 3.471-44.186 6.345-67.15 7.151-11.476.4-23.19.18-35.222-1.35-11.982-1.615-24.532-4.31-36.723-10.979l-4.51-2.611c-1.49-.894-2.9-2.056-4.34-3.094-2.938-2.004-5.496-4.656-8.096-7.195-4.908-5.403-9.09-11.554-11.86-18.155-2.807-6.565-4.696-13.507-5.36-20.289-.702-6.771-.728-13.486.039-19.865 1.415-12.828 4.951-24.677 9.343-35.82 4.456-11.123 9.81-21.598 15.71-31.616 11.904-19.958 25.824-38.21 41.217-55.161 7.716-8.458 15.828-16.578 24.428-24.305 4.288-3.889 8.863-7.494 13.401-11.136 4.444-3.76 9.305-7.006 14.058-10.387 19.2-13.264 40.293-23.927 62.263-31.613 21.999-7.637 44.736-12.412 67.421-15.126 22.706-2.735 45.392-3.437 67.85-2.985 22.464.462 44.741 2.017 66.82 4.238 44.165 4.452 87.703 10.921 131.02 17.543 43.313 6.637 86.453 13.282 129.64 19.051a3807.491 3807.491 0 0 0 64.868 8.027l65.188 7.469c86.87 9.728 173.72 18.597 260.562 22.045 43.4 1.668 86.81 2.223 129.968.082 43.125-2.148 86.144-6.304 128.079-14.945 41.958-8.36 82.904-21.167 120.62-40.058l13.956-7.389c4.596-2.56 8.995-5.423 13.505-8.114 2.22-1.397 4.536-2.658 6.682-4.16l6.43-4.513 6.44-4.506c1.063-.762 2.168-1.475 3.201-2.278l3.052-2.461 12.227-9.832 11.517-10.622c7.693-7.069 14.751-14.814 21.523-22.822 27.126-32.073 47.953-69.66 63.549-109.292 15.645-39.673 26.173-81.51 32.576-123.948 6.232-42.48 8.326-85.668 5.853-128.573-2.401-42.875-9.178-85.63-22.058-126.354-6.442-20.343-14.512-40.115-24.534-58.728-10.097-18.532-22.25-35.892-36.942-50.548-7.34-7.32-15.33-13.913-23.932-19.488l-6.555-3.996c-2.236-1.229-4.552-2.306-6.821-3.473-4.467-2.516-9.328-4.088-14.06-5.981l-1.782-.695-1.843-.504-3.687-1.017c-2.476-.615-4.88-1.521-7.41-1.911-5.046-.806-10.037-2.015-15.195-2.214-2.564-.185-5.12-.485-7.691-.59l-7.758.033-3.88.007-3.888.326-7.784.65c-20.765 2.413-41.269 8.6-61.12 16.485-19.871 7.947-39.141 17.737-57.938 28.444-37.634 21.444-73.318 46.626-108.399 72.56-70.07 52.13-137.55 108.08-207.104 161.473-34.743 26.747-70.04 52.826-106.036 77.952-18.088 12.432-36.248 24.78-54.828 36.5-9.201 5.996-18.648 11.613-27.973 17.413l-14.187 8.391a495.235 495.235 0 0 1-14.274 8.244c-19.032 11.001-38.612 21.045-58.277 30.895-19.796 9.602-39.859 18.68-60.327 26.825-5.075 2.136-10.293 3.923-15.43 5.901-5.161 1.93-10.296 3.923-15.542 5.617l-15.656 5.305-15.823 4.811-7.923 2.371-8.004 2.102c-5.344 1.366-10.65 2.885-16.027 4.125-10.776 2.38-21.524 4.922-32.429 6.694-10.835 2.164-21.828 3.388-32.764 4.96-5.492.61-11.003 1.067-16.505 1.607-2.752.248-5.502.553-8.256.749l-8.288.408c-22.084 1.426-44.27.796-66.344-.857l-16.542-1.589c-5.501-.622-10.964-1.552-16.45-2.316l-8.223-1.206c-2.734-.45-5.44-1.051-8.16-1.57l-16.304-3.236-16.12-4.045-8.058-2.032c-2.67-.734-5.3-1.596-7.954-2.389l-15.893-4.85c-5.26-1.73-10.443-3.675-15.669-5.506-41.764-14.847-81.409-35.162-118.846-58.759-2.342-1.474-4.717-2.9-7.03-4.416l-6.872-4.656-13.746-9.32-13.39-9.817c-4.472-3.267-8.96-6.51-13.248-10.015l-13.017-10.315c-4.355-3.422-8.46-7.146-12.702-10.705-4.166-3.646-8.517-7.091-12.534-10.903l-12.23-11.258c-4.138-3.688-7.995-7.667-11.95-11.552-3.917-3.917-7.918-7.755-11.768-11.742l-11.38-12.133c-1.887-2.033-3.815-4.024-5.667-6.087l-5.465-6.276-10.928-12.557-10.459-12.959-5.228-6.482-4.993-6.67-9.963-13.368-9.46-13.74-4.721-6.882-4.464-7.053-8.886-14.147-8.31-14.51-4.134-7.272-3.836-7.443c-2.53-4.976-5.171-9.896-7.611-14.924-4.619-10.183-9.534-20.237-13.505-30.733-4.402-10.31-7.856-21.006-11.535-31.626-1.673-5.366-3.116-10.816-4.68-16.224-.737-2.716-1.612-5.395-2.229-8.15l-1.85-8.262-1.844-8.267-.901-4.14-.677-4.191L5.2 902.907c-1.095-11.302-2.44-22.593-2.427-34.023l-.22-8.553c.052-2.854.238-5.713.351-8.57l.403-8.574.204-4.287.514-4.274 2.156-17.091 1.556-8.492 1.857-8.43c5.3-22.41 13.724-44.058 24.614-64.23 10.866-20.201 24.095-38.958 38.795-56.251 14.739-17.28 30.996-33.052 48.056-47.697 34.218-29.227 71.748-53.751 110.433-75.535 38.712-21.813 78.765-40.75 119.27-58.26 40.522-17.492 81.656-33.256 122.94-48.33 82.564-30.162 166.095-56.866 248.15-86.349 40.945-14.842 81.728-30.136 120.49-48.697 19.301-9.33 38.166-19.48 55.195-31.463 8.501-5.986 16.479-12.481 23.41-19.589 6.878-7.117 12.656-14.896 16.196-23.14 3.552-8.228 4.634-16.91 3.27-25.572-1.471-8.597-5.258-17.117-10.987-24.927-1.268-2.014-3.026-3.825-4.505-5.76-.78-.947-1.523-1.915-2.329-2.853l-2.626-2.696c-1.776-1.78-3.433-3.644-5.295-5.372l-5.75-5.08c-.965-.842-1.889-1.717-2.888-2.536l-3.085-2.373-6.163-4.76c-4.218-3.073-8.651-5.94-12.962-8.928-17.757-11.443-36.932-21.187-56.465-30.187-19.502-9.12-39.748-16.89-59.994-24.6C726.62 80.51 684.944 67.755 642.97 55.99c-41.994-11.748-84.391-22.22-126.928-32.155-85.17-19.499-170.94-36.807-257.06-52.292C172.887-44.102 86.498-58.299 0-71.932L.426-75z" fill="#004EFF" mask="url(#j)"/>
    </g>
  </g>
</svg>