<svg fill="#fff" xmlns="http://www.w3.org/2000/svg" viewBox="0 0 1000 1000">
  <style>
    .st0,.st1{fill:none}.st1{stroke:#fff;stroke-width:0;stroke-linecap:round;stroke-linejoin:round}
  </style>
  <path class="st0" d="M707.3 544.6c0-.8 0-1.6-.1-2.5 0-1.7-.1-3.5-.2-5.2 0-.9-.1-1.8-.1-2.7-.1-1.7-.2-3.4-.2-5.2 0-.9-.1-1.8-.1-2.6-.1-1.9-.2-3.7-.3-5.6 0-.7-.1-1.4-.1-2.2-.4-5.2-.8-10.3-1.3-15.5-.1-.8-.2-1.6-.2-2.3l-.6-5.4c-.1-.9-.2-1.9-.3-2.8-.2-1.7-.4-3.3-.6-5-.1-1-.3-2-.4-3-.2-1.7-.5-3.3-.7-5-.1-.9-.3-1.9-.4-2.8-.3-1.9-.6-3.7-.9-5.6-.1-.7-.2-1.5-.4-2.2-.4-2.6-.9-5.2-1.3-7.8-.1-.5-.2-.9-.3-1.4-.4-2.1-.8-4.3-1.2-6.4-.2-.9-.4-1.8-.6-2.8-.3-1.7-.7-3.4-1-5.1-.2-1-.4-2-.7-3.1-.3-1.6-.7-3.2-1.1-4.8-.2-1-.5-2.1-.7-3.1-.4-1.6-.8-3.3-1.2-4.9-.2-1-.5-2-.7-3-.5-1.9-.9-3.8-1.4-5.7-.2-.7-.4-1.4-.6-2.2-.7-2.6-1.4-5.2-2.1-7.7-.2-.7-.4-1.5-.6-2.2-.5-1.9-1.1-3.7-1.6-5.6l-.9-3c-.5-1.6-1-3.2-1.5-4.9-.3-1.1-.7-2.1-1-3.2-.5-1.6-1-3.2-1.5-4.7-.3-1.1-.7-2.1-1-3.2-.5-1.6-1.1-3.3-1.7-4.9-.3-1-.7-1.9-1-2.9-.7-2-1.4-4.1-2.2-6.1-.2-.6-.4-1.1-.6-1.7-.9-2.6-1.9-5.2-2.9-7.7-.3-.8-.6-1.7-1-2.5-.7-1.8-1.4-3.5-2.1-5.3l-1.2-3c-.6-1.6-1.3-3.2-2-4.8-.4-1-.9-2.1-1.3-3.1-.7-1.6-1.3-3.2-2-4.8-.4-1-.9-2-1.3-3-.8-1.7-1.5-3.5-2.3-5.2-.4-.9-.8-1.7-1.2-2.6-1.2-2.6-2.3-5.2-3.6-7.8-1.4-3.1-2.9-6.1-4.3-9.2l-.6-1.2c-22.8-47.9-45.6-89.5-68-125.1h-301v430.6h69.1L386 747.7l37.4-133.8h67.5L423 816.4h91.2V613.6h66.3v202.5h48.1c21.5-31 38.8-65 51.7-101.2.1-.2.1-.3.2-.5.8-2.3 1.6-4.5 2.3-6.8 0-.1.1-.3.1-.4 1.8-5.3 3.5-10.7 5-16.1 1.3-4.3 2.5-8.7 3.6-13.1.1-.3.2-.7.3-1 .5-2.1 1.1-4.1 1.6-6.2.1-.4.2-.9.3-1.3.5-2.1 1-4.1 1.5-6.2.1-.4.2-.7.3-1.1.5-2.4 1.1-4.8 1.6-7.2l2.9-15.1c.1-.4.1-.7.2-1.1.4-2.1.7-4.1 1-6.2l.3-1.8c.3-1.9.6-3.8.8-5.7.1-.6.2-1.3.3-1.9.3-1.9.5-3.9.8-5.9.1-.5.1-1.1.2-1.6.3-2.4.6-4.8.8-7.2v-.2c.3-2.6.5-5.2.8-7.8v-.5c.2-2.3.4-4.7.6-7 0-.6.1-1.3.1-1.9.1-1.9.3-3.7.4-5.6 0-.8.1-1.5.1-2.3l.3-5.4c0-.8.1-1.5.1-2.3.1-1.9.1-3.8.2-5.7 0-.7 0-1.3.1-2 .1-2.5.1-5 .1-7.5v-.1-7.8-1.6c.2-2.2.2-4.2.1-6.2zm-126.6 43.6h-66.3v-50.7h66.3v50.7z"/>
  <path class="st0" d="M346.7 816.1l-67.5-202.5v202.5z"/>
  <path d="M580.3 183C465.1.1 358.8-28.1 306.9 27.5c-124.4 133.3 1.6 221-159.3 537.9-169.4 333.7 77.8 440.7 180.4 427.5 133.3-17.2 236.1-83.5 300.8-176.9h283.5V183h-332zm127.1 377v.1c0 2.5-.1 5-.1 7.5 0 .7 0 1.3-.1 2-.1 1.9-.1 3.8-.2 5.7 0 .8-.1 1.5-.1 2.3l-.3 5.4c0 .8-.1 1.5-.1 2.3-.1 1.9-.2 3.7-.4 5.6 0 .6-.1 1.3-.1 1.9-.2 2.3-.4 4.7-.6 7v.5c-.2 2.6-.5 5.2-.8 7.8v.2c-.3 2.4-.5 4.8-.8 7.2-.1.5-.1 1.1-.2 1.6-.2 2-.5 3.9-.8 5.9-.1.6-.2 1.3-.3 1.9-.3 1.9-.6 3.8-.8 5.7l-.3 1.8c-.3 2.1-.7 4.2-1 6.2-.1.4-.1.7-.2 1.1l-2.9 15.1c-.5 2.4-1 4.8-1.6 7.2-.1.4-.2.7-.3 1.1-.5 2.1-1 4.1-1.5 6.2-.1.4-.2.9-.3 1.3-.5 2.1-1 4.2-1.6 6.2-.1.3-.2.7-.3 1-1.2 4.4-2.4 8.7-3.6 13.1-1.6 5.4-3.3 10.8-5 16.1 0 .1-.1.3-.1.4-.8 2.3-1.5 4.5-2.3 6.8-.1.2-.1.3-.2.5-12.8 36.2-30.2 70.2-51.7 101.2h-48.1V613.6h-66.3v202.5h-91.2l67.9-202.5h-67.5l-37.4 133.8-37.8-133.8h-69.1l67.5 202.5h-67.5V183h301c22.5 35.6 45.2 77.2 68 125.1l.6 1.2c1.4 3 2.9 6.1 4.3 9.2l3.6 7.8c.4.9.8 1.7 1.2 2.6.8 1.7 1.5 3.5 2.3 5.2.4 1 .9 2 1.3 3 .7 1.6 1.4 3.2 2 4.8.4 1 .9 2.1 1.3 3.1.7 1.6 1.3 3.2 2 4.8l1.2 3c.7 1.8 1.4 3.5 2.1 5.3.3.8.7 1.7 1 2.5 1 2.6 1.9 5.2 2.9 7.7.2.6.4 1.1.6 1.7.7 2 1.5 4.1 2.2 6.1.3 1 .7 1.9 1 2.9.6 1.6 1.1 3.3 1.7 4.9.4 1.1.7 2.1 1 3.2.5 1.6 1 3.2 1.5 4.7.3 1.1.7 2.1 1 3.2.5 1.6 1 3.2 1.5 4.9l.9 3c.5 1.9 1.1 3.7 1.6 5.6.2.7.4 1.5.6 2.2.7 2.6 1.4 5.2 2.1 7.7.2.7.4 1.4.6 2.2.5 1.9 1 3.8 1.4 5.7.2 1 .5 2 .7 3 .4 1.6.8 3.3 1.2 4.9.2 1 .5 2.1.7 3.1.4 1.6.7 3.2 1.1 4.8.2 1 .4 2 .7 3.1.4 1.7.7 3.4 1 5.1.2.9.4 1.8.6 2.8.4 2.1.8 4.3 1.2 6.4.1.5.2.9.3 1.4.5 2.6.9 5.2 1.3 7.8.1.7.2 1.5.4 2.2.3 1.9.6 3.7.9 5.6.1.9.3 1.9.4 2.8.2 1.7.5 3.3.7 5 .1 1 .3 2 .4 3 .2 1.7.4 3.3.6 5 .1.9.2 1.9.3 2.8l.6 5.4c.1.8.2 1.6.2 2.3.5 5.2 1 10.4 1.3 15.5.1.7.1 1.4.1 2.2.1 1.9.2 3.7.3 5.6 0 .9.1 1.8.1 2.6.1 1.7.2 3.4.2 5.2 0 .9.1 1.8.1 2.7.1 1.8.1 3.5.2 5.2 0 .8 0 1.6.1 2.5 0 2 .1 4 .1 6v1.6c-.1 2.9-.1 5.5-.2 8.1z"/>
  <path class="st1" d="M701.9 479.6c.2 1.7.5 3.3.7 5M695.8 445.5c.4 1.7.7 3.4 1 5.1M703 487.5c.2 1.7.4 3.3.6 5M697.4 453.3c.4 2.1.8 4.3 1.2 6.4M698.9 461.1c.5 2.6.9 5.2 1.3 7.8M700.6 471.2c.3 1.9.6 3.7.9 5.6M706.6 526.4c-.1-1.9-.2-3.7-.3-5.6M707 534.2c-.1-1.7-.2-3.4-.2-5.2M704 495.3l.6 5.4M691.5 426.6c-.5-1.9-.9-3.8-1.4-5.7M679.3 384.2c-.5-1.6-1.1-3.3-1.7-4.9M694.1 437.6c.4 1.6.7 3.2 1.1 4.8M673.9 368.5c-.9-2.6-1.9-5.2-2.9-7.7M676.6 376.4c-.7-2-1.4-4.1-2.2-6.1M682.8 395.3c.5 1.6 1 3.2 1.5 4.9M680.3 387.4c.5 1.6 1 3.2 1.5 4.7M707.3 542.1c0-1.7-.1-3.5-.2-5.2M692.2 429.6c.4 1.6.8 3.3 1.2 4.9M686.8 408.8c-.5-1.9-1.1-3.7-1.6-5.6M687.4 411c.7 2.6 1.4 5.2 2.1 7.7M697.3 655c-.5 2.4-1 4.8-1.6 7.2M695.5 663.3c-.5 2.1-1 4.1-1.5 6.2M701.4 632.5c-.3 2.1-.7 4.2-1 6.2M693.7 670.8c-.5 2.1-1 4.2-1.6 6.2"/>
  <path d="M514.4 537.5h66.3v50.7h-66.3z"/>
  <path class="st1" d="M702.5 625c-.3 1.9-.6 3.8-.8 5.7M670 358.3c-.7-1.8-1.4-3.5-2.1-5.3M683 707.6c-.8 2.3-1.5 4.5-2.3 6.8M706.7 583l.3-5.4M653.2 318.5c-1.4-3.1-2.9-6.1-4.3-9.2M707.3 567.6c.1-2.5.1-5 .1-7.5M707.4 552.2v7.8M707.4 550.6c0-2 0-4-.1-6M705.4 600.3c-.2 2.6-.5 5.2-.8 7.8M703.6 617.2c-.2 2-.5 3.9-.8 5.9M706.2 590.9c.1-1.9.3-3.7.4-5.6M704.6 608.4c-.3 2.4-.5 4.8-.8 7.2M706 592.8c-.2 2.3-.4 4.7-.6 7M707 575.2c.1-1.9.1-3.8.2-5.7M663.5 342c-.7-1.6-1.3-3.2-2-4.8M660.2 334.1c-.8-1.7-1.5-3.5-2.3-5.2M656.7 326.3c-1.2-2.6-2.3-5.2-3.6-7.8M666.8 349.9c-.6-1.6-1.3-3.2-2-4.8"/>
</svg>