<?xml version="1.0" encoding="utf-8"?>
<!-- Generator: Adobe Illustrator 22.1.0, SVG Export Plug-In . SVG Version: 6.00 Build 0)  -->
<svg version="1.1" id="Ebene_1" xmlns="http://www.w3.org/2000/svg" xmlns:xlink="http://www.w3.org/1999/xlink" x="0px" y="0px"
	 viewBox="0 0 1000 1000" style="enable-background:new 0 0 1000 1000;" xml:space="preserve">
<g>
	<g fill="#87E800">
		<path d="M149.6,541.6c11.8-4,19.8-6.7,27.9-9.4c6-2,11.9-4.4,18.1-5.7c2.5-0.5,5.5,1.5,8.2,2.3c-1.1,2.7-1.5,6.7-3.6,8
			c-10,6.3-20.1,12.7-30.9,17.7c-12.9,6-18.2,14.9-16.7,29.1c0.8,7.7-0.9,15.7-1.4,23.6c-0.7,11.2-7.5,13.9-17.2,12.1
			c-9.1-1.7-13.6-9.2-11.4-18.8c1.3-5.8,3.1-11.4,3.8-17.3c0.9-7.2-2.3-11.1-10.1-11.1c-7.5,0-11.2,2.9-10.9,10.5
			c0.8,17.8,1.9,35.6,2.1,53.4c0.1,6.1-1.1,13-4,18.2c-2,3.7-7.9,7.2-12.1,7.3c-3.5,0.1-9.1-4.4-10.2-7.9
			c-3.3-10.1-5.1-20.7-6.8-31.1c-0.9-5.4-0.1-11.1-0.4-16.6c-1.4-24.4-1.5-24.3-25.1-30.2c-4.6-1.1-9.1-3-13.2-5.2
			c-7.9-4.3-11-11.6-8.7-20.1c1.9-7,15.4-14.1,22.2-12.3c3,0.8,6,2.1,8.8,3.5c14.2,7.1,17.7,5.3,18.4-11.1
			c0.5-14.2,0.4-28.4,0.2-42.6c-0.2-11.9-3.8-14.9-15.8-12c-12.7,3-25.2,7-37.7,10.8c-13.2,3.9-20.8,1.7-24-7.4
			c-3.5-9.8,2.6-21.9,14.6-24.7c14.2-3.2,28.9-5.2,43.4-6c19.1-1.1,21.3-2.8,19.1-21.8c-1.6-13.4-3.6-26.7-5.4-40
			c-1.4-10.5,3.1-16.9,13.4-18.6c10.6-1.7,16.2,4,16.5,13.8c0.5,16.5,0.2,33.1-0.6,49.6c-0.3,7.3-1.5,13.6,8.8,14.3
			c12.7,0.8,22-3.5,22.1-12.1c0.2-19.8-0.5-39.6-0.9-59.4c-0.2-11.9-1.2-23.8-0.5-35.6c0.7-12.2,7.1-17.7,17.2-16.2
			c11.6,1.8,10.8,10.9,10.4,19.3c-1.3,28.1-3.1,56.1-4.1,84.2c-0.5,14.8,1.6,15.2,16.9,14.1c12.1-0.9,24.4,0,36.4,1.8
			c3.5,0.5,6.1,6.6,9.1,10.2c-3.8,2.7-7.4,7.1-11.6,7.8c-12.9,1.9-26,2.3-39,3.5c-7.6,0.7-12.2,4.2-12.5,12.8
			C151.8,496.8,150.7,517.5,149.6,541.6z M131.9,507.5c-0.3,0-0.6,0-0.9,0c0-9.1,0.9-18.3-0.4-27.2c-0.6-4.1-4.6-10-8.3-11.1
			c-11.9-3.5-23.7,6.2-24.1,18.6c-0.6,15.7-1,31.4-1.5,47.1c-0.2,6-3.3,13.1,6.1,15.3c14,3.3,24.9-0.2,26.5-9.6
			C131,529.7,131.1,518.5,131.9,507.5z"/>
		<path d="M921,507.4c7.3,4.4,14.6,8.1,21,12.8c11.5,8.4,22.5,17.4,33.9,26c34.8,26.5,35,74.9,0.1,101.1
			c-25.8,19.4-54.2,30.4-87.1,29.5c-39.2-1.1-67.8-44.2-51.3-79.9c8.7-19,20.4-36.6,30.8-54.7c1.5-2.7,3.3-5.3,5.8-9.3
			c-14.6-6.6-28.1-14.1-33.6-30.1c-0.4-1.2-4.8-1.7-7.2-1.3c-9.6,1.8-11.6-3.5-9.9-10.9c7.9-35.5,24.2-67,48.6-93.9
			c8.7-9.6,21.3-10.2,33.3-6.9c10.7,2.9,12.6,11.8,13.4,21.4c0.5,5.7,0.9,12,3.5,17C936.7,456.1,939,483.3,921,507.4z M976.2,589.9
			c-0.8-9.3-10.9-21.6-21.7-33.2c-12.2-13-18.2-13.7-33.1-4.6c-10.1,6.2-20.8,11.8-29.8,19.4c-9.6,8-18.7,17.2-25.8,27.4
			c-8.8,12.4-7.3,26.5,0.5,39.3c6.9,11.4,18.3,18.4,31,15.6c18.6-4.2,37.4-9.9,54.4-18.4C965.9,628.4,976.4,615.6,976.2,589.9z
			 M866.8,475.6c0,3.9-0.4,7.9,0.1,11.8c1.6,13.6,8.8,17.5,21.2,11.8c24.2-11,23.5-33.2,15.4-52c-2.9-6.7-8.2-8.4-15.7-5
			C869.1,450.7,866.5,454.3,866.8,475.6z"/>
		<path d="M435.4,592.4c14.7-19.2,26-35.9,39.5-50.7c7.2-7.8,17.4-14.2,27.4-17.9c26.8-9.8,52.7,12.4,45.4,39.9
			c-4.1,15.4-12.7,31.2-23.5,43c-17.4,19.2-37.7,35.9-58,52.2c-6.5,5.2-16.8,5.5-25.3,8.2c-4,1.3-8.1,2.4-11.7,4.4
			c-11.8,6.4-17.6,3.7-17.1-9.5c1.8-46.2,3.8-92.4,6.4-138.6c2-36.3,4.9-72.6,7.7-108.8c1.2-15.8,2.9-31.5,5.1-47.2
			c1.1-7.9,4.8-15.6,14.4-13.7c8.9,1.7,8.8,10,8.2,17.3c-5.2,64.2-10.5,128.4-15.7,192.6C437.5,572.2,436.5,580.7,435.4,592.4z
			 M523.7,568.4c0.2-19.1-8-24.3-20.2-18.2c-3.9,1.9-8.1,4-10.9,7.1c-14.6,16.6-29.2,33.3-43,50.6c-4.3,5.4-6.7,12.6-8.9,19.3
			c-0.8,2.4,0.5,6.4,2.3,8.4c1.1,1.3,5.4,1.1,7.4,0c19.8-10.8,40.6-20.4,54.6-39.1C512.7,586.1,519.3,575.1,523.7,568.4z"/>
		<path d="M636,534c13.6-19.8,26.3-38.3,39-56.8c9.5-14,20.7-26.3,36.9-32.4c6.1-2.3,13.2-4.1,19.5-3.3c4.8,0.6,12.3,5.3,12.7,8.7
			c0.5,5-3.2,13.7-7.2,15.3c-32.6,13.2-52.6,39.8-73.3,65.8c-11.7,14.8-10.7,20.8,4.9,32.1c13.8,9.9,28.2,19.1,42.6,28
			c3.4,2.1,8.4,3.2,12.3,2.5c6.7-1.2,13.7-5.2,16,5.1c2.1,9.4-4.6,18.9-13.7,20.3c-12.8,2-24.5-0.9-34.9-8.4
			c-12.9-9.2-25.6-18.7-38.2-28.2c-13.9-10.4-18.2-10.6-25,5.2c-11.1,25.8-19.9,52.6-29.5,79c-2,5.6-2.9,11.6-5.4,16.9
			c-1.3,2.6-5.3,5.7-7.7,5.5c-2.2-0.2-5.7-4.8-5.6-7.3c0.4-10.6,0.2-21.8,3.5-31.7c8.1-24.4,17.5-48.4,27.5-72.1
			c8.5-20,8.9-20.9-8.1-34.6c-10.8-8.7-21.7-17.3-31.8-26.8c-10.5-9.9-12-19.2-5.7-26c6.7-7.2,20.5-6.2,29.9,2.7
			c10.3,9.8,20.2,20.2,30.3,30.2C627.7,526.9,630.9,529.5,636,534z"/>
		<path d="M322.8,660.1c-23.7-0.2-41.2-13.5-50.3-40.4c-6.6-19.4-10.1-39.9-15.1-59.8c-3-11.8-5.9-23.7-9.5-35.4
			c-2.4-7.9-4.9-15.5,2.2-22c10.8-9.9,24-5.5,26.4,9.4c3.1,19.1,4,38.6,7.5,57.7c2.7,14.7,6.5,29.6,12.3,43.3
			c8.8,21.1,26.9,23.9,43.7,8.3c18.5-17.1,23.1-40.5,26.2-63.5c3.3-24.2,3.6-48.9,5.2-73.4c0.2-3.6,0-7.2,0.9-10.6
			c0.5-2,2.7-4.9,4.1-4.9c2.3,0,5.5,1.5,6.6,3.4c2.2,3.7,3.7,7.9,4.6,12.1c11.3,55.2-0.8,106.1-30,153.3
			C349.7,650.7,338.9,661.6,322.8,660.1z"/>
		<path d="M790.9,448c-1.7,45.8-4.4,91.6-4.8,137.5c-0.2,23.9,3.8,47.9,5.2,71.9c0.3,5.1-3,10.3-4.6,15.5
			c-5.1-2.7-12.5-4.2-14.7-8.4c-4.2-8.1-7.6-17.8-7.6-26.9c-0.1-33.6-0.3-67.3,2.7-100.8c3.3-37.1,1-73.4-6.4-109.7
			c-1.2-6.1-1.8-12.7-0.9-18.8c1.3-9.5,8.7-12.9,17.4-12.3c8.1,0.6,13.1,5.2,13.2,13.9c0.1,12.7,0,25.3,0,38
			C790.6,448,790.8,448,790.9,448z"/>
	</g>
</g>
</svg>
