<?xml version="1.0" encoding="utf-8"?>
<!-- Generator: Adobe Illustrator 22.1.0, SVG Export Plug-In . SVG Version: 6.00 Build 0)  -->
<svg version="1.1" id="Ebene_1" xmlns="http://www.w3.org/2000/svg" xmlns:xlink="http://www.w3.org/1999/xlink" x="0px" y="0px"
	 viewBox="0 0 1000 1000" style="enable-background:new 0 0 1000 1000;" xml:space="preserve">
<g>
	<g fill="#87E800">
		<path d="M79.5,485.8c0-6.5-0.1-13.1,0-19.6c0.3-9.8-4.7-13.6-13.7-11.3c-14.1,3.6-28,8.1-42.1,11.8c-7.7,2.1-15.9,2.9-19-7.1
			c-2.8-9.2-1.7-18,8-22.7c5.8-2.8,12.2-4.7,18.6-5.6c11-1.5,22.1-2.6,33.2-2.6c9.4,0,13.6-3.4,12.8-12.9c-1.4-14.9-2.4-29.8-4-44.6
			c-1.4-12.4,2.3-19,12.5-20.6c9.8-1.5,16.2,4,16.7,16.8c0.6,14.1-0.3,28.2-1,42.3c-0.4,7.4-3.1,15.2,8.4,16.2
			c13.7,1.2,22.6-4.3,22.4-14.7c-0.4-26.4-1.4-52.9-2.1-79.3c-0.1-4.6,0.1-9.2,0.7-13.8c1.3-9.1,7.9-11.7,15.9-11.4
			c8.7,0.3,9,7,8.8,13.3c-0.7,29.1-1.7,58.2-2.2,87.3c-0.2,13.7,1.8,14.4,15.7,13.4c11.3-0.9,22.9-0.4,34.2,1.2
			c3.6,0.5,6.4,6.7,9.6,10.3c-4,2.6-7.7,6.9-12,7.5c-11.7,1.8-23.6,2-35.5,3c-6.7,0.5-12,3.1-12.6,10.8c-1.4,18.7-2.8,37.4-3.9,56.1
			c-0.4,7,3.7,8.8,9.7,6.7c7.2-2.5,14.4-5.3,21.6-8c3.6-1.3,7.2-3.4,10.8-3.5c3.7-0.1,7.4,1.8,11.1,2.8c-1.9,3-3.2,7.1-5.9,8.7
			c-9.5,5.8-19.3,11-29.2,16c-10,5-14.8,12.1-14,23.8c0.6,8.7-1.5,17.5-2,26.3c-0.6,10.2-6.5,13.3-15.5,11.7
			c-9.1-1.6-13.1-7.6-11.8-16.6c0.9-6.4,3.8-12.7,3.6-19c-0.2-3.4-4.5-8.4-7.9-9.6c-5.7-1.8-12-0.3-12.2,7.8
			c-0.2,11.1,0.2,22.2,0.3,33.3c0,10.3,0,20.6-0.3,30.9c-0.2,7.8-3.9,13.3-11.9,14.6c-8.3,1.3-12.5-4.1-13.6-11
			c-2.7-18.1-5.5-36.3-6.5-54.6c-0.6-11.2-3.1-17.3-15.5-17.3c-5.9,0-12-2.4-17.6-4.8c-9.4-4.1-14.6-14.3-11.4-21
			c4.4-9.3,16.7-13.9,26.1-9.6c18.9,8.5,22.1,6.5,22.6-14.4C79.6,497.3,79.5,491.6,79.5,485.8z M133.3,483.4c-0.3,0-0.6-0.1-0.8-0.1
			c0-6.5,0-13,0-19.5c0-8.1-2.2-14.6-11.9-14.9c-12-0.3-19.6,5.4-20.1,15.2c-0.9,16.4-1.6,32.7-2.3,49.1c-0.3,7-1,13.9,9.6,14.5
			c15.9,0.9,20.8-1.1,22.4-12.5C131.7,504.7,132.3,494.1,133.3,483.4z"/>
		<path d="M427.1,567.9c12.8-17.1,22.8-31.5,34-45.1c5.3-6.4,12.3-11.6,19.2-16.3c14.4-9.6,33.8-8.9,45.2,0.7
			c10.5,9,14.2,30.1,7.3,45c-11.1,23.8-28.8,42.4-48.2,59.4c-9.2,8.1-18.9,15.8-29.4,21.9c-6.9,4-15.8,4.6-23.7,7
			c-4.9,1.5-9.8,3.5-14.5,5.7c-8.2,3.9-12.7,1.9-12.4-7.5c0.8-33.3,1.3-66.7,2.8-100c1.4-31,4-61.9,6.3-92.8
			c2.3-30.2,5-60.3,7.6-90.5c0.2-2.6,0.3-6,1.9-7.7c3.9-4.1,8.6-7.3,13-10.9c2.5,4.6,7.4,9.3,7.2,13.7c-1,21-3.5,42-5.1,63
			c-2.9,35.5-5.6,71-8.2,106.5C428.9,535,428.2,549.8,427.1,567.9z M512.5,541.9c-0.1-15.1-9.2-20.5-20.3-14.6
			c-3,1.6-6.3,3.3-8.5,5.9c-15.4,17.5-30.8,35.1-45.6,53.1c-3.5,4.2-5.6,10.2-6.6,15.7c-1,5.7,1.1,11.9,8.9,8.2
			c27.6-12.8,52.2-29.5,67.3-57C510.2,548.9,511.6,544.1,512.5,541.9z"/>
		<path d="M565.9,645.4c1.1-26.3,12.1-49.7,21.7-73.5c3.5-8.5,7.1-17,11.3-25.2c5-9.7,2-16.3-6.2-22.6
			c-12.5-9.5-24.7-19.5-36.2-30.1c-10-9.2-11-17.3-4.7-23.8c6.3-6.5,19.2-6.6,27.3,0.9c11,10.1,21.6,20.8,31.8,31.6
			c6,6.3,11.1,6.4,15.9-0.4c10.2-14.4,19.4-29.5,30.4-43.3c8.8-11,18.7-21.5,29.8-29.9c6.5-4.9,16.3-6.5,24.8-6.9
			c4.6-0.2,13.3,5.1,13.4,8.1c0.1,5.3-3.8,13.9-8,15.4c-20.2,7.4-33.6,22.6-47.5,37.3c-9.2,9.7-17.1,20.6-25.5,31.1
			c-6,7.5-6,15.4,2,21.1c16.6,11.7,33.6,22.7,50.7,33.6c2.3,1.5,6.1,1.9,8.8,1.2c6.5-1.6,13.1-5.2,14.5,5.7
			c1.4,10-3.3,18.1-12.5,18.4c-8.2,0.3-17.8,0.3-24.4-3.5c-16.2-9.4-31.2-20.7-46.2-31.9c-12.9-9.7-18.2-9.7-24.3,5.3
			c-11.4,28-21.1,56.7-31.5,85.2c-0.9,2.5-0.9,5.6-2.5,7.6c-1.9,2.4-5,3.9-7.6,5.8c-1.7-2.7-4.1-5.1-5-8
			C565.2,651.7,565.9,648.4,565.9,645.4z"/>
		<path d="M942.7,425.9c-20.2,1.9-40.4,4.7-60.6,5.6c-18.3,0.8-36.7,0-54.9-1.2c-6.2-0.4-12.5-3.7-18-7.1
			c-7.6-4.7-8.5-12.2-5.5-20.3c3.1-8.2,9.2-10.9,17.4-9.3c4.1,0.8,8.2,2.1,12,3.8c26.3,11.5,53.2,12.7,81.1,7.2
			c16.5-3.3,33.4-5,50.1-5.7c17.5-0.7,26.5,7.4,31.6,24.3c6.6,21.7,2,42.7-3.8,63.5c-7.6,27.3-16.6,54.3-24.5,81.5
			c-5,17.1-7.3,34.4-3.8,52.3c1.3,6.6,3.4,15.4-7.3,17.7c-8.9,2-15-2.9-17.1-14.2c-4.7-25,2.3-48.6,9.4-72.2
			c8.5-27.9,16.8-55.8,25.1-83.7c0.3-1.1,0.6-2.2,0.7-3.4C979,431.3,972.1,424.7,942.7,425.9z"/>
		<path d="M384.9,496.3c-2.8,46.3-11.6,85.7-36.4,119.8c-18,24.8-51.3,23.7-69-1.4c-15.1-21.4-19.3-46.5-24.5-71.3
			c-3-14.5-8.2-28.6-11.1-43.1c-1.1-5.7-1-14,2.4-17.6c3.6-3.9,12.6-6.6,17.4-4.8c4.5,1.7,8.1,9.6,9.2,15.3
			c6,30,10.5,60.3,16.9,90.2c2.3,10.7,7.9,22,21.6,22.2c14.3,0.2,24.7-7.9,31.6-19.9c14-24.3,18-51.2,19.8-78.6
			c1.1-16.8,1.4-33.7,2.6-50.5c0.2-2.9,2.8-5.6,4.2-8.5c2.8,2.2,7.4,4,8,6.6C380.9,470.1,383.1,485.6,384.9,496.3z"/>
		<path d="M771.3,419.5c-1.6,38.6-4.4,77.3-4.5,115.9c-0.1,33.2,3.2,66.4,4.4,99.7c0.1,3.8-2.6,10.6-4.6,10.9
			c-4,0.5-11-1.6-12.2-4.5c-4.4-10.4-9.5-21.5-9.5-32.4c-0.2-32.5,0.3-65.2,3.3-97.5c3.5-37.9-1-74.8-7.9-111.8
			c-0.9-5,0.4-12.6,3.8-15.5c4.1-3.7,11.8-5.8,17.1-4.7c3.9,0.9,8.4,7.7,9.2,12.5c1.5,9,0.4,18.3,0.4,27.5
			C771,419.5,771.1,419.5,771.3,419.5z"/>
	</g>
</g>
</svg>
