<?xml version="1.0" encoding="utf-8"?>
<!-- Generator: Adobe Illustrator 22.1.0, SVG Export Plug-In . SVG Version: 6.00 Build 0)  -->
<svg version="1.1" id="Ebene_1" xmlns="http://www.w3.org/2000/svg" xmlns:xlink="http://www.w3.org/1999/xlink" x="0px" y="0px"
	 viewBox="0 0 1000 1000" style="enable-background:new 0 0 1000 1000;" xml:space="preserve">
<g>
	<g fill="#87E800">
		<path d="M159.5,519.7c15.9-6.1,27.4-11.2,39.5-14.8c5.8-1.7,12.5-0.4,18.9-0.4c-4,4.7-7.3,10.7-12.3,13.9
			c-10.6,6.9-22.7,11.6-33.2,18.8c-4.4,3-7.9,9.7-8.6,15.1c-1.5,11.3,0,22.9-1.4,34.2c-0.6,5-4.6,12.4-8.6,13.6
			c-5,1.5-13.4-0.6-17-4.3c-3.4-3.6-3.4-11.2-3.3-17.1c0-4.4,3-8.8,3.5-13.3c0.9-7.9,1-15.1-11-15.2c-10.8-0.1-14.4,3.7-13.7,14.1
			c1.2,19,1.8,38.1,2.5,57.1c0.1,3.8,0.9,8.6-1,11.2c-4,5.3-9,11.5-14.8,13.2c-2.9,0.9-11.5-6.6-12.4-11.3
			c-3.7-19.5-6.5-39.3-7.4-59c-0.6-12.9-2.2-21.3-17.8-20.6c-6,0.3-12.5-2.3-18.3-4.8C31.9,545.3,25.9,533.5,30,526
			c5.4-9.9,19.2-14.3,29.5-9.5c20,9.4,23.5,7.4,24.2-15c0.4-13.6,0.3-27.1,0.2-40.7c-0.2-13.6-3.5-16.9-17.1-14
			c-14.1,3-27.8,7.5-41.6,11.7c-14.7,4.5-21.1,2.8-24.4-6.9c-4.2-12.1,0.8-23.4,14.5-26.4c17.3-3.8,35.1-5.8,52.8-7
			c10.4-0.7,14.9-4.2,13.8-14.5c-1.7-16.4-4.1-32.8-4.6-49.3c-0.2-6.3,2-14.8,6.3-18.6c10.2-8.9,22.4-4.3,24.5,9.4
			c2,12.8,0.8,26.1,0.8,39.2c0,3.4-1.5,6.8-1.2,10.1c0.6,6.4,1.2,18,3.1,18.3c8.8,1.3,18.3,0.3,27-2c2.5-0.7,4.4-8.6,4.3-13.1
			c-0.4-31.4-1.6-62.7-2.1-94.1c-0.1-8,0-16.4,10.6-19.1c11.6-3,17.8,0.5,17.5,12.5c-0.6,22-2.4,44-3.5,66
			c-0.6,11.8-0.5,23.7-1.1,35.6c-0.4,9.1,4,11.7,12.5,11.4c13.9-0.5,27.9-1.1,41.7,0.3c4.9,0.5,9.2,6.7,13.7,10.4
			c-4.8,3.2-9.2,8.3-14.4,9.1c-13.3,2.2-27.1,1.9-40.4,4.2c-4.7,0.8-12,5.9-12.4,9.7C161.8,467.4,161,491.4,159.5,519.7z M143,476.3
			c-0.2,0-0.5,0-0.7-0.1c0-6.3,0.1-12.7,0-19c-0.1-8.4-0.9-16.7-11.5-18.2c-11.2-1.6-23.5,6.2-24.3,16.4c-1.4,17.6-1.2,35.3-2.1,53
			c-1,19.4-1.2,19,18.4,19c11.3,0,17.4-3.4,17.6-15.7C140.5,499.9,142.1,488.1,143,476.3z"/>
		<path d="M471.2,569.6c9.1-13.1,17.2-27.3,27.7-39.2c9.7-10.9,21.2-20.7,33.5-28.5c13.9-8.9,29.7-8.5,42.8,2.5
			c13.3,11.2,16.8,27.1,11.4,42.9c-4.2,12.1-10.7,24.5-19.3,33.9c-18.6,20.1-38.7,39-59.4,57.1c-10.4,9.1-22.8,16.4-38.3,13.6
			c-2.4-0.4-5.2,3.5-8.2,4.3c-4.7,1.3-9.9,3.1-14.3,2.1c-2-0.4-3.7-7.2-3.5-11c1.5-47.9,2.8-95.7,5.4-143.6
			c2.2-40.6,6-81.1,9.3-121.6c1.3-16,3.1-32,4.8-48c0.4-3.3,0.8-7.3,2.8-9.5c3.1-3.4,8.7-8.6,11.3-7.6c4,1.5,8.9,7.5,9,11.6
			c0.1,13.5-1.8,27-3,40.5c-3.9,47.3-8,94.5-11.7,141.8c-1.5,19.3-2.2,38.7-3.3,58.1C469.1,569.1,470.1,569.3,471.2,569.6z
			 M562.6,542.2c0-15.2-8.4-23.1-18.2-17.8c-34.5,18.8-56.6,49-72,84.3c-3.2,7.3,3.5,13.4,10.3,10.2c31.8-14.6,59.9-33.8,76.4-66
			C561.1,549,561.9,544.3,562.6,542.2z"/>
		<path d="M618.8,658.3c4.7-16.6,8.4-33.6,14.3-49.8c7.6-20.7,16.7-40.8,25.6-61c4.2-9.6,3.2-16.5-5.7-23
			c-12.1-8.6-23.4-18.3-34.9-27.6c-2.3-1.9-4.5-3.9-6.5-6.1c-7-7.8-14-16-6-26.8c6.1-8.2,19.4-8.4,29.7,0.8
			c12.3,11,23.5,23.2,34.6,35.4c7.6,8.4,13.3,8.6,19.9-1.2c13.5-20,27-40.1,41.6-59.4c12.3-16.3,28.1-28.9,49.6-29.6
			c5.4-0.2,13.6,3.7,15.8,8.1c3.7,7.4-0.5,15.3-8.7,18.5c-34.5,13.6-55.4,42.4-77.5,69.6c-11.8,14.5-10.9,21.5,3.9,33.1
			c14.6,11.5,30.5,21.4,46.3,31.2c4.3,2.6,10.4,3.4,15.6,3.1c6-0.3,13.3-5.2,15.3,4.6c1.7,8.8,0,19.1-10,20.5
			c-10.3,1.5-22.9,1.5-31.6-3.2c-17.7-9.6-33.8-22.5-50.1-34.7c-15.1-11.3-20.5-11.5-27.6,5.9c-12.7,30.9-23.3,62.7-34.7,94.2
			c-0.9,2.4-0.7,5.5-2.2,7.2c-2.5,2.8-5.9,4.7-9,7c-1.8-3-4-5.8-5.1-9c-0.8-2.3-0.2-5-0.2-7.6C620.4,658.7,619.6,658.5,618.8,658.3z
			"/>
		<path d="M912.6,526.6c3.2-1.6,6.6-3.1,9.7-5c35.7-22.3,69.8-6.8,75.5,34.5c5.1,36.4-20.5,73.6-56.4,82.2
			c-24.2,5.8-53.3-14.3-57.8-43.2c-2.8-17.7-1.4-36.3,0.3-54.3c5.1-53.1,11.3-106.1,17.1-159.2c0.6-5,1.6-10,2.6-15
			c2.6-13.2,10.3-19.6,20.3-17c10.5,2.7,16.5,16.6,13.3,28c-8.5,31-17.5,61.9-24.2,93.2c-3.7,17.5-3.4,35.8-4.9,53.8
			C909.6,525.3,911.1,525.9,912.6,526.6z M944.3,540.2c-6.1,4.9-17.3,11.7-25.8,21c-13.1,14.2-10.1,32.9,5.4,45.5
			c9.9,8.1,27.1,4.2,37.4-10.1c5.5-7.7,9.9-16.9,12.2-26C976.9,556.4,963.4,539.8,944.3,540.2z"/>
		<path d="M406.2,437.6c2.9,5.7,7.1,11.1,8.6,17.2c9.6,37.7,6.1,75.1-6.8,111.2c-6.9,19.4-15.2,38.7-26.1,56.1
			c-19.3,30.7-57,29.9-77.8-0.1c-17.3-24.9-21.4-54-27-82.7c-2.6-13.2-7.4-25.9-10-39.1c-1.4-7.3-2.8-16.5,0.5-22.1
			c2.6-4.4,12.8-7.2,18.8-6.1c9.7,1.7,10.6,11.4,11.7,20.2c3.2,26,6.7,52,10.8,77.9c1.3,8.2,4.6,16.3,8,24
			c9.7,21.9,29.8,26.7,46.9,9.8c8.7-8.6,16.5-20.2,19.8-31.8c6.3-22.2,10-45.4,13-68.3c2.3-18,1.8-36.3,2.8-54.5
			c0.2-3.5,1.4-7,2.2-10.5C403.2,438.5,404.7,438,406.2,437.6z"/>
		<path d="M818.9,593.9c1.8-32.5,3.4-65.1,5.4-97.6c2-33.7-1.2-66.8-8.3-99.7c-1.3-6.1-2.3-12.7-1.6-18.9
			c1.1-10.1,7.6-16.4,18.1-15.7c9.5,0.7,15.6,6.1,15.4,16.6c-1.1,38.5-2.7,77-3.1,115.6c-0.5,48.1-9.8,96.3,2.8,144.1
			c0.7,2.8,1.3,6.1,0.5,8.8c-1.2,4.1-3.4,10.9-5.6,11c-4.1,0.3-10.7-2.2-12.4-5.5c-4.6-9.3-8.4-19.4-10.2-29.5
			c-1.7-9.5-0.4-19.4-0.4-29.2C819.3,593.9,819.1,593.9,818.9,593.9z"/>
	</g>
</g>
</svg>
