<?xml version="1.0" encoding="utf-8"?>
<!-- Generator: Adobe Illustrator 22.1.0, SVG Export Plug-In . SVG Version: 6.00 Build 0)  -->
<svg version="1.1" id="Ebene_1" xmlns="http://www.w3.org/2000/svg" xmlns:xlink="http://www.w3.org/1999/xlink" x="0px" y="0px"
	 viewBox="0 0 1000 1000" style="enable-background:new 0 0 1000 1000;" xml:space="preserve">
<g>
	<g fill="#87E800">
		<path d="M153.2,542.3c10.6-3.7,20.4-7.9,30.6-10.5c6.1-1.6,12.8-0.7,19.2-1c-4.4,4.8-8.2,10.1-13.2,14.1c-4.7,3.8-10.3,7.2-16.1,9
			c-18.1,5.8-22.9,18.4-20.6,35.8c0.8,6-0.1,12.3-0.9,18.4c-1.4,10-8.1,12.4-16.9,10.4c-9.1-2-13.4-9.6-10.9-18.3
			c1.6-5.4,3.7-10.9,4-16.5c0.3-8-4.3-11.5-12.6-11c-8.4,0.5-9,5.9-8.7,12c0.7,16.6,1.5,33.1,2.2,49.7c0.1,3.5,0.1,7-0.5,10.4
			c-1.4,7.6-4.3,14.6-13.2,15.4c-9.5,0.9-13.2-6.2-14.2-13.7c-2.2-16.8-3.8-33.7-4.8-50.5c-0.9-15-2.2-16.2-17.1-19.1
			c-8.1-1.6-16.7-4.4-22.9-9.4c-3.8-3.1-6.5-14.1-4.2-16.7c5-5.6,13.4-8.2,20.6-11.7c0.9-0.5,2.8,1,4.2,1.6
			c19.6,8.5,20.2,8.6,22.7-12.3c1.6-13,0.8-26.2,1.2-39.3c0.3-9.5-4.9-12.7-13.3-10.7c-12,2.8-24,5.9-35.7,9.8
			c-16.6,5.5-24.9,3.9-28.4-6.8c-3.6-11.2,3.6-21.4,19.6-24.6c13.9-2.8,28.2-4,42.4-4.7c9.2-0.5,14-3.6,13.1-13.1
			c-1.2-12.3-2.4-24.5-4-36.8c-2.5-18.8,2-28.3,13.9-28.8c10.5-0.5,16.1,8.1,15.9,26.1c-0.2,12.3-1.5,24.6-2.2,36.9
			c-0.4,7.1,0.3,14,10,12.8c8.3-1,19.3,0.9,19.7-12.3c0.4-13.9,0.1-27.8,0.1-41.7c0-17,0.2-34-0.1-51c-0.2-10.7,5.8-14.7,15.1-14.7
			c9.5,0,11.1,7,10.8,14.5c-1.3,28.1-3.3,56.2-4.3,84.3c-0.6,16.5,1.5,17.1,18,15.8c11.7-0.9,23.7,0.1,35.4,1.9
			c3.1,0.5,5.4,6.8,8,10.5c-3.5,2.3-6.8,6.2-10.6,6.7c-13,1.7-26.1,2.2-39.1,3.3c-8.2,0.7-12,4.8-12,13.6c-0.2,18.1-1.4,36.2-2,54.3
			C151,536.5,152,538.3,153.2,542.3z M112.4,551.7c16.1,0,18.8-2.5,19.5-18.5c0.6-14.2,1.2-28.5,1.7-42.7
			c0.6-15.8-6.5-20.8-21.7-16.5c-10.3,2.9-11.4,10.7-11.8,18.8c-0.7,14.6-0.1,29.2-1.1,43.7C98.1,551.2,97.9,551.7,112.4,551.7z"/>
		<path d="M817.9,609.8c3.2-6.2,6.3-12.5,9.5-18.7c3.3,5.6,7.8,10.8,9.6,16.8c7,23.5,26.1,30.1,47.5,14.5
			c20.3-14.8,33.7-35.1,39.4-59.7c5.1-21.9-7.4-33.7-28.7-26.7c-13.1,4.3-25.1,11.8-37.9,17.3c-8.8,3.8-17.8,7.7-27.2,9.6
			c-13.8,2.9-23.5-4.5-23-18.5c0.5-12.1,3.7-24.2,6.9-36c3.9-14.1,8.8-27.3,3.2-42.8c-4.5-12.5,6.2-22.7,19.9-20
			c14.8,2.8,29.2,9.6,43.9,10.1c24.5,0.9,49.1-1.1,73.6-3.3c13.7-1.2,27.2-5.7,40.9-7.9c3.9-0.6,8.2,1.4,12.3,2.2
			c-2.7,4-4.6,10.7-8.1,11.7c-22.6,6.4-45.3,12.9-68.4,16.6c-22,3.5-44.5,3.7-66.8,5.2c-9.8,0.7-17.4,4.5-20.5,14.1
			c-3.3,9.8-6,19.9-8.3,30c-1.4,6.1,1.8,9.1,7.9,7c9.1-3.1,18-6.8,27-10.3c9.3-3.7,18.3-8.4,27.9-11.1c27.7-7.7,45.8,2.9,49.1,31.1
			c7.7,67-39.4,113.9-101.4,113.3c-9.4-0.1-23.5-18.1-25.1-31.6c-0.5-3.8-0.1-7.7-0.1-11.6C819.9,610.7,818.9,610.3,817.9,609.8z"/>
		<path d="M429.3,594.6c10-14.8,17.9-27.5,26.8-39.4c12.3-16.4,26.9-30.3,49-31.3c22.4-1,39.1,18.3,33.9,40.3
			c-2.6,11-7.2,22.8-14.5,31c-17.8,20.1-37.2,39-57,57.2c-9.3,8.6-20.9,14.2-34.8,13.4c-4.3-0.3-8.8,3.7-13.3,5.7
			c-7,3.3-11.6,1.6-11.5-6.7c0.3-27.4,0.7-54.8,1.5-82.2c0.5-18.1,1.6-36.2,3-54.3c3.8-50.8,7.7-101.5,11.9-152.3
			c0.3-4,1.7-8.6,4.2-11.7c2.1-2.5,6.7-4.8,9.7-4.3c3,0.5,6.7,4.1,7.7,7.2c1.4,4.1,1,9.1,0.6,13.6c-3.5,39.2-7.3,78.3-10.6,117.5
			C433.5,529.5,431.7,560.5,429.3,594.6z M515.7,565.5c-0.1-14-10.3-20.2-20.7-14c-22.1,13.1-37,33.4-51.1,54.2
			c-3.8,5.7-7.1,12-9.3,18.5c-1,3,0.4,7.8,2.5,10.4c1,1.3,6.4,0,9.2-1.4c6.6-3.1,12.7-7.3,19.3-10.5c20.2-9.9,33.7-26.6,45.1-45.1
			C513.4,573.3,514.6,568.3,515.7,565.5z"/>
		<path d="M700.6,620.4c-5.5-2.2-13.5-4.1-20-8.4c-13.9-9-27-19.2-40.4-29.1c-13.5-10-17.5-10.1-24,5.7
			c-11.5,27.8-21.1,56.3-31.4,84.5c-0.8,2.2-0.7,5-2,6.6c-2.5,2.9-5.8,5-8.8,7.5c-2-3.4-6.1-7.1-5.5-10c3.6-18.8,7-37.9,12.9-56.1
			c5.8-17.9,14.3-35,22-52.2c3.5-7.9,2.9-13.3-4.8-18.6c-11.1-7.6-21.4-16.4-31.9-25c-3.9-3.1-7.6-6.6-10.7-10.6
			c-4.8-6.3-7.5-14.6-0.9-19.8c4.8-3.8,14.2-5.9,19.5-3.8c8.2,3.2,15,10.4,21.7,16.7c5.9,5.5,10.8,12.1,16.4,17.8
			c10,10.3,11.1,10.3,19.8-1.8c9.2-12.8,17.2-26.6,26.9-39.1c8.5-10.8,17.5-21.8,28.3-30c7.4-5.7,18.2-8.1,27.8-9.3
			c4.3-0.6,12.5,4.5,13.4,8.4c1,4.4-2.9,13.3-6.8,14.9c-27.3,11.2-45.9,32.4-63.6,54.2c-21.8,26.9-20.3,26.5,4.9,47.2
			c8.6,7.1,18.2,13.2,28.1,18.4c5.8,3.1,13,3.5,19.5,5.2c4.6,1.2,12.3,1.3,13.2,3.7c2.6,7.6,0.7,15.7-7.6,19.6
			C712.8,619.1,707.9,619,700.6,620.4z"/>
		<path d="M388,527.2c-4.6,38.2-13.1,74.7-33,108.7c-17.5,29.8-60,33-77.7-3.9c-10.2-21.2-14.3-45.3-21-68.1
			c-3.9-13.2-7.1-26.7-11-39.9c-3.5-11.8-1.4-18.1,8-22c13.2-5.5,20.9,0.8,22.7,17.8c2.1,20.3,4.2,40.7,7.6,60.8
			c1.9,11.3,5.5,22.6,10,33.2c7.6,18.1,24,21.6,39.5,9.4c12.7-10.1,20.8-23.7,23-39.1c4.5-30.4,6.6-61.1,10.3-91.7
			c0.8-7,4.6-19.7,5.9-19.6c10.5,1.2,9.5,11.3,10.9,18.8C385.3,503.2,386.4,515.1,388,527.2z"/>
		<path d="M774.9,458.6c-1.7,50.4-3.9,100.8-4.7,151.3c-0.2,14.8,4.2,29.7,5.2,44.6c0.4,5.6-1.2,14.9-4.6,16.5
			c-8.4,3.9-13-3.9-16.1-10.7c-9.5-21-5.9-43.2-5-65c2.2-54.9,9.2-110-3.9-164.6c-1.3-5.5-1.8-11.6-0.9-17.1
			c1.5-9,8.1-12.8,16.9-12.3c8.8,0.6,13,5.5,12.8,14.5c-0.2,14.3-0.1,28.5-0.1,42.8C774.7,458.6,774.8,458.6,774.9,458.6z"/>
	</g>
</g>
</svg>
